<svg width="20" height="20" viewBox="0 0 20 20" fill="none" xmlns="http://www.w3.org/2000/svg">
<circle cx="10" cy="10" r="9.5" stroke="black"/>
<mask id="path-2-inside-1_2788_1217" fill="white">
<path d="M20 10C20 12.0576 19.3653 14.0652 18.1824 15.7488C16.9995 17.4324 15.326 18.7102 13.3903 19.4078L13.0524 18.4703C14.7953 17.8422 16.302 16.6918 17.367 15.176C18.4321 13.6601 19.0035 11.8526 19.0035 10H20Z"/>
</mask>
<path d="M20 10C20 12.0576 19.3653 14.0652 18.1824 15.7488C16.9995 17.4324 15.326 18.7102 13.3903 19.4078L13.0524 18.4703C14.7953 17.8422 16.302 16.6918 17.367 15.176C18.4321 13.6601 19.0035 11.8526 19.0035 10H20Z" stroke="#CDCDCD" stroke-width="2" mask="url(#path-2-inside-1_2788_1217)"/>
</svg>
