<svg width="16" height="16" viewBox="0 0 16 16" fill="none" xmlns="http://www.w3.org/2000/svg">
<path d="M5.33301 6.66661V4.66663C5.33301 3.9594 5.61396 3.28113 6.11405 2.78104C6.61414 2.28095 7.29241 2 7.99964 2C8.70688 2 9.38514 2.28095 9.88523 2.78104C10.3853 3.28113 10.6663 3.9594 10.6663 4.66663V6.66661" stroke="black" stroke-width="0.666658" stroke-linecap="round"/>
<path d="M3.33301 6.6665H12.6662V12.6664C12.6662 13.02 12.5257 13.3592 12.2757 13.6092C12.0257 13.8593 11.6865 13.9997 11.3329 13.9997H4.66632C4.31271 13.9997 3.97357 13.8593 3.72353 13.6092C3.47348 13.3592 3.33301 13.02 3.33301 12.6664V6.6665Z" stroke="black" stroke-width="0.666658" stroke-linejoin="round"/>
</svg>
