<svg width="16" height="16" viewBox="0 0 16 16" fill="none" xmlns="http://www.w3.org/2000/svg">
<path d="M5.38442 4.66663C7.25359 4.66663 8.76872 6.15909 8.76872 8.00002C8.76872 9.84094 7.25347 11.3333 5.38442 11.3333C3.51536 11.3333 2 9.84094 2 8.00002C2 6.15909 3.51525 4.66663 5.38442 4.66663ZM10.7891 4.86189C11.7237 4.86189 12.4813 6.26673 12.4813 8.00002H12.4814C12.4814 9.73285 11.7238 11.1381 10.7892 11.1381C9.85462 11.1381 9.097 9.73285 9.097 8.00002C9.097 6.26718 9.85451 4.86189 10.7891 4.86189ZM13.4048 5.18875C13.7335 5.18875 14 6.44737 14 8.00002C14 9.55221 13.7336 10.8113 13.4048 10.8113C13.0761 10.8113 12.8098 9.55255 12.8098 8.00002C12.8098 6.44749 13.0762 5.18875 13.4048 5.18875Z" fill="white"/>
</svg>
