<svg width="17" height="16" viewBox="0 0 17 16" fill="none" xmlns="http://www.w3.org/2000/svg">
<path d="M2.58334 10C2.58334 6.73236 5.23233 4.08337 8.50001 4.08337C11.7677 4.08337 14.4167 6.73236 14.4167 10C14.4167 10.4729 14.3614 10.9318 14.2572 11.3711L14.9869 11.5442L14.2572 11.3711C14.2523 11.3915 14.2409 11.4122 14.2134 11.4322C14.1833 11.4542 14.1368 11.4723 14.0802 11.4723H2.91987C2.86325 11.4723 2.81669 11.4542 2.78662 11.4322C2.75911 11.4122 2.74768 11.3915 2.74284 11.3711C2.63866 10.9318 2.58334 10.4729 2.58334 10Z" stroke="#CDCDCD" stroke-width="1.5"/>
<path d="M6.42098 11.6658C6.32843 11.4101 6.27777 11.1328 6.27777 10.8431C6.27777 9.55928 7.27269 8.51855 8.49999 8.51855C9.72729 8.51855 10.7222 9.55928 10.7222 10.8431C10.7222 11.1328 10.6716 11.4101 10.579 11.6658" stroke="#CDCDCD" stroke-width="1.5"/>
<path d="M9.98148 8.88895L11.463 7.40747" stroke="#CDCDCD" stroke-width="1.5" stroke-linecap="round"/>
</svg>
