<svg width="20" height="20" viewBox="0 0 20 20" fill="none" xmlns="http://www.w3.org/2000/svg">
<path d="M18.3023 2.28259C18.2484 2.236 18.1828 2.20504 18.1126 2.19306C18.0424 2.18108 17.9702 2.18854 17.9039 2.21462L2.0711 8.41071C1.9097 8.47336 1.77303 8.58678 1.6817 8.73387C1.59038 8.88096 1.54933 9.05375 1.56476 9.22619C1.58019 9.39864 1.65125 9.5614 1.76724 9.68994C1.88323 9.81848 2.03786 9.90583 2.20782 9.93884L6.5625 10.7935V15.6248C6.56248 15.8117 6.61832 15.9943 6.72287 16.1493C6.82742 16.3042 6.97589 16.4244 7.14922 16.4943C7.26077 16.5391 7.37982 16.5621 7.5 16.5623C7.6258 16.562 7.75026 16.5364 7.86595 16.487C7.98165 16.4376 8.08622 16.3654 8.17344 16.2748L10.3609 14.0092L13.7203 16.9552C13.8906 17.1054 14.1097 17.1887 14.3367 17.1896C14.4359 17.1892 14.5344 17.1737 14.6289 17.1435C14.7836 17.0946 14.9227 17.0059 15.0324 16.8863C15.142 16.7668 15.2184 16.6206 15.2539 16.4623L18.4273 2.6654C18.4432 2.59625 18.44 2.52409 18.418 2.45664C18.396 2.3892 18.356 2.32903 18.3023 2.28259ZM2.18751 9.17009C2.18292 9.1323 2.19144 9.09408 2.21162 9.0618C2.23181 9.02953 2.26246 9.00516 2.29844 8.99274L15.943 3.6529L6.80235 10.2037L2.32891 9.32556C2.29099 9.32 2.25618 9.30147 2.23039 9.27312C2.20461 9.24477 2.18945 9.20836 2.18751 9.17009ZM7.72422 15.8404C7.68102 15.8849 7.62555 15.9155 7.56487 15.9284C7.50419 15.9413 7.44106 15.9358 7.3835 15.9127C7.32595 15.8896 7.27657 15.8499 7.24167 15.7986C7.20677 15.7473 7.18791 15.6868 7.1875 15.6248V11.2263L9.88907 13.5935L7.72422 15.8404ZM14.6445 16.3201C14.6325 16.3731 14.6067 16.4221 14.5699 16.4622C14.5331 16.5022 14.4864 16.532 14.4346 16.5485C14.3827 16.565 14.3275 16.5676 14.2743 16.5562C14.2211 16.5448 14.1718 16.5197 14.1313 16.4834L7.37735 10.5607L17.6664 3.18727L14.6445 16.3201Z" fill="white"/>
</svg>
