<svg width="20" height="20" viewBox="0 0 20 20" fill="none" xmlns="http://www.w3.org/2000/svg">
<path d="M16.141 6.89583V7.31249C16.141 11.5083 12.9577 16.3167 7.13268 16.3167C5.41308 16.3204 3.72999 15.8207 2.29102 14.8792C2.54092 14.9131 2.79301 14.9284 3.04518 14.925C4.4706 14.9289 5.85594 14.4534 6.97852 13.575C6.3163 13.5652 5.674 13.347 5.14292 12.9513C4.61183 12.5556 4.21897 12.0026 4.02018 11.3708C4.21744 11.4126 4.41854 11.4336 4.62018 11.4333C4.90175 11.4334 5.18204 11.3956 5.45352 11.3208C4.73626 11.1778 4.09098 10.79 3.6281 10.2238C3.16521 9.65754 2.9135 8.94803 2.91602 8.21666V8.17499C3.35485 8.42013 3.84684 8.55457 4.34935 8.56666C3.68043 8.12648 3.20484 7.44749 3.01975 6.66841C2.83467 5.88934 2.95405 5.069 3.35352 4.37499C4.14946 5.35395 5.14251 6.15444 6.26812 6.72442C7.39373 7.2944 8.62669 7.62112 9.88685 7.68333C9.82447 7.44684 9.79503 7.20287 9.79935 6.95833C9.77589 6.31204 9.95218 5.67422 10.3042 5.13173C10.6563 4.58923 11.167 4.16842 11.7668 3.92659C12.3666 3.68475 13.0263 3.63366 13.6562 3.78025C14.2861 3.92684 14.8555 4.26401 15.2868 4.74583C15.9959 4.60273 16.6761 4.3422 17.2993 3.97499C17.063 4.7214 16.5602 5.3547 15.8869 5.75416C16.5159 5.66749 17.1291 5.49067 17.7077 5.22916C17.2884 5.87318 16.7579 6.43751 16.141 6.89583Z" stroke="white" stroke-width="0.5" stroke-linecap="round" stroke-linejoin="round"/>
</svg>
