<svg width="24" height="24" viewBox="0 0 24 24" fill="none" xmlns="http://www.w3.org/2000/svg">
<circle cx="12" cy="12" r="12" fill="#2D374B"/>
<path d="M14.0038 11.2475L15.3257 9.0044L18.8888 14.554L18.8904 15.619L18.8788 8.29023C18.8704 8.11102 18.7752 7.9471 18.6235 7.85041L12.2086 4.1606C12.0586 4.08684 11.8682 4.08772 11.7185 4.16293C11.6982 4.17312 11.6793 4.18408 11.6611 4.19616L11.6387 4.21022L5.41201 7.81851L5.38787 7.82959C5.35675 7.84376 5.3254 7.86204 5.29583 7.88308C5.17776 7.9677 5.09934 8.09297 5.07398 8.2333C5.07021 8.25457 5.06733 8.27628 5.06612 8.29821L5.07586 14.2704L8.39474 9.12646C8.81252 8.44441 9.72295 8.22455 10.5681 8.23662L11.56 8.26276L5.7156 17.6355L6.40452 18.0321L12.3189 8.27229L14.9331 8.26276L9.03403 18.2689L11.4923 19.683L11.786 19.8517C11.9103 19.9023 12.0567 19.9048 12.182 19.8595L18.6871 16.0897L17.4434 16.8104L14.0038 11.2475ZM14.508 18.5116L12.0252 14.6145L13.5409 12.0425L16.8017 17.1822L14.508 18.5116Z" fill="#2D374B"/>
<path d="M12.0246 14.6146L14.5076 18.5116L16.8012 17.1824L13.5403 12.0426L12.0246 14.6146Z" fill="#28A0F0"/>
<path d="M18.89 15.6191L18.8883 14.5541L15.3252 9.00452L14.0033 11.2476L17.443 16.8105L18.6867 16.0898C18.8087 15.9908 18.8826 15.8454 18.8903 15.6886L18.89 15.6191Z" fill="#28A0F0"/>
<path d="M3.95914 16.6235L5.71543 17.6355L11.5598 8.2628L10.568 8.23667C9.72289 8.2247 8.81245 8.44445 8.39456 9.1265L5.07569 14.2704L3.95914 15.986V16.6235V16.6235Z" fill="white"/>
<path d="M14.933 8.26282L12.3187 8.27234L6.40436 18.0321L8.47166 19.2223L9.03376 18.2689L14.933 8.26282Z" fill="white"/>
<path d="M19.9918 8.24928C19.97 7.70258 19.6739 7.20217 19.2103 6.91077L12.7114 3.17334C12.2527 2.94241 11.6797 2.94207 11.2202 3.17323C11.1659 3.20058 4.90012 6.83456 4.90012 6.83456C4.8134 6.8761 4.72989 6.92561 4.65136 6.98187C4.23746 7.27859 3.98515 7.73957 3.95912 8.24596V15.9861L5.07568 14.2705L5.06593 8.29824C5.06726 8.27642 5.07003 8.25482 5.07379 8.23366C5.09905 8.09311 5.17757 7.96784 5.29564 7.88311C5.32521 7.86207 11.6979 4.17315 11.7182 4.16296C11.868 4.08776 12.0583 4.08687 12.2083 4.16064L18.6232 7.85044C18.7749 7.94713 18.8701 8.11105 18.8785 8.29026V15.6884C18.8707 15.8452 18.8087 15.9906 18.6868 16.0896L17.4431 16.8103L16.8013 17.1823L14.5077 18.5115L12.1817 19.8594C12.0564 19.9047 11.9099 19.9022 11.7857 19.8517L9.03373 18.2688L8.47152 19.2222L10.9448 20.6461C11.0265 20.6926 11.0994 20.7338 11.1592 20.7675C11.2518 20.8195 11.3149 20.8541 11.3372 20.865C11.5129 20.9504 11.7658 21 11.9937 21C12.2026 21 12.4064 20.9617 12.5993 20.8861L19.3554 16.9736C19.7432 16.6731 19.9713 16.22 19.9918 15.7292V8.24928Z" fill="#96BEDC"/>
</svg>
