<svg width="20" height="20" viewBox="0 0 20 20" fill="none" xmlns="http://www.w3.org/2000/svg">
<circle cx="10" cy="10" r="10" fill="#E84142"/>
<path fill-rule="evenodd" clip-rule="evenodd" d="M7.08812 13.9796H5.1474C4.7396 13.9796 4.53816 13.9796 4.41534 13.901C4.28268 13.815 4.20161 13.6725 4.19178 13.5153C4.18441 13.3704 4.28514 13.1934 4.48658 12.8397L9.27845 4.39335C9.48236 4.03468 9.58553 3.85535 9.71573 3.78902C9.85575 3.71779 10.0228 3.71779 10.1628 3.78902C10.293 3.85535 10.3962 4.03468 10.6001 4.39335L11.5852 6.11298L11.5902 6.12175C11.8105 6.50653 11.9221 6.70166 11.9709 6.90645C12.0249 7.13001 12.0249 7.36584 11.9709 7.5894C11.9218 7.79575 11.8112 7.99229 11.5877 8.38289L9.07061 12.8323L9.0641 12.8437C8.84242 13.2317 8.73008 13.4283 8.57438 13.5766C8.40487 13.7388 8.20097 13.8567 7.97742 13.9231C7.77352 13.9796 7.54506 13.9796 7.08812 13.9796ZM11.9891 13.9796H14.7699C15.1802 13.9796 15.3866 13.9796 15.5095 13.8986C15.6421 13.8126 15.7256 13.6676 15.733 13.5105C15.7401 13.3702 15.6415 13.2002 15.4485 12.867C15.4418 12.8557 15.4352 12.8441 15.4284 12.8324L14.0354 10.4495L14.0196 10.4226C13.8238 10.0916 13.725 9.9245 13.5981 9.85989C13.4582 9.78864 13.2935 9.78864 13.1535 9.85989C13.0258 9.92621 12.9226 10.1006 12.7187 10.4519L11.3307 12.8348L11.326 12.843C11.1228 13.1938 11.0212 13.3691 11.0285 13.5129C11.0384 13.6701 11.1194 13.815 11.2521 13.901C11.3725 13.9796 11.5788 13.9796 11.9891 13.9796Z" fill="white"/>
</svg>
