<svg width="32" height="32" viewBox="0 0 32 32" fill="none" xmlns="http://www.w3.org/2000/svg">
<circle cx="16" cy="16" r="16" fill="#F3BA2C"/>
<g clip-path="url(#clip0_10281_22277)">
<path d="M11.65 14.2126L16.0002 9.86233L20.3526 14.2145L22.8837 11.6833L16.0002 4.79993L9.119 11.6812L11.6501 14.2124L11.65 14.2126ZM4.80029 15.9999L7.33157 13.4683L9.86267 15.9994L7.33139 18.5307L4.80029 15.9999ZM11.65 17.7875L16.0002 22.1375L20.3525 17.7855L22.885 20.3153L22.8837 20.3167L16.0002 27.1999L9.119 20.3186L9.11541 20.3151L11.6503 17.7873L11.65 17.7875ZM22.1378 16.001L24.6691 13.4697L27.2002 16.0008L24.669 18.5321L22.1378 16.001Z" fill="white"/>
<path d="M18.5674 15.9986H18.5685L16.0002 13.4301L14.1019 15.3279L13.8838 15.5461L13.434 15.996L13.4304 15.9995L13.434 16.0032L16.0002 18.5698L18.5687 16.0013L18.5699 15.9998L18.5676 15.9986" fill="white"/>
</g>
<defs>
<clipPath id="clip0_10281_22277">
<rect width="22.4" height="22.4" fill="white" transform="translate(4.80029 4.79993)"/>
</clipPath>
</defs>
</svg>
