<svg width="16" height="16" viewBox="0 0 16 16" fill="none" xmlns="http://www.w3.org/2000/svg">
<path d="M8 16C12.4183 16 16 12.4183 16 8C16 3.58172 12.4183 0 8 0C3.58172 0 0 3.58172 0 8C0 12.4183 3.58172 16 8 16Z" fill="url(#paint0_linear_32212_40569)"/>
<path fill-rule="evenodd" clip-rule="evenodd" d="M7.99999 1.67999C9.42234 1.67999 10.8031 2.15978 11.919 3.04177C13.0349 3.92376 13.8206 5.15637 14.1491 6.54026C14.4776 7.92414 14.3297 9.37839 13.7293 10.6678C13.1289 11.9572 12.1111 13.0064 10.8405 13.6457C9.56994 14.285 8.12085 14.4769 6.72763 14.1906C5.3344 13.9042 4.0785 13.1563 3.16304 12.0677C2.24758 10.9791 1.72609 9.61357 1.68291 8.19188C1.63972 6.77018 2.07737 5.37549 2.92507 4.23335L2.94745 4.24996C2.80478 4.06444 2.71995 3.83212 2.71995 3.57999C2.71995 2.97248 3.21244 2.47999 3.81995 2.47999C4.42747 2.47999 4.91995 2.97248 4.91995 3.57999C4.91995 4.18751 4.42747 4.67999 3.81995 4.67999C3.64364 4.67999 3.47702 4.63851 3.32931 4.56478C2.56147 5.60878 2.16538 6.88018 2.20474 8.17602C2.24436 9.48028 2.72277 10.733 3.56261 11.7317C4.40244 12.7303 5.5546 13.4165 6.83273 13.6792C8.11087 13.9419 9.44025 13.7658 10.6059 13.1793C11.7715 12.5928 12.7052 11.6303 13.256 10.4474C13.8068 9.26453 13.9425 7.93041 13.6411 6.66084C13.3398 5.39127 12.6189 4.26048 11.5952 3.45135C10.5716 2.64222 9.30485 2.20207 7.99999 2.20207V1.67999ZM3.20327 3.57999C3.20327 3.92057 3.47937 4.19667 3.81995 4.19667C4.16053 4.19667 4.43663 3.92057 4.43663 3.57999C4.43663 3.23941 4.16053 2.96332 3.81995 2.96332C3.47937 2.96332 3.20327 3.23941 3.20327 3.57999ZM8.00001 11.08C9.63477 11.08 10.96 9.75474 10.96 8.11997C10.96 6.48521 9.63477 5.15997 8.00001 5.15997C6.36525 5.15997 5.04001 6.48521 5.04001 8.11997C5.04001 9.75474 6.36525 11.08 8.00001 11.08Z" fill="white"/>
<defs>
<linearGradient id="paint0_linear_32212_40569" x1="8" y1="0" x2="8" y2="16" gradientUnits="userSpaceOnUse">
<stop stop-color="#E82020"/>
<stop offset="1" stop-color="#A10506"/>
</linearGradient>
</defs>
</svg>
