<svg width="18" height="18" viewBox="0 0 18 18" fill="none" xmlns="http://www.w3.org/2000/svg">
<circle cx="9" cy="9" r="9" fill="#101428"/>
<g clip-path="url(#clip0_10286_1861)">
<path d="M9.003 13.0082C7.1243 13.0082 5.59868 11.4825 5.59868 9.60383C5.59868 7.77744 8.68044 4.55183 8.81121 4.4167L8.97249 4.2467L9.13813 4.41234C9.27326 4.54747 12.4073 7.77308 12.4073 9.59947C12.4073 11.4825 10.8817 13.0082 9.003 13.0082ZM8.97685 4.9049C8.70659 5.19695 8.13993 5.829 7.57763 6.57001C6.57944 7.88641 6.05201 8.93255 6.05201 9.59947C6.05201 11.2253 7.37712 12.5505 9.003 12.5505C10.6289 12.5505 11.954 11.2253 11.954 9.59947C11.954 8.93255 11.4178 7.88641 10.4022 6.57001C9.8312 5.83335 9.25146 5.19695 8.97685 4.9049Z" fill="url(#paint0_linear_10286_1861)"/>
<path d="M9.00298 14.0977C6.52275 14.0977 4.50893 12.0795 4.50893 9.60365C4.50893 7.18008 7.89146 3.79756 8.0353 3.65807C8.12248 3.57089 8.27068 3.57089 8.35786 3.65807C8.44504 3.74525 8.44504 3.89345 8.35786 3.98063C8.32299 4.0155 4.96661 7.37188 4.96661 9.60365C4.96661 11.8311 6.77993 13.6444 9.00734 13.6444C11.2348 13.6444 13.0481 11.8311 13.0481 9.60365C13.0481 8.68827 12.4553 7.42418 11.3306 5.93779C10.4676 4.80011 9.60015 3.93704 9.59144 3.92832C9.4999 3.84114 9.4999 3.6973 9.59144 3.60576C9.67862 3.51423 9.82246 3.51423 9.914 3.60576C10.0622 3.74961 13.5058 7.17573 13.5058 9.60365C13.497 12.0795 11.4832 14.0977 9.00298 14.0977Z" fill="url(#paint1_linear_10286_1861)"/>
<path d="M9.00296 15.1876C5.98658 15.1876 3.5325 12.7335 3.5325 9.71712C3.5325 8.47047 4.16019 6.93612 5.39376 5.16204C6.30478 3.85436 7.19836 2.92155 7.23759 2.88232C7.32477 2.79078 7.46861 2.79078 7.56015 2.87796C7.65169 2.96514 7.65169 3.10898 7.56451 3.20052C7.55579 3.20924 6.65349 4.15077 5.76427 5.42793C4.60044 7.0974 3.98583 8.57944 3.98583 9.71712C3.98583 12.4807 6.23504 14.7342 9.00296 14.7342C11.7709 14.7342 14.0201 12.485 14.0201 9.71712C14.0201 8.57944 13.4011 7.0974 12.2286 5.42793C11.3306 4.15077 10.4196 3.20924 10.4109 3.20052C10.3237 3.10898 10.3237 2.96514 10.4152 2.87796C10.5068 2.79078 10.6506 2.79078 10.7378 2.88232C10.8904 3.03924 14.4734 6.76176 14.4734 9.71712C14.4734 12.7335 12.0193 15.1876 9.00296 15.1876Z" fill="url(#paint2_linear_10286_1861)"/>
</g>
<defs>
<linearGradient id="paint0_linear_10286_1861" x1="9.003" y1="13.0076" x2="9.003" y2="4.24617" gradientUnits="userSpaceOnUse">
<stop stop-color="#05AAC5"/>
<stop offset="1" stop-color="#71E0EC"/>
</linearGradient>
<linearGradient id="paint1_linear_10286_1861" x1="9.00734" y1="14.0972" x2="9.00734" y2="3.53658" gradientUnits="userSpaceOnUse">
<stop stop-color="#05AAC5"/>
<stop offset="1" stop-color="#71E0EC"/>
</linearGradient>
<linearGradient id="paint2_linear_10286_1861" x1="9.00296" y1="15.187" x2="9.00296" y2="2.81258" gradientUnits="userSpaceOnUse">
<stop stop-color="#05AAC5"/>
<stop offset="1" stop-color="#71E0EC"/>
</linearGradient>
<clipPath id="clip0_10286_1861">
<rect width="10.9409" height="12.375" fill="white" transform="translate(3.5325 2.8125)"/>
</clipPath>
</defs>
</svg>
