<svg width="32" height="32" viewBox="0 0 32 32" fill="none" xmlns="http://www.w3.org/2000/svg">
<g clip-path="url(#clip0_31948_40711)">
<path d="M15.9957 31.9887C24.8127 31.9887 31.9603 24.8412 31.9603 16.0242C31.9603 7.20719 24.8127 0.0596619 15.9957 0.0596619C7.17879 0.0596619 0.03125 7.20719 0.03125 16.0242C0.03125 24.8412 7.17879 31.9887 15.9957 31.9887Z" fill="#EAF7FF"/>
<path fill-rule="evenodd" clip-rule="evenodd" d="M16.7071 6.29292L16 5.58582L15.2929 6.29292C13.8218 7.76398 12.5796 9.02733 11.5605 10.1868L11.5514 10.1838C11.549 10.1909 11.5466 10.1981 11.5443 10.2053C9.15711 12.9251 8 15.0753 8 18C8 22.2167 11.4193 26 16 26C20.1155 26 24 22.5889 24 18C24 15.7861 23.4318 14.0892 22.1972 12.3058C21.0206 10.6064 19.2169 8.8027 16.7819 6.36775L16.7071 6.29292ZM11.578 13.3696C10.4425 14.9878 10 16.333 10 18C10 21.1696 12.5805 24 16 24C16.7029 24 17.3968 23.8657 18.0495 23.6179C18.0543 23.5834 18.0594 23.5446 18.0645 23.5018C18.0891 23.2951 18.1136 23.0006 18.1116 22.6591C18.1076 21.9578 17.9926 21.1483 17.6251 20.4842C17.1663 19.6552 16.4501 19.201 15.4743 18.6082L15.4196 18.575C14.502 18.0179 13.3495 17.3182 12.6213 15.9773C12.2204 15.2393 11.8223 14.322 11.578 13.3696ZM20.1039 22.3298C21.2481 21.253 22 19.7326 22 18C22 16.2139 21.5682 14.9109 20.5528 13.4442C19.5939 12.0591 18.137 10.5567 16.0012 8.41596C15.4495 8.97248 14.9431 9.49047 14.479 9.97662C13.7427 10.748 13.2426 11.7586 13.4958 12.7945V12.7945C13.6872 13.5777 14.0252 14.3717 14.3788 15.0228C14.8294 15.8525 15.5399 16.3079 16.5127 16.899L16.5829 16.9415C17.4954 17.4953 18.6419 18.1911 19.375 19.5158C19.9014 20.4671 20.0685 21.5057 20.1039 22.3298Z" fill="#50A0FF"/>
</g>
<defs>
<clipPath id="clip0_31948_40711">
<rect width="32" height="32" fill="white"/>
</clipPath>
</defs>
</svg>
