<svg width="21" height="21" viewBox="0 0 21 21" fill="none" xmlns="http://www.w3.org/2000/svg">
<path d="M10.1382 20.0823C15.661 20.0823 20.1382 15.6051 20.1382 10.0823C20.1382 4.55943 15.661 0.0822754 10.1382 0.0822754C4.61534 0.0822754 0.138184 4.55943 0.138184 10.0823C0.138184 15.6051 4.61534 20.0823 10.1382 20.0823Z" fill="#242A2E"/>
<path d="M5.68239 4.92627H3.86079L7.65168 8.63467C9.02452 9.97693 11.2503 9.97693 12.6241 8.63467L16.4165 4.92627H14.5934L11.7133 7.74332C11.2937 8.15193 10.7282 8.38099 10.139 8.38099C9.54984 8.38099 8.98432 8.15193 8.56469 7.74332L5.68239 4.92627Z" fill="white"/>
<path d="M14.6171 15.2384H16.4399L12.6244 11.5072C11.2516 10.1649 9.0258 10.1649 7.65198 11.5072L3.83647 15.2384H5.65807L8.56277 12.3985C8.9824 11.9899 9.54792 11.7609 10.1371 11.7609C10.7263 11.7609 11.2918 11.9899 11.7114 12.3985L14.6171 15.2384Z" fill="white"/>
</svg>
