<svg width="20" height="20" viewBox="0 0 20 20" fill="none" xmlns="http://www.w3.org/2000/svg">
<rect width="20" height="20" rx="10" fill="#335CBE"/>
<path d="M6.61028 9.94951C6.59564 10.2196 6.6875 10.4845 6.86577 10.6863C7.04404 10.8881 7.29419 11.0103 7.56148 11.0263H7.61988C7.81732 11.0261 8.01039 10.9675 8.17524 10.8578C8.34009 10.748 8.46949 10.5919 8.54745 10.4087C8.62541 10.2254 8.64852 10.0232 8.61392 9.82681C8.57932 9.63047 8.48852 9.44867 8.35276 9.30387C8.21699 9.15908 8.0422 9.05763 7.84998 9.01207C7.65776 8.96651 7.45654 8.97883 7.27118 9.04751C7.08582 9.1162 6.92444 9.23823 6.80699 9.39853C6.68953 9.55883 6.62115 9.75038 6.61028 9.94951ZM2.84468 9.68689C2.78023 9.68324 2.71616 9.69897 2.66057 9.73209C2.60497 9.76522 2.56035 9.81425 2.53234 9.87298C2.50433 9.93172 2.49419 9.99753 2.5032 10.0621C2.51221 10.1266 2.53997 10.1871 2.58296 10.2357C2.62596 10.2843 2.68226 10.319 2.74476 10.3353C2.80725 10.3516 2.87313 10.3488 2.93406 10.3273C2.99499 10.3058 3.04825 10.2665 3.08709 10.2145C3.12593 10.1624 3.14862 10.0998 3.15228 10.0348C3.15476 9.9915 3.14877 9.94817 3.13465 9.90726C3.12052 9.86634 3.09854 9.82865 3.06996 9.79633C3.04139 9.76401 3.00678 9.73771 2.96812 9.71893C2.92946 9.70015 2.88751 9.68926 2.84468 9.68689ZM6.54628 4.02761C6.60372 3.99806 6.65122 3.952 6.68278 3.89523C6.71434 3.83846 6.72855 3.77352 6.72362 3.70861C6.71869 3.64369 6.69485 3.5817 6.65509 3.53045C6.61533 3.4792 6.56144 3.44099 6.50021 3.42064C6.43898 3.40029 6.37316 3.3987 6.31104 3.41608C6.24892 3.43347 6.19328 3.46904 6.15115 3.51831C6.10902 3.56759 6.08227 3.62836 6.07429 3.69297C6.0663 3.75757 6.07744 3.82312 6.10628 3.88135C6.12563 3.92016 6.15237 3.95474 6.18496 3.98311C6.21756 4.01148 6.25538 4.03307 6.29625 4.04666C6.33712 4.06024 6.38024 4.06555 6.42314 4.06228C6.46605 4.05901 6.50789 4.04723 6.54628 4.02761ZM7.57108 5.83242C7.66015 5.78706 7.73391 5.71605 7.78303 5.62836C7.83214 5.54066 7.85442 5.44023 7.84703 5.33975C7.83965 5.23928 7.80293 5.14327 7.74153 5.06386C7.68013 4.98446 7.5968 4.92523 7.50208 4.89365C7.40735 4.86208 7.30549 4.85959 7.20936 4.88648C7.11323 4.91338 7.02716 4.96846 6.96202 5.04477C6.89688 5.12107 6.8556 5.21517 6.8434 5.31517C6.8312 5.41516 6.84863 5.51657 6.89348 5.60656C6.95374 5.72723 7.05895 5.81879 7.18601 5.86114C7.31306 5.90349 7.45156 5.89316 7.57108 5.83242ZM4.12308 7.07361C4.19184 7.11911 4.27242 7.143 4.35463 7.14224C4.43683 7.14148 4.51697 7.11612 4.5849 7.06935C4.65283 7.02259 4.7055 6.95652 4.73626 6.87952C4.76701 6.80251 4.77447 6.71802 4.75768 6.63674C4.74089 6.55545 4.70061 6.48102 4.64194 6.42286C4.58326 6.36469 4.50883 6.32542 4.42806 6.30999C4.34728 6.29456 4.26379 6.30367 4.18814 6.33618C4.11249 6.36869 4.04809 6.42312 4.00308 6.49261C3.94274 6.58573 3.92149 6.69925 3.944 6.8082C3.9665 6.91715 4.03091 7.01261 4.12308 7.07361ZM4.73708 9.50507C4.63738 9.49932 4.53824 9.52356 4.45219 9.57473C4.36614 9.6259 4.29704 9.70169 4.25364 9.79253C4.21025 9.88337 4.1945 9.98517 4.20839 10.0851C4.22227 10.1849 4.26518 10.2784 4.33167 10.3537C4.39817 10.4289 4.48526 10.4825 4.58194 10.5078C4.67862 10.533 4.78054 10.5287 4.8748 10.4955C4.96907 10.4622 5.05145 10.4014 5.11152 10.3209C5.17159 10.2403 5.20666 10.1435 5.21228 10.0428C5.21981 9.90789 5.17399 9.77544 5.08488 9.6746C4.99578 9.57376 4.87068 9.51278 4.73708 9.50507ZM4.17988 12.928C4.10645 12.9654 4.04565 13.0239 4.00515 13.0962C3.96465 13.1684 3.94628 13.2512 3.95235 13.334C3.95843 13.4168 3.98869 13.4959 4.0393 13.5614C4.08991 13.6268 4.15859 13.6756 4.23667 13.7016C4.31474 13.7276 4.3987 13.7297 4.47792 13.7075C4.55713 13.6853 4.62805 13.6398 4.68171 13.5769C4.73536 13.514 4.76933 13.4364 4.77933 13.354C4.78933 13.2716 4.7749 13.188 4.73788 13.1139C4.71339 13.0646 4.67951 13.0207 4.63819 12.9847C4.59687 12.9487 4.54891 12.9212 4.49707 12.904C4.44523 12.8867 4.39053 12.8799 4.3361 12.8841C4.28167 12.8882 4.22858 12.9031 4.17988 12.928ZM6.13988 8.45014C6.23805 8.51517 6.35311 8.54934 6.4705 8.54832C6.5879 8.5473 6.70236 8.51114 6.79941 8.44442C6.89646 8.3777 6.97174 8.2834 7.01574 8.17346C7.05974 8.06353 7.07047 7.94288 7.04659 7.82678C7.02271 7.71067 6.96528 7.60433 6.88156 7.5212C6.79784 7.43806 6.6916 7.38187 6.57627 7.35972C6.46094 7.33757 6.34169 7.35047 6.23362 7.39677C6.12554 7.44307 6.03348 7.52071 5.96908 7.61986C5.92626 7.68568 5.89671 7.75939 5.88212 7.83676C5.86753 7.91414 5.86819 7.99365 5.88405 8.07077C5.89992 8.14789 5.93068 8.22109 5.97457 8.28618C6.01847 8.35128 6.07464 8.407 6.13988 8.45014ZM12.3587 5.79201C12.4422 5.84735 12.54 5.87644 12.6399 5.8756C12.7397 5.87476 12.8371 5.84402 12.9196 5.78729C13.0022 5.73055 13.0662 5.65036 13.1036 5.55686C13.1411 5.46336 13.1502 5.36074 13.1299 5.26199C13.1096 5.16325 13.0607 5.0728 12.9895 5.0021C12.9183 4.9314 12.828 4.88361 12.7299 4.86479C12.6318 4.84597 12.5303 4.85696 12.4384 4.89636C12.3465 4.93577 12.2682 5.00182 12.2135 5.08617C12.1771 5.14214 12.152 5.2048 12.1396 5.27057C12.1272 5.33634 12.1278 5.40394 12.1412 5.46949C12.1547 5.53505 12.1809 5.59727 12.2182 5.65261C12.2555 5.70795 12.3032 5.75532 12.3587 5.79201ZM13.3939 3.99286C13.4479 4.02855 13.5111 4.04728 13.5757 4.04668C13.6402 4.04607 13.7031 4.02616 13.7564 3.98946C13.8097 3.95277 13.8511 3.90092 13.8753 3.84049C13.8994 3.78006 13.9053 3.71374 13.8922 3.64993C13.8791 3.58611 13.8475 3.52766 13.8015 3.48195C13.7555 3.43625 13.6971 3.40534 13.6337 3.39314C13.5704 3.38094 13.5048 3.38798 13.4454 3.41339C13.386 3.4388 13.3353 3.48143 13.2999 3.5359C13.2763 3.57212 13.26 3.61269 13.252 3.65527C13.244 3.69786 13.2443 3.74163 13.2531 3.78407C13.2618 3.82652 13.2787 3.8668 13.3029 3.90263C13.3271 3.93846 13.358 3.96912 13.3939 3.99286ZM12.4379 8.97619C12.3055 8.96858 12.1729 8.98739 12.0476 9.03154C11.9224 9.07569 11.807 9.14433 11.708 9.23353C11.6091 9.32273 11.5285 9.43074 11.4708 9.55141C11.4132 9.67207 11.3796 9.80302 11.3721 9.93678C11.3646 10.0705 11.3832 10.2045 11.4269 10.331C11.4706 10.4575 11.5385 10.574 11.6269 10.674C11.7152 10.774 11.8221 10.8554 11.9416 10.9136C12.061 10.9718 12.1907 11.0057 12.3231 11.0133H12.3811C12.644 11.0133 12.8966 10.9097 13.0851 10.7246C13.2737 10.5394 13.3833 10.2873 13.3907 10.0218C13.3981 9.75635 13.3027 9.49841 13.1247 9.30285C12.9468 9.10729 12.7004 8.98952 12.4379 8.97458V8.97619ZM7.90308 8.37944C7.98696 8.54839 8.11587 8.69034 8.27531 8.78927C8.43475 8.88821 8.61837 8.94022 8.80548 8.93943C8.97792 8.93939 9.14748 8.89476 9.29801 8.80979C9.44853 8.72482 9.57502 8.60233 9.6654 8.454C9.75579 8.30567 9.80708 8.13643 9.81437 7.96241C9.82167 7.78839 9.78473 7.61538 9.70709 7.45986C9.58652 7.21822 9.37586 7.03486 9.12144 6.95011C8.86703 6.86536 8.58971 6.88617 8.35048 7.00795C8.11126 7.12973 7.92973 7.34252 7.84582 7.59949C7.76192 7.85647 7.78252 8.13659 7.90308 8.37823V8.37944ZM15.8199 7.07239C15.8931 7.03478 15.9535 6.97612 15.9937 6.90381C16.0339 6.83151 16.052 6.7488 16.0457 6.66612C16.0394 6.58344 16.0091 6.5045 15.9584 6.43924C15.9077 6.37399 15.8391 6.32535 15.7611 6.29947C15.6831 6.27359 15.5993 6.27161 15.5202 6.2938C15.4411 6.31599 15.3702 6.36134 15.3166 6.42414C15.263 6.48694 15.229 6.56437 15.2189 6.64666C15.2088 6.72895 15.2231 6.81242 15.2599 6.88654C15.2845 6.93596 15.3185 6.97998 15.36 7.01609C15.4015 7.05219 15.4497 7.07967 15.5017 7.09694C15.5537 7.1142 15.6086 7.12092 15.6632 7.11671C15.7178 7.1125 15.7711 7.09744 15.8199 7.07239ZM13.2599 7.39724C13.1551 7.45063 13.0683 7.53421 13.0105 7.63741C12.9527 7.74061 12.9266 7.8588 12.9353 7.97703C12.944 8.09526 12.9872 8.20824 13.0594 8.30167C13.1317 8.3951 13.2297 8.4648 13.3412 8.50196C13.4527 8.53911 13.5725 8.54205 13.6857 8.5104C13.7988 8.47876 13.9001 8.41395 13.9767 8.32417C14.0534 8.23439 14.102 8.12367 14.1164 8.006C14.1307 7.88833 14.1102 7.769 14.0575 7.66309C13.9865 7.5211 13.8627 7.41335 13.7131 7.36351C13.5636 7.31366 13.4006 7.32579 13.2599 7.39724ZM9.96189 3.83892C10.0439 3.84356 10.1254 3.82356 10.1961 3.78145C10.2669 3.73933 10.3237 3.67699 10.3594 3.60229C10.3951 3.52759 10.4081 3.44388 10.3967 3.36173C10.3854 3.27958 10.3502 3.20266 10.2956 3.1407C10.241 3.07874 10.1694 3.0345 10.09 3.01358C10.0105 2.99265 9.92669 2.99597 9.84909 3.02313C9.7715 3.05028 9.7036 3.10004 9.65398 3.16613C9.60436 3.23223 9.57523 3.31169 9.57028 3.39449C9.56693 3.44968 9.57442 3.505 9.59231 3.55726C9.61021 3.60951 9.63816 3.65768 9.67455 3.69899C9.71095 3.7403 9.75507 3.77392 9.80438 3.79794C9.8537 3.82195 9.90722 3.83588 9.96189 3.83892ZM9.95709 6.48008C10.0743 6.4866 10.1907 6.45789 10.2918 6.39757C10.3928 6.33726 10.4739 6.24805 10.5247 6.14121C10.5756 6.03438 10.5939 5.91471 10.5775 5.79734C10.561 5.67997 10.5105 5.57016 10.4323 5.48179C10.354 5.39342 10.2517 5.33044 10.138 5.30083C10.0244 5.27122 9.9046 5.27629 9.79382 5.31542C9.68303 5.35454 9.58622 5.42595 9.51561 5.52064C9.44499 5.61532 9.40375 5.72902 9.39708 5.84737C9.39265 5.92607 9.40363 6.00488 9.42939 6.07929C9.45515 6.1537 9.49518 6.22225 9.54719 6.28102C9.5992 6.33979 9.66218 6.38762 9.73252 6.42178C9.80285 6.45593 9.87916 6.47575 9.95709 6.48008ZM6.73988 12.6032C6.84473 12.5498 6.93157 12.4663 6.98942 12.3631C7.04726 12.2599 7.07351 12.1417 7.06485 12.0235C7.05619 11.9052 7.013 11.7922 6.94076 11.6987C6.86851 11.6052 6.77045 11.5355 6.65897 11.4983C6.54748 11.4612 6.42759 11.4582 6.31445 11.4899C6.20131 11.5215 6.1 11.5863 6.02333 11.6761C5.94666 11.7659 5.89807 11.8767 5.88372 11.9944C5.86936 12.1121 5.88988 12.2314 5.94268 12.3373C6.01357 12.4793 6.13734 12.587 6.28682 12.6369C6.43629 12.6867 6.59925 12.6746 6.73988 12.6032ZM10.3399 7.35522C10.217 7.54489 10.1602 7.77055 10.1786 7.99647C10.1969 8.2224 10.2893 8.43569 10.4412 8.60261C10.593 8.76953 10.7956 8.88054 11.0169 8.91808C11.2383 8.95562 11.4657 8.91755 11.6632 8.80988C11.8606 8.70221 12.017 8.5311 12.1074 8.32362C12.1977 8.11614 12.2171 7.88414 12.1623 7.66432C12.1074 7.4445 11.9816 7.24942 11.8047 7.10994C11.6278 6.97046 11.4099 6.89455 11.1855 6.89421C11.0177 6.89418 10.8526 6.9363 10.705 7.01678C10.5574 7.09726 10.4319 7.21356 10.3399 7.35522ZM12.0967 11.621C12.0068 11.4407 11.866 11.2913 11.692 11.1918C11.5181 11.0924 11.3189 11.0472 11.1195 11.0622C10.9202 11.0771 10.7297 11.1514 10.5722 11.2757C10.4147 11.4 10.2972 11.5686 10.2346 11.7604C10.172 11.9521 10.1672 12.1583 10.2206 12.3529C10.2741 12.5474 10.3834 12.7216 10.5349 12.8533C10.6864 12.9851 10.8731 13.0685 11.0715 13.093C11.2699 13.1175 11.471 13.082 11.6495 12.9911C11.7684 12.9313 11.8745 12.8484 11.9614 12.747C12.0484 12.6455 12.1146 12.5277 12.1562 12.4003C12.1978 12.2729 12.2139 12.1384 12.2037 12.0046C12.1935 11.8709 12.1571 11.7405 12.0967 11.621ZM13.8599 11.5503C13.7617 11.4853 13.6467 11.4511 13.5293 11.4521C13.4119 11.4531 13.2974 11.4893 13.2004 11.556C13.1033 11.6227 13.028 11.717 12.984 11.827C12.94 11.9369 12.9293 12.0575 12.9532 12.1737C12.9771 12.2898 13.0345 12.3961 13.1182 12.4792C13.2019 12.5624 13.3082 12.6186 13.4235 12.6407C13.5388 12.6629 13.6581 12.65 13.7662 12.6037C13.8742 12.5574 13.9663 12.4797 14.0307 12.3806C14.0735 12.3147 14.103 12.241 14.1175 12.1637C14.1321 12.0863 14.1314 12.0068 14.1156 11.9297C14.0997 11.8526 14.069 11.7794 14.0251 11.7143C13.9812 11.6492 13.9251 11.5935 13.8599 11.5503ZM15.7951 10.0174C15.8008 9.91669 15.7768 9.81654 15.7261 9.72962C15.6755 9.6427 15.6004 9.57291 15.5105 9.52908C15.4206 9.48524 15.3198 9.46933 15.2209 9.48336C15.122 9.49739 15.0295 9.54073 14.955 9.60789C14.8805 9.67506 14.8274 9.76303 14.8024 9.86068C14.7774 9.95834 14.7816 10.0613 14.8146 10.1565C14.8475 10.2517 14.9077 10.3349 14.9874 10.3956C15.0672 10.4563 15.163 10.4917 15.2627 10.4974C15.3963 10.505 15.5274 10.4587 15.6273 10.3687C15.7271 10.2787 15.7875 10.1523 15.7951 10.0174ZM17.1919 9.65497C17.1275 9.65132 17.0634 9.66705 17.0078 9.70017C16.9522 9.7333 16.9076 9.78233 16.8796 9.84106C16.8515 9.8998 16.8414 9.96561 16.8504 10.0302C16.8594 10.0947 16.8872 10.1551 16.9302 10.2038C16.9732 10.2524 17.0295 10.287 17.092 10.3034C17.1545 10.3197 17.2203 10.3169 17.2813 10.2954C17.3422 10.2739 17.3955 10.2346 17.4343 10.1825C17.4732 10.1305 17.4958 10.0679 17.4995 10.0028C17.5043 9.91553 17.4746 9.82986 17.4169 9.76463C17.3593 9.69941 17.2783 9.65997 17.1919 9.65497ZM15.8767 12.9264C15.8079 12.881 15.7274 12.8571 15.6452 12.8579C15.563 12.8587 15.4829 12.8841 15.415 12.9308C15.3471 12.9776 15.2944 13.0437 15.2637 13.1206C15.2329 13.1976 15.2255 13.2821 15.2423 13.3634C15.259 13.4446 15.2993 13.519 15.3579 13.5772C15.4166 13.6354 15.491 13.6747 15.5717 13.6901C15.6525 13.7056 15.7359 13.6965 15.8116 13.6641C15.8872 13.6316 15.9516 13.5772 15.9967 13.5078C16.0266 13.4617 16.0473 13.4101 16.0574 13.3559C16.0676 13.3017 16.0671 13.246 16.056 13.192C16.0448 13.138 16.0233 13.0868 15.9925 13.0412C15.9617 12.9956 15.9224 12.9566 15.8767 12.9264ZM6.60588 16.0076C6.55193 15.9718 6.48867 15.9529 6.42412 15.9534C6.35956 15.954 6.29661 15.9738 6.24321 16.0104C6.18982 16.0471 6.14838 16.0989 6.12415 16.1593C6.09991 16.2198 6.09396 16.2861 6.10705 16.35C6.12014 16.4138 6.15168 16.4723 6.19769 16.5181C6.24369 16.5638 6.3021 16.5948 6.36551 16.607C6.42892 16.6192 6.4945 16.6121 6.55395 16.5867C6.61339 16.5613 6.66404 16.5186 6.69948 16.4641C6.7469 16.391 6.76368 16.3019 6.74613 16.2163C6.72858 16.1307 6.67815 16.0556 6.60588 16.0076ZM13.4531 15.9728C13.3956 16.0024 13.3482 16.0484 13.3166 16.1052C13.285 16.162 13.2708 16.2269 13.2758 16.2918C13.2807 16.3567 13.3045 16.4187 13.3443 16.47C13.384 16.5212 13.4379 16.5594 13.4992 16.5798C13.5604 16.6001 13.6262 16.6017 13.6883 16.5843C13.7505 16.567 13.8061 16.5314 13.8482 16.4821C13.8904 16.4328 13.9171 16.3721 13.9251 16.3075C13.9331 16.2429 13.9219 16.1773 13.8931 16.1191C13.8738 16.0802 13.8471 16.0455 13.8145 16.0171C13.782 15.9887 13.7441 15.967 13.7032 15.9534C13.6623 15.9399 13.6192 15.9346 13.5762 15.9379C13.5333 15.9412 13.4915 15.9531 13.4531 15.9728ZM9.65989 12.6448C9.78307 12.4549 9.84004 12.229 9.82178 12.0027C9.80352 11.7765 9.71107 11.5628 9.55906 11.3956C9.40705 11.2284 9.20418 11.1172 8.98254 11.0796C8.76091 11.0419 8.53318 11.08 8.3354 11.1879C8.13763 11.2957 7.9811 11.4671 7.89061 11.6749C7.80012 11.8826 7.78082 12.115 7.83578 12.3351C7.89074 12.5552 8.01682 12.7505 8.19405 12.8901C8.37128 13.0297 8.58954 13.1056 8.81428 13.1058C8.98215 13.1065 9.14751 13.0647 9.29523 12.9841C9.44295 12.9036 9.56833 12.7869 9.65989 12.6448ZM7.64108 14.2084C7.5576 14.1531 7.45975 14.124 7.35991 14.1248C7.26006 14.1257 7.1627 14.1564 7.08015 14.2131C6.99759 14.2699 6.93355 14.3501 6.89612 14.4436C6.85869 14.5371 6.84956 14.6397 6.86987 14.7384C6.89019 14.8372 6.93904 14.9276 7.01024 14.9983C7.08145 15.069 7.17182 15.1168 7.26992 15.1356C7.36801 15.1545 7.46943 15.1435 7.56134 15.1041C7.65326 15.0647 7.73154 14.9986 7.78628 14.9143C7.85966 14.8012 7.88559 14.6633 7.85836 14.531C7.83113 14.3986 7.75298 14.2826 7.64108 14.2084ZM9.99509 16.1611C9.91308 16.1564 9.83153 16.1763 9.76073 16.2184C9.68994 16.2604 9.63307 16.3227 9.5973 16.3974C9.56154 16.4721 9.54849 16.5558 9.5598 16.638C9.57111 16.7202 9.60627 16.7971 9.66085 16.8591C9.71543 16.9211 9.78697 16.9654 9.86644 16.9864C9.94591 17.0073 10.0298 17.004 10.1074 16.9769C10.185 16.9498 10.2529 16.9 10.3026 16.8339C10.3522 16.7678 10.3813 16.6883 10.3863 16.6055C10.3896 16.5504 10.3821 16.4951 10.3642 16.4429C10.3463 16.3907 10.3184 16.3426 10.282 16.3013C10.2457 16.26 10.2016 16.2264 10.1524 16.2023C10.1032 16.1782 10.0497 16.1642 9.99509 16.1611ZM9.99949 13.5199C9.88232 13.5134 9.76588 13.5421 9.66486 13.6024C9.56384 13.6627 9.48278 13.7519 9.43192 13.8587C9.38106 13.9655 9.36268 14.0852 9.37911 14.2025C9.39553 14.3199 9.44602 14.4297 9.5242 14.5181C9.60238 14.6065 9.70474 14.6695 9.81835 14.6991C9.93195 14.7288 10.0517 14.7238 10.1625 14.6847C10.2733 14.6456 10.3701 14.5743 10.4408 14.4797C10.5114 14.385 10.5527 14.2714 10.5595 14.1531C10.5639 14.0743 10.5529 13.9955 10.5272 13.9211C10.5014 13.8466 10.4614 13.7781 10.4094 13.7193C10.3574 13.6605 10.2944 13.6126 10.2241 13.5784C10.1537 13.5442 10.0774 13.5243 9.99949 13.5199ZM12.4283 14.1676C12.3394 14.2133 12.2659 14.2845 12.217 14.3723C12.1682 14.4601 12.1462 14.5606 12.1538 14.661C12.1614 14.7614 12.1983 14.8574 12.2598 14.9366C12.3213 15.0159 12.4047 15.075 12.4994 15.1065C12.5941 15.1379 12.696 15.1404 12.7921 15.1134C12.8882 15.0865 12.9742 15.0314 13.0393 14.9551C13.1045 14.8789 13.1458 14.7848 13.1581 14.6849C13.1703 14.5849 13.153 14.4835 13.1083 14.3935C13.0785 14.3334 13.0372 14.2799 12.9868 14.236C12.9364 14.1921 12.878 14.1587 12.8148 14.1377C12.7516 14.1167 12.6849 14.1086 12.6186 14.1137C12.5523 14.1188 12.4876 14.1371 12.4283 14.1676Z" fill="white"/>
</svg>
