<svg width="16" height="16" viewBox="0 0 16 16" fill="none" xmlns="http://www.w3.org/2000/svg">
<g clip-path="url(#clip0_31517_40355)">
<path d="M12.392 5.35293H10.9768C10.8119 5.35293 10.655 5.28244 10.5458 5.15974L9.97171 4.51366C9.88626 4.41723 9.76309 4.36237 9.63425 4.36237C9.5054 4.36237 9.38223 4.41756 9.29678 4.51366L8.80444 5.06796C8.64322 5.24919 8.4119 5.35326 8.1689 5.35326H0.421913C0.201277 5.97972 0.0574123 6.64143 0 7.32774H7.31339C7.4419 7.32774 7.56507 7.27554 7.65386 7.1831L8.33479 6.47517C8.41991 6.38672 8.53741 6.33685 8.66024 6.33685H8.68828C8.81746 6.33685 8.94029 6.39204 9.02574 6.48847L9.59953 7.13455C9.70868 7.25758 9.86556 7.32774 10.0305 7.32774H16C15.9426 6.6411 15.7987 5.97939 15.5781 5.35326H12.3917L12.392 5.35293Z" fill="white"/>
<path d="M4.42575 11.4795C4.55426 11.4795 4.67743 11.4273 4.76622 11.3349L5.44716 10.627C5.53228 10.5385 5.64977 10.4886 5.77261 10.4886H5.80064C5.92982 10.4886 6.05266 10.5438 6.13811 10.6399L6.7119 11.286C6.82105 11.409 6.97793 11.4792 7.14282 11.4792H15.2326C15.5357 10.8554 15.7577 10.186 15.8899 9.48477H8.12484C7.95995 9.48477 7.80306 9.41427 7.69391 9.29157L7.12013 8.6455C7.03467 8.54907 6.91151 8.4942 6.78266 8.4942C6.65382 8.4942 6.53065 8.5494 6.4452 8.6455L5.95285 9.1998C5.79163 9.38102 5.56031 9.4851 5.31698 9.4851H0.110153C0.242335 10.1864 0.464641 10.8557 0.76739 11.4795H4.42542H4.42575Z" fill="white"/>
<path d="M10.165 3.19481C10.2935 3.19481 10.4167 3.14261 10.5054 3.05017L11.1864 2.34224C11.2715 2.25379 11.389 2.20392 11.5118 2.20392H11.5399C11.669 2.20392 11.7919 2.25911 11.8773 2.35554L12.4511 3.00162C12.5603 3.12465 12.7172 3.19481 12.882 3.19481H14.4205C12.9555 1.25492 10.6253 0 8.00034 0C5.37539 0 3.04519 1.25492 1.57984 3.19481H10.165Z" fill="white"/>
<path d="M7.07473 13.4559H4.97084C4.80594 13.4559 4.64906 13.3854 4.53991 13.2627L3.96612 12.6166C3.88067 12.5202 3.7575 12.4653 3.62866 12.4653C3.49981 12.4653 3.37664 12.5205 3.29119 12.6166L2.79885 13.1709C2.63763 13.3522 2.40631 13.4562 2.16298 13.4562H2.13026C3.59595 15.0207 5.68315 16 8.00067 16C10.3182 16 12.4051 15.0207 13.8711 13.4562H7.07473V13.4559Z" fill="white"/>
</g>
<defs>
<clipPath id="clip0_31517_40355">
<rect width="16" height="16" fill="white"/>
</clipPath>
</defs>
</svg>
