<svg width="20" height="20" viewBox="0 0 20 20" fill="none" xmlns="http://www.w3.org/2000/svg">
<circle cx="10" cy="10" r="10" fill="#F7931A"/>
<path d="M13.926 7.38608C13.7739 6.04928 12.6101 5.62055 11.1485 5.51817L11.1161 3.66078L9.98548 3.68063L10.0171 5.48907C9.7199 5.4943 9.4162 5.50547 9.11446 5.51676L9.08285 3.69635L7.95288 3.71604L7.98488 5.57291C7.74019 5.58218 7.49989 5.59092 7.2655 5.59517L7.26525 5.58941L5.7059 5.61609L5.72728 6.82358C5.72728 6.82358 6.56189 6.79309 6.54828 6.80871C7.00622 6.80085 7.15991 7.06411 7.20727 7.29277L7.2443 9.40872C7.2759 9.40834 7.31715 9.40894 7.36394 9.41452C7.32628 9.41523 7.28596 9.41568 7.24451 9.41675L7.29597 12.381C7.27839 12.5255 7.19768 12.7567 6.87775 12.7629C6.89244 12.7754 6.0559 12.777 6.0559 12.777L5.85483 14.1311L7.32612 14.1054C7.59992 14.1009 7.8694 14.1009 8.1339 14.0979L8.16717 15.9765L9.29653 15.9569L9.26405 14.0983C9.57426 14.0993 9.87439 14.0965 10.1674 14.0911L10.1992 15.9412L11.3297 15.9214L11.2974 14.0462C13.1962 13.9039 14.5182 13.4019 14.6522 11.6141C14.7605 10.1745 14.0732 9.54498 12.9897 9.30472C13.6394 8.9595 14.0389 8.36424 13.926 7.38608V7.38608ZM12.4144 11.4304C12.4395 12.8343 10.033 12.7166 9.26674 12.7307L9.22359 10.2417C9.99004 10.2285 12.3889 9.9662 12.4144 11.4304ZM11.8272 7.92806C11.8492 9.20527 9.84189 9.09122 9.20366 9.10241L9.16432 6.84505C9.80255 6.83386 11.8038 6.59591 11.8272 7.92806V7.92806Z" fill="white"/>
</svg>
