<svg width="16" height="16" viewBox="0 0 16 16" fill="none" xmlns="http://www.w3.org/2000/svg">
<path d="M10.1306 4.16166C10.5948 3.69741 11.3575 3.69741 11.8218 4.16166C12.286 4.62591 12.286 5.3886 11.8218 5.85285C11.5482 6.12642 11.1834 6.24249 10.8104 6.19275C10.7938 6.19275 10.7772 6.19275 10.7523 6.19275C10.6446 6.17617 10.5285 6.19275 10.4124 6.24249C10.2549 6.3171 10.1472 6.44145 10.0891 6.59067C10.0311 6.7399 10.0394 6.9057 10.1057 7.05492C10.5036 7.9171 10.3212 8.96166 9.64145 9.63316C8.96166 10.313 7.92539 10.4953 7.06321 10.0974C6.9057 10.0228 6.7399 10.0228 6.59067 10.0808C6.44145 10.1389 6.3171 10.2466 6.25078 10.3959C6.20933 10.4953 6.18446 10.5948 6.19275 10.7026C6.19275 10.7192 6.19275 10.744 6.19275 10.7606C6.25907 11.142 6.12642 11.5316 5.86114 11.8052C5.39689 12.2694 4.6342 12.2694 4.16995 11.8052C3.94611 11.5813 3.82176 11.2829 3.82176 10.9596C3.82176 10.6446 3.94611 10.3378 4.16995 10.114C4.44352 9.84041 4.80829 9.72435 5.18135 9.77409C5.18964 9.77409 5.18964 9.77409 5.19793 9.77409C5.23938 9.78238 5.28083 9.79067 5.32228 9.79067C5.41347 9.79067 5.49637 9.77409 5.57927 9.73264C5.73679 9.65803 5.84456 9.53368 5.8943 9.39275C5.95233 9.24352 5.95233 9.06943 5.87772 8.91192C5.47979 8.04145 5.66218 7.00518 6.34197 6.33368C7.02176 5.65389 8.05803 5.4715 8.92021 5.86943C9.06943 5.94404 9.24352 5.94404 9.39275 5.88601C9.54197 5.82798 9.66632 5.72021 9.74093 5.57098C9.79896 5.45492 9.80725 5.32228 9.79067 5.19793C9.73264 4.82487 9.85699 4.43523 10.1306 4.16166ZM8.94508 8.93679C9.45907 8.4228 9.45907 7.58549 8.94508 7.06321C8.43109 6.54922 7.59378 6.54922 7.0715 7.06321C6.55751 7.5772 6.55751 8.41451 7.0715 8.93679C7.59378 9.45078 8.43109 9.45078 8.94508 8.93679ZM8 0C12.4187 0 16 3.58135 16 8C16 12.4187 12.4187 16 8 16C3.58135 16 0 12.4187 0 8C0 3.58135 3.58135 0 8 0ZM12.2611 6.30052C12.9658 5.59585 12.9658 4.45181 12.2611 3.73886C11.5565 3.0342 10.4124 3.0342 9.69948 3.73886C9.4342 4.00414 9.27668 4.32746 9.20207 4.65907C7.9171 4.17824 6.44974 4.48497 5.4715 5.46321C4.49326 6.44145 4.18653 7.9171 4.67565 9.20207C4.33575 9.26839 4.01244 9.4342 3.74715 9.69948C3.04249 10.4041 3.04249 11.5482 3.74715 12.2611C4.45181 12.9658 5.59585 12.9658 6.30881 12.2611C6.57409 11.9959 6.7399 11.6642 6.80622 11.3244C7.20414 11.4736 7.61865 11.5482 8.03316 11.5482C8.95337 11.5482 9.85699 11.1917 10.5285 10.5202C11.5067 9.54197 11.8135 8.0829 11.3409 6.80622C11.6725 6.72332 11.9959 6.55751 12.2611 6.30052Z" fill="#484DFF"/>
</svg>
