<svg width="16" height="16" viewBox="0 0 16 16" fill="none" xmlns="http://www.w3.org/2000/svg">
<g clip-path="url(#clip0_33245_30071)">
<path d="M0 8C0 12.4183 3.58172 16 8 16C12.4183 16 16 12.4183 16 8C16 3.58172 12.4183 0 8 0C3.58172 0 0 3.58172 0 8Z" fill="white"/>
<path d="M1.94004 2.764C2.04004 2.64 2.14404 2.52 2.24804 2.4C2.25204 2.396 2.26404 2.392 2.26804 2.388C2.27604 2.376 2.29204 2.368 2.30404 2.356L2.31204 2.344C2.38404 2.276 2.46404 2.204 2.55204 2.136C2.87204 1.896 3.20004 1.712 3.54804 1.588C4.66804 1.196 5.91204 1.436 6.88804 2.36C8.25204 3.636 8.12804 5.696 7.04004 7.064C5.66404 9.104 3.30404 11.948 6.57204 14.496C7.16004 14.956 7.59604 15.332 9.44804 15.868C8.23604 16.092 7.11204 16.02 5.86404 15.704C4.98004 15.204 3.58804 14.136 3.11604 12.692C2.40004 10.504 4.37604 7.228 5.32804 5.968C6.63604 4.224 4.52004 2.336 2.95604 4.444C2.14804 5.544 0.720036 8.652 1.21604 10.96C1.50404 12.268 1.89204 13.22 3.42404 14.532C3.14004 14.364 2.86404 14.176 2.59604 13.96C-0.959964 10.644 -0.547964 5.516 1.94004 2.764Z" fill="url(#paint0_linear_33245_30071)"/>
<path d="M14.06 13.236C13.96 13.36 13.856 13.48 13.752 13.6C13.748 13.604 13.736 13.608 13.732 13.612C13.724 13.624 13.708 13.632 13.696 13.644L13.688 13.656C13.616 13.724 13.536 13.796 13.448 13.86C13.128 14.1 12.8 14.284 12.452 14.408C11.332 14.8 10.088 14.56 9.112 13.636C7.748 12.36 7.872 10.3 8.96 8.93203C10.336 6.89203 12.696 4.04803 9.428 1.50003C8.84 1.04003 8.404 0.664027 6.552 0.128027C7.764 -0.0959725 8.888 -0.0239725 10.136 0.292027C11.02 0.792027 12.412 1.86003 12.884 3.30403C13.6 5.49203 11.624 8.76803 10.672 10.028C9.364 11.772 11.48 13.66 13.044 11.552C13.86 10.452 15.288 7.34403 14.792 5.03603C14.504 3.72803 14.116 2.77603 12.584 1.46403C12.868 1.63203 13.144 1.82003 13.412 2.03603C16.96 5.35603 16.548 10.484 14.06 13.236Z" fill="url(#paint1_linear_33245_30071)"/>
</g>
<defs>
<linearGradient id="paint0_linear_33245_30071" x1="3.57837e-05" y1="8.70547" x2="16" y2="8.70547" gradientUnits="userSpaceOnUse">
<stop stop-color="#0082FA"/>
<stop offset="1" stop-color="#00F2FE"/>
</linearGradient>
<linearGradient id="paint1_linear_33245_30071" x1="2.86102e-06" y1="7.29456" x2="16" y2="7.29456" gradientUnits="userSpaceOnUse">
<stop stop-color="#0082FA"/>
<stop offset="1" stop-color="#00F2FE"/>
</linearGradient>
<clipPath id="clip0_33245_30071">
<rect width="16" height="16" fill="white"/>
</clipPath>
</defs>
</svg>
