<svg width="16" height="16" viewBox="0 0 16 16" fill="none" xmlns="http://www.w3.org/2000/svg">
<g clip-path="url(#clip0_32169_40557)">
<path d="M8 16C12.4183 16 16 12.4183 16 8C16 3.58172 12.4183 0 8 0C3.58172 0 0 3.58172 0 8C0 12.4183 3.58172 16 8 16Z" fill="#FF0420"/>
<path d="M5.6672 10.1248C5.1904 10.1248 4.8 10.0128 4.496 9.78877C4.1952 9.56157 4.0448 9.23517 4.0448 8.81597C4.0448 8.72637 4.0544 8.62077 4.0736 8.49277C4.1248 8.20477 4.1984 7.85917 4.2944 7.45277C4.5664 6.35197 5.2704 5.80157 6.4032 5.80157C6.7104 5.80157 6.9888 5.85277 7.232 5.95837C7.4752 6.05757 7.6672 6.21117 7.808 6.41597C7.9488 6.61757 8.0192 6.85757 8.0192 7.13597C8.0192 7.21917 8.0096 7.32477 7.9904 7.45277C7.9296 7.80797 7.8592 8.15677 7.7728 8.49277C7.632 9.03997 7.392 9.45277 7.0464 9.72477C6.704 9.99357 6.2432 10.1248 5.6672 10.1248ZM5.7536 9.26077C5.9776 9.26077 6.1664 9.19358 6.3232 9.06238C6.4832 8.93118 6.5984 8.72958 6.6656 8.45438C6.7584 8.07678 6.8288 7.75037 6.8768 7.46877C6.8928 7.38557 6.9024 7.29917 6.9024 7.20957C6.9024 6.84477 6.7136 6.66237 6.3328 6.66237C6.1088 6.66237 5.9168 6.72957 5.7568 6.86077C5.6 6.99197 5.488 7.19357 5.4208 7.46877C5.3472 7.73757 5.2768 8.06398 5.2032 8.45438C5.1872 8.53438 5.1776 8.61757 5.1776 8.70717C5.1744 9.07837 5.3696 9.26077 5.7536 9.26077Z" fill="white"/>
<path d="M8.29761 10.0672C8.25281 10.0672 8.22081 10.0544 8.19521 10.0256C8.17601 9.99363 8.16961 9.95843 8.17601 9.91683L9.00481 6.01283C9.01121 5.96803 9.03361 5.93283 9.07201 5.90403C9.10721 5.87523 9.14561 5.86243 9.18721 5.86243H10.784C11.2288 5.86243 11.584 5.95523 11.8528 6.13763C12.1248 6.32323 12.2624 6.58883 12.2624 6.93763C12.2624 7.03683 12.2496 7.14243 12.2272 7.25123C12.128 7.71203 11.9264 8.05123 11.6192 8.27203C11.3184 8.49283 10.9056 8.60163 10.3808 8.60163H9.57121L9.29601 9.91683C9.28641 9.96163 9.26721 9.99683 9.22881 10.0256C9.19361 10.0544 9.15521 10.0672 9.11361 10.0672H8.29761ZM10.4224 7.77283C10.592 7.77283 10.736 7.72803 10.8608 7.63523C10.9888 7.54243 11.072 7.41123 11.1136 7.23843C11.1264 7.17123 11.1328 7.11043 11.1328 7.05923C11.1328 6.94403 11.0976 6.85443 11.0304 6.79363C10.9632 6.72963 10.8448 6.69763 10.6816 6.69763H9.96161L9.73441 7.77283H10.4224Z" fill="white"/>
</g>
<defs>
<clipPath id="clip0_32169_40557">
<rect width="16" height="16" fill="white"/>
</clipPath>
</defs>
</svg>
