<svg width="16" height="16" viewBox="0 0 16 16" fill="none" xmlns="http://www.w3.org/2000/svg">
<g clip-path="url(#clip0_33282_181)">
<path d="M8 16C12.4183 16 16 12.4183 16 8C16 3.58172 12.4183 0 8 0C3.58172 0 0 3.58172 0 8C0 12.4183 3.58172 16 8 16Z" fill="#FEA101"/>
<path d="M9.24485 3.69922C9.11205 3.69922 8.98085 3.69922 8.85286 3.71842L2.45605 4.00002L4.40005 4.18562L8.35845 4.55522L6.63685 4.58082C6.36055 4.79155 6.11073 5.03491 5.89285 5.30562C5.69379 5.55268 5.52261 5.82097 5.38245 6.10562L3.78245 6.31522L5.21285 6.50722C4.85876 7.46872 4.85876 8.52492 5.21285 9.48642L3.78245 9.67842L5.38245 9.88802C5.52261 10.1727 5.69379 10.441 5.89285 10.688C6.11019 10.9582 6.35948 11.201 6.63525 11.4112L8.35685 11.4368L6.86405 11.576L2.45605 12L8.85605 12.2864C8.98405 12.2992 9.11525 12.3056 9.24805 12.3056C10.3887 12.3056 11.4826 11.8525 12.2892 11.0459C13.0957 10.2394 13.5489 9.14546 13.5489 8.00482C13.5489 6.86418 13.0957 5.77025 12.2892 4.96369C11.4826 4.15714 10.3887 3.70402 9.24805 3.70402L9.24485 3.69922ZM9.24485 9.59522C8.9284 9.59522 8.61906 9.50138 8.35594 9.32557C8.09282 9.14976 7.88775 8.89987 7.76665 8.60751C7.64555 8.31515 7.61386 7.99344 7.6756 7.68307C7.73733 7.3727 7.88972 7.08761 8.11348 6.86385C8.33725 6.64008 8.62234 6.4877 8.93271 6.42596C9.24308 6.36423 9.56479 6.39591 9.85715 6.51701C10.1495 6.63811 10.3994 6.84319 10.5752 7.10631C10.751 7.36943 10.8449 7.67877 10.8449 7.99522C10.8455 8.20574 10.8046 8.41431 10.7244 8.60899C10.6443 8.80366 10.5266 8.98061 10.3779 9.12969C10.2293 9.27878 10.0527 9.39706 9.85826 9.47777C9.66382 9.55848 9.45537 9.60002 9.24485 9.60002V9.59522Z" fill="white"/>
</g>
<defs>
<clipPath id="clip0_33282_181">
<rect width="16" height="16" fill="white"/>
</clipPath>
</defs>
</svg>
