<svg width="166" height="183" viewBox="0 0 166 183" fill="none" xmlns="http://www.w3.org/2000/svg">
<path d="M158.036 92.3171C158.036 90.986 157.424 89.7572 156.404 88.9381L89.1982 36.6152C87.0566 34.8745 85.0169 34.7721 83.1813 34.7721C81.1416 34.7721 78.1842 34.9769 76.1445 36.6152L26.6835 75.2174L21.6864 71.3265L72.2692 31.8027C75.3287 29.4477 78.898 28.219 82.5694 28.219C86.2407 28.219 89.8101 29.4477 92.8695 31.8027L159.973 84.1256C162.523 86.0711 163.951 89.1429 163.951 92.4195C163.951 95.6961 162.523 98.6655 159.973 100.713L157.526 102.556L152.529 98.6655L156.098 95.7984C157.424 94.8769 158.036 93.6482 158.036 92.3171ZM9.34657 88.7333L13.4258 85.5591L8.42874 81.6682L5.47127 83.9208C3.02371 85.8663 1.59597 88.8357 1.59597 92.1123C1.59597 95.3889 3.02371 98.2559 5.57325 100.304L73.2891 153.139C76.1445 155.391 79.5099 156.518 83.0793 156.518C86.6486 156.518 90.116 155.289 92.8695 153.139L144.37 112.898L139.373 109.007L88.6883 148.531L88.2803 148.633C86.4447 149.248 84.507 149.555 82.6714 149.555C80.7337 149.555 78.7961 149.145 77.3683 148.429L76.9604 148.121L9.34657 95.3889C8.32676 94.5697 7.71487 93.341 7.71487 92.1123C7.71487 90.7812 8.32676 89.5525 9.34657 88.7333ZM165.174 65.4901C164.869 63.135 163.747 61.0872 162.013 59.6537L93.0735 4.46376C90.116 2.10872 86.4447 0.880005 82.8753 0.880005C79.204 0.880005 75.6346 2.10872 72.5752 4.46376L5.67523 56.5819C3.12569 58.5273 1.69795 61.4967 1.69795 64.7733C1.69795 68.0499 3.12569 71.0193 5.67523 72.9648L8.42874 75.115L10.4684 76.7533L12.508 78.3916L17.5051 82.2825L19.5447 83.9208L21.5844 85.5591L81.4476 132.66C82.7733 129.179 81.7535 125.083 78.5921 122.728L26.5815 81.6682L24.5418 80.0299L22.5022 78.3916L17.5051 74.5007L15.4655 72.8624L13.4258 71.2241L9.44855 68.0499C8.42874 67.2308 7.81685 66.002 7.81685 64.7733C7.81685 63.4422 8.42874 62.2135 9.44855 61.4967L76.4505 9.17385L76.6544 9.07146C80.0198 7.33077 84.813 7.33077 88.7903 8.96906L89.0962 9.07146L89.4021 9.27624L164.665 69.5858C165.174 68.2547 165.378 66.9236 165.174 65.4901ZM160.075 110.85L157.628 108.905L155.588 107.266L153.549 105.628L148.551 101.737L146.512 100.099L144.472 98.4607L84.3031 51.155C82.9773 54.6364 83.9971 58.7321 87.1586 61.0872L139.577 102.352L141.617 103.99L143.656 105.628L148.653 109.519L150.693 111.157L152.733 112.796L156.404 115.663C157.424 116.482 158.036 117.711 158.036 118.939C158.036 120.27 157.424 121.499 156.404 122.216L89.3002 174.744L88.9942 174.846C85.4249 176.484 80.4278 176.484 76.9604 174.846L76.6544 174.744L76.4505 174.539L1.18804 114.229C0.678135 115.56 0.474172 116.994 0.678135 118.427C0.98408 120.782 2.10588 122.83 3.83957 124.264L72.6772 179.454C75.6346 181.706 79.204 182.935 82.9773 182.935C86.6487 182.935 90.32 181.706 93.2775 179.351L160.075 127.131C162.625 125.185 164.053 122.216 164.053 118.939C164.155 115.868 162.625 112.898 160.075 110.85Z" fill="url(#paint0_linear_2409_982)"/>
<defs>
<linearGradient id="paint0_linear_2409_982" x1="-18.141" y1="22.2982" x2="146.407" y2="199.753" gradientUnits="userSpaceOnUse">
<stop offset="0.087127" stop-color="#52CBFF"/>
<stop offset="0.53034" stop-color="#E3F7FF"/>
<stop offset="0.847873" stop-color="#00B2FF"/>
</linearGradient>
</defs>
</svg>
