<svg width="684" height="524" viewBox="0 0 684 524" fill="none" xmlns="http://www.w3.org/2000/svg">
<g clip-path="url(#clip0_3002_853)">
<mask id="mask0_3002_853" style="mask-type:alpha" maskUnits="userSpaceOnUse" x="-1" y="-1" width="686" height="526">
<rect width="684" height="524" rx="1.94444" fill="#00FF85" stroke="white" stroke-opacity="0.4" stroke-width="0.972222"/>
</mask>
<g mask="url(#mask0_3002_853)">
<path d="M0.0341797 53.4201C36.0987 51.8857 67.7768 35.4442 100.074 21.4498C114.518 15.189 129.188 9.13547 144.553 5.28269C153.54 3.0259 177.278 -3.76687 183.858 5.52909C190.137 14.4051 178.754 31.6138 174.385 39.3473C162.956 59.58 149.009 78.4912 136.011 97.7831C130.08 106.586 85.5429 164.932 117.313 166.629C139.142 167.794 164.396 154.315 183.638 146.43C218.898 131.988 253.383 115.798 287.822 99.6255C328.493 80.5296 368.955 60.98 410.031 42.7241C437.201 30.6506 464.69 17.9162 493.486 9.81867C511.368 4.78989 527.722 6.32988 543.838 -3.97967C559.093 -13.7404 571.581 -27.3484 583.479 -40.6147C609.961 -70.1434 639.92 -119.81 683.999 -124.469" stroke="url(#paint0_linear_3002_853)" stroke-width="0.592237" stroke-linecap="round" stroke-linejoin="round"/>
<path d="M0.0341797 63.6232C35.7863 61.5009 67.3948 46.2353 99.8078 32.8514C114.217 26.8986 128.83 21.1754 144.044 17.4346C153.147 15.2003 176.381 8.18909 182.793 17.9666C188.627 26.865 178.32 43.2505 174.084 51.1017C163.621 70.5168 150.728 88.6999 138.743 107.241C133.21 115.793 91.8507 172.184 121.613 174.682C128.992 175.298 139.767 171.591 146.492 169.597C160.774 165.358 174.645 159.864 188.395 154.248C222.637 140.253 256.12 124.551 289.552 108.843C328.863 90.3799 367.977 71.4576 407.699 53.8233C434.453 41.9457 461.513 29.5698 489.828 21.517C507.832 16.3986 524.62 17.7594 540.812 7.42749C556.373 -2.50127 569.18 -16.294 581.425 -29.7116C608.271 -59.117 639.706 -110.25 683.994 -114.613" stroke="url(#paint1_linear_3002_853)" stroke-width="0.592237" stroke-linecap="round" stroke-linejoin="round"/>
<path d="M0.0410156 70.5444C35.2607 68.4389 66.8114 54.8309 99.2591 42.595C113.599 37.1854 128.113 32.0278 143.13 28.651C152.395 26.5678 175.26 19.8479 181.921 29.379C187.771 37.7454 179.328 52.7813 175.543 60.5317C166.689 78.6308 155.393 95.6099 145.005 112.897C139.554 121.975 103.958 173.718 132.639 176.272C139.843 176.916 150.63 173.237 157.222 171.31C170.937 167.295 184.259 162.082 197.453 156.722C229.866 143.557 261.527 128.711 293.141 113.855C354.72 84.914 416.907 49.8693 482.978 31.3614C501.212 26.2542 517.85 27.5086 534.285 17.1039C550.477 6.85591 563.938 -7.27283 576.872 -21.0264C594.609 -39.8871 611.2 -59.851 630.031 -77.7261C645.332 -92.2525 661.969 -105.984 684.001 -108.212" stroke="url(#paint2_linear_3002_853)" stroke-width="0.592237" stroke-linecap="round" stroke-linejoin="round"/>
<path d="M0.046875 74.9685C34.5605 73.2941 66.0244 61.6966 98.4027 51.0566C112.639 46.3807 127.008 41.9567 141.77 39.1175C151.331 37.2751 173.703 31.2495 181.047 39.9687C198.362 60.5318 107.251 170.006 148.75 172.979C168.558 174.396 192.32 162.177 209.808 155.155C239.791 143.109 269.032 129.395 298.216 115.664C355.079 88.9125 412.66 56.259 473.892 39.7391C492.416 34.7439 508.493 35.9199 525.263 25.42C542.318 14.7408 556.675 0.164061 570.523 -14.0487C589.516 -33.5422 607.381 -54.1501 627.444 -72.6468C643.602 -87.5428 661.119 -101.879 683.995 -104.404" stroke="url(#paint3_linear_3002_853)" stroke-width="0.592237" stroke-linecap="round" stroke-linejoin="round"/>
<path d="M0.046875 77.6846C33.7098 76.6823 65.0349 67.3359 97.2048 58.5999C111.285 54.7807 125.463 51.2192 139.919 49.0128C150.029 47.4728 171.545 42.4048 179.959 49.9312C202.517 70.1135 122.332 163.426 168.31 166.338C186.851 167.508 207.939 157.272 224.449 150.781C251.625 140.091 278.048 127.636 304.414 115.216C355.733 91.0462 407.967 61.0807 463.528 46.9912C482.347 42.22 497.642 43.2952 514.783 32.6832C532.838 21.5057 548.232 6.41375 563.133 -8.33659C583.544 -28.5525 602.855 -49.894 624.325 -69.0907C641.512 -84.4627 660.089 -99.4482 683.989 -102.388" stroke="url(#paint4_linear_3002_853)" stroke-width="0.592237" stroke-linecap="round" stroke-linejoin="round"/>
<path d="M0.046875 79.482C32.755 79.2356 63.8485 72.2413 95.6423 65.6053C109.508 62.7101 123.437 60.0613 137.546 58.5381C148.57 57.3453 168.639 53.3861 178.477 59.4845C207.256 77.326 139.762 156.549 189.71 157.926C207.001 158.402 224.733 150.915 240.41 144.89C264.588 135.588 288.025 124.534 311.405 113.507C356.804 92.0988 403.377 64.9725 452.874 53.4981C471.942 49.0798 486.404 49.9645 503.874 39.263C522.977 27.559 539.447 11.9351 555.437 -3.38083C577.323 -24.3415 598.122 -46.4446 621.044 -66.3806C639.313 -82.2677 658.989 -97.9084 683.977 -101.308" stroke="url(#paint5_linear_3002_853)" stroke-width="0.592237" stroke-linecap="round" stroke-linejoin="round"/>
<path d="M0.046875 81.1565C32.5293 81.6269 64.0048 76.6205 96.0242 72.1013C108.449 70.3485 120.903 68.7917 133.426 67.9461C145.526 67.1285 163.697 64.4517 175.41 68.4949C211.845 81.0781 159.137 149.224 211.255 149.381C249.443 149.499 289.495 125.407 322.655 109.705C361.208 91.4492 402.041 67.2237 444.708 59.283C451.184 58.079 457.636 58.4878 464.095 57.603C475.287 56.063 485.802 50.3734 495.142 44.5438C515.049 32.1119 532.456 16.0007 549.441 0.136015C572.479 -21.3791 594.516 -43.9862 618.642 -64.3869C637.745 -80.5428 658.243 -96.5364 683.966 -100.294" stroke="url(#paint6_linear_3002_853)" stroke-width="0.592237" stroke-linecap="round" stroke-linejoin="round"/>
<path d="M0.046875 83.4915C31.4298 84.4995 62.3613 81.7499 93.5937 79.2859C105.689 78.3339 117.801 77.5275 129.936 77.2195C143.119 76.8835 159.49 75.2427 172.442 77.9419C191.081 81.8227 193.061 98.9642 196.458 114.241C200.804 133.779 210.017 142.314 231.324 142.202C265.803 142.028 299.512 122.938 329.64 108.652C362.996 92.8379 398.939 71.2275 436.19 65.51C442.289 64.5748 448.423 65.1796 454.5 64.3284C466.01 62.7268 476.919 56.7236 486.537 50.754C507.289 37.8797 525.558 21.3206 543.429 4.99664C567.67 -17.1457 590.923 -40.3856 616.235 -61.4079C636.125 -77.9334 657.444 -94.4925 683.966 -98.5581" stroke="url(#paint7_linear_3002_853)" stroke-width="0.592237" stroke-linecap="round" stroke-linejoin="round"/>
<path d="M0.0410156 87.2774C30.3012 88.5318 60.4573 87.7142 90.7175 87.0254C116.024 86.4486 143.42 84.399 168.524 87.5574C187.059 89.887 194.918 102.112 204.056 116.196C215.045 133.13 227.927 138.058 248.431 137.896C314.709 137.369 365.762 79.9359 430.339 72.1015C436.219 71.3903 442.168 72.0399 448.018 71.2223C459.702 69.5927 470.808 63.3991 480.57 57.3568C501.918 44.1464 520.801 27.2513 539.302 10.597C564.441 -12.0269 588.608 -35.7484 614.794 -57.2635C635.141 -73.9739 656.964 -91.0146 683.954 -95.209" stroke="url(#paint8_linear_3002_853)" stroke-width="0.592237" stroke-linecap="round" stroke-linejoin="round"/>
<path d="M0.0410156 93.3029C54.1494 95.3693 109.629 92.6701 163.495 97.5477C182.436 99.2613 194.918 109.095 208.778 120.575C224.669 133.74 240.086 138.198 261.006 138.002C322.145 137.42 368.661 86.4261 428.163 79.4038C447.411 77.1302 460.964 75.4166 478.284 64.6814C499.893 51.2919 519.042 34.212 537.827 17.4064C563.44 -5.50308 588.093 -29.5046 614.736 -51.3165C635.071 -67.9652 656.987 -85.3643 683.972 -89.4243" stroke="url(#paint9_linear_3002_853)" stroke-width="0.592237" stroke-linecap="round" stroke-linejoin="round"/>
<path d="M0.0341797 102.364C27.9044 102.845 55.7051 104.223 83.5348 105.6C107.904 106.804 132.95 105.612 157.169 108.092C176.873 110.114 192.892 118.884 209.714 128.252C227.99 138.433 246.126 144.24 267.446 144.05C326.936 143.512 372.925 95.7445 430.645 87.7701C436.819 86.9189 443.139 87.4062 449.267 86.499C460.662 84.8134 471.142 79.0286 480.673 73.0758C502.097 59.6975 521.067 42.6399 539.706 25.9016C565.25 2.95852 589.857 -21.0486 616.413 -42.9165C636.129 -59.1564 657.622 -76.8076 683.994 -80.3691" stroke="url(#paint10_linear_3002_853)" stroke-width="0.592237" stroke-linecap="round" stroke-linejoin="round"/>
<path d="M0.0175781 113.575C25.9896 113.664 51.7707 115.4 77.6559 117.232C102.089 118.956 127.308 117.489 151.527 120.631C193.066 126.023 227.128 154.634 270.091 154.343C330.536 153.934 378.927 106.401 437.191 96.4052C456.646 93.0676 470.009 92.6476 487.549 81.8341C508.214 69.0941 526.368 52.647 544.244 36.5639C568.827 14.4328 592.357 -8.84071 617.82 -30.0534C637.207 -46.2094 658.109 -63.2445 683.971 -67.4893" stroke="url(#paint11_linear_3002_853)" stroke-width="0.592237" stroke-linecap="round" stroke-linejoin="round"/>
<path d="M0.00585938 122.025C25.6133 122.373 50.8446 125.072 76.2611 127.833C100.532 130.47 124.993 130.045 149.2 132.559C193.685 137.179 234.9 160.1 280.172 159.579C340.704 158.885 388.782 111.178 447.08 100.975C466.235 97.6208 479.927 96.9992 497.259 86.6112C516.773 74.9129 534.024 59.7706 550.876 44.8186C573.787 24.4907 595.777 3.1268 619.573 -16.2547C638.63 -31.7778 658.873 -47.0658 683.861 -51.585" stroke="url(#paint12_linear_3002_853)" stroke-width="0.592237" stroke-linecap="round" stroke-linejoin="round"/>
<path d="M0 127.962C49.2821 129.686 97.4473 140.814 146.787 143.031C197.111 145.293 246.283 161.175 296.809 160.24C356.334 159.142 402.075 111.307 459.598 102.073C476.791 99.3121 490.193 98.4777 505.853 90.0105C526.044 79.0906 543.798 64.0154 561.078 49.3211C596.645 19.0644 634.834 -25.0858 683.711 -33.3569" stroke="url(#paint13_linear_3002_853)" stroke-width="0.592237" stroke-linecap="round" stroke-linejoin="round"/>
<path d="M0 132.094C51.4175 135.275 100.549 152.988 152.273 152.842C207.533 152.691 262.736 159.652 318.001 157.776C374.835 155.849 416.699 109.79 471.588 101.014C487.867 98.4104 501.443 98.0632 516.652 90.8168C535.396 81.8905 552.022 69.0497 568.144 56.377C602.479 29.3907 637.75 -7.21634 683.514 -13.4995" stroke="url(#paint14_linear_3002_853)" stroke-width="0.592237" stroke-linecap="round" stroke-linejoin="round"/>
<path d="M0.00585938 135.141C54.4268 139.934 107.025 164.339 161.984 161.572C222.053 158.548 282.163 156.471 342.226 153.312C396.161 150.479 433.927 105.405 486.258 98.1863C500.344 96.2431 513.498 96.2431 526.987 91.1024C545.72 83.9568 562.491 72.488 578.63 61.0585C610.633 38.4066 642.276 11.2187 683.3 7.34912" stroke="url(#paint15_linear_3002_853)" stroke-width="0.592237" stroke-linecap="round" stroke-linejoin="round"/>
<path d="M0.0107422 137.805C30.3404 141.093 59.4374 149.218 88.7833 156.997C115.756 164.142 143.413 171.999 171.52 169.356C236.786 163.218 301.826 152.343 367.271 148.205C417.844 145.007 451.744 101.568 500.789 95.0105C514.058 93.2353 526.963 93.9913 539.996 90.2113C556.749 85.3505 572.073 76.8105 586.847 67.9402C617.385 49.6115 645.996 30.2355 683.073 28.5107" stroke="url(#paint16_linear_3002_853)" stroke-width="0.592237" stroke-linecap="round" stroke-linejoin="round"/>
<path d="M0.0175781 140.813C32.6099 144.7 63.8019 154.046 95.2542 162.804C124.021 170.812 153.379 179.912 183.448 176.031C252.585 167.105 321.294 148.81 390.9 143.955C438.77 140.612 469.459 99.0206 515.564 92.2502C528.064 90.4134 540.697 91.9422 553.237 89.6687C568.035 86.9807 581.825 81.3807 595.338 75.1311C624.29 61.736 649.926 49.3824 682.849 49.332" stroke="url(#paint17_linear_3002_853)" stroke-width="0.592237" stroke-linecap="round" stroke-linejoin="round"/>
<path d="M0.0283203 144.862C34.4899 148.905 67.4874 158.974 100.722 168.258C130.612 176.614 161.711 186.744 192.961 182.107C232.272 176.272 271.114 167.575 309.992 159.556C343.498 152.64 377.937 143.938 412.19 141.451C459.001 138.047 488.358 96.9092 533.404 90.374C545.366 88.638 557.571 90.4972 569.631 89.4556C582.067 88.3804 594.017 85.5692 605.898 81.9516C631.882 74.0333 655.036 68.1645 682.68 69.1165" stroke="url(#paint18_linear_3002_853)" stroke-width="0.592237" stroke-linecap="round" stroke-linejoin="round"/>
<path d="M0.0341797 150.669C36.417 154.32 71.3184 164.764 106.44 174.144C136.11 182.068 167.944 192.227 198.91 187.775C238.707 182.057 277.897 172.28 317.034 163.426C353.701 155.132 391.611 144.593 429.308 141.933C476.547 138.596 506.408 98.3262 551.703 90.6878C572.97 87.0983 595.696 91.3262 617.379 89.159C639.295 86.9694 660.446 86.051 682.535 87.2158" stroke="url(#paint19_linear_3002_853)" stroke-width="0.592237" stroke-linecap="round" stroke-linejoin="round"/>
<path d="M0.0341797 158.951C37.505 161.382 73.639 171.439 109.918 180.198C140.427 187.562 172.602 196.286 204.246 192.523C283.418 183.11 359.592 151.733 439.395 147.175C490.372 144.263 524.255 102 573.155 93.6445C608.647 87.5853 646.905 101.417 682.46 102.974" stroke="url(#paint20_linear_3002_853)" stroke-width="0.592237" stroke-linecap="round" stroke-linejoin="round"/>
<path d="M0.0341797 170.09C69.8717 172.039 137.649 204.916 207.764 198.806C286.815 191.913 362.213 162.507 441.6 157.708C498.115 154.292 538.005 109.151 592.241 98.9253C607.53 96.0413 630.175 94.6301 643.438 104.441C656.135 113.832 665.516 115.311 682.454 115.809" stroke="url(#paint21_linear_3002_853)" stroke-width="0.592237" stroke-linecap="round" stroke-linejoin="round"/>
<path d="M0.0517578 179.257C38.842 180.662 76.5732 189.482 114.432 197.098C145.977 203.443 178.887 210.645 211.248 207.386C289.159 199.529 364.066 173.758 442.213 167.189C501.692 162.188 544.215 114.672 601.269 102.532C615.418 99.5244 639.365 97.318 648.983 110.702C651.095 113.642 651.743 117.181 654.555 119.735C661.575 126.113 673.658 126.029 682.472 126.6" stroke="url(#paint22_linear_3002_853)" stroke-width="0.592237" stroke-linecap="round" stroke-linejoin="round"/>
<path d="M0.0693359 185.255C38.7554 186.996 76.4461 195.419 114.282 202.822C145.832 208.993 178.951 216.396 211.254 212.846C289.275 204.267 364.974 181.66 443.168 174.027C504.516 168.035 548.827 119.197 607.722 105.993C621.784 102.84 646.089 100.583 652.866 116.459C654.399 120.054 654.029 124.142 656.5 127.446C662.09 134.928 674.041 135.264 682.49 136.042" stroke="url(#paint23_linear_3002_853)" stroke-width="0.592237" stroke-linecap="round" stroke-linejoin="round"/>
<path d="M0.0800781 188.9C38.1007 190.939 75.1895 198.947 112.435 206.098C143.731 212.101 176.549 219.487 208.545 215.847C287.543 206.854 364.869 187.204 444.001 179.061C506.437 172.638 551.946 123.168 611.957 109.582C626.025 106.396 651.077 104.346 655.348 121.981C656.355 126.136 655.469 130.677 657.668 134.581C662.327 142.857 674.017 143.557 682.506 144.487" stroke="url(#paint24_linear_3002_853)" stroke-width="0.592237" stroke-linecap="round" stroke-linejoin="round"/>
<path d="M0.0986328 190.994C37.0486 193.251 73.1479 200.8 109.403 207.626C140.26 213.439 172.383 220.562 203.894 217.023C284.321 207.985 363.638 190.686 444.251 183.104C507.277 177.174 553.741 126.987 614.342 113.524C628.839 110.304 653.919 108.804 656.691 127.507C657.369 132.083 656.165 137.061 658.213 141.418C662.374 150.283 673.775 151.24 682.536 152.265" stroke="url(#paint25_linear_3002_853)" stroke-width="0.592237" stroke-linecap="round" stroke-linejoin="round"/>
<path d="M0.110352 192.361C35.7525 194.73 70.6365 201.724 105.677 208.131C135.977 213.675 167.158 220.311 198.049 217.04C279.987 208.372 361.335 194.361 443.423 187.002C506.872 181.313 554.059 131.165 615.205 118.1C630.401 114.852 654.95 113.99 657.131 133.321C657.687 138.232 656.252 143.563 658.254 148.289C662.201 157.602 673.462 158.7 682.554 159.758" stroke="url(#paint26_linear_3002_853)" stroke-width="0.592237" stroke-linecap="round" stroke-linejoin="round"/>
<path d="M0.121094 193.811C34.3801 196.146 67.9968 202.469 101.752 208.326C131.428 213.478 161.59 219.398 191.786 216.547C274.911 208.707 357.833 198.302 441.061 191.577C505.037 186.408 553.144 136.109 614.914 123.554C630.713 120.34 654.932 119.92 656.928 139.676C657.449 144.856 655.904 150.484 657.935 155.485C661.859 165.151 673.143 166.282 682.564 167.312" stroke="url(#paint27_linear_3002_853)" stroke-width="0.592237" stroke-linecap="round" stroke-linejoin="round"/>
<path d="M0.133789 196.164C61.6727 200.134 124.132 220.983 185.879 216.195C269.455 209.71 353.077 203.443 436.705 197.659C501.6 193.173 551.091 142.303 613.833 130.151C629.996 127.021 654.458 126.696 656.339 146.85C656.842 152.232 655.303 158.128 657.404 163.32C661.431 173.265 672.855 174.34 682.571 175.281" stroke="url(#paint28_linear_3002_853)" stroke-width="0.592237" stroke-linecap="round" stroke-linejoin="round"/>
<path d="M0.144531 200.229C60.3525 203.477 120.699 219.935 181.075 216.631C263.956 212.095 346.988 210.712 429.87 206.075C496.351 202.351 548 150.204 612.305 138.131C628.856 135.023 653.601 134.53 655.62 155.076C656.164 160.626 654.608 166.73 656.801 172.072C660.979 182.247 672.605 183.188 682.582 184" stroke="url(#paint29_linear_3002_853)" stroke-width="0.592237" stroke-linecap="round" stroke-linejoin="round"/>
<path d="M0.15625 206.826C59.5887 208.914 118.622 219.924 178.159 218.518C258.76 216.62 339.529 220.999 420.096 217.662C489.042 214.806 544.042 160.29 610.702 147.768C627.559 144.599 652.924 143.585 655.03 164.652C655.597 170.336 654.006 176.614 656.269 182.079C660.569 192.451 672.414 193.207 682.588 193.862" stroke="url(#paint30_linear_3002_853)" stroke-width="0.592237" stroke-linecap="round" stroke-linejoin="round"/>
<path d="M0.162109 216.76C59.4152 217.214 118.628 221.302 177.881 222.495C217.284 223.29 256.659 226.051 295.993 228.369C332.643 230.525 370.16 234.512 406.907 233.23C440.68 232.054 473.168 215.461 503.058 201.702C537.126 186.022 572.027 166.607 609.365 159.288C626.443 155.939 652.808 154.018 654.822 175.796C655.36 181.592 653.665 188.021 655.951 193.604C660.273 204.155 672.305 204.692 682.594 205.174" stroke="url(#paint31_linear_3002_853)" stroke-width="0.592237" stroke-linecap="round" stroke-linejoin="round"/>
<path d="M683.965 337.605C647.9 336.071 616.222 319.629 583.925 305.635C569.481 299.374 554.811 293.321 539.446 289.468C530.459 287.211 506.721 280.418 500.141 289.714C493.862 298.59 505.245 315.799 509.614 323.532C521.043 343.765 534.99 362.676 547.988 381.968C553.919 390.771 598.456 449.117 566.686 450.814C544.857 451.979 519.603 438.5 500.361 430.615C465.101 416.173 430.616 399.983 396.177 383.811C355.506 364.715 315.044 345.165 273.968 326.909C246.798 314.836 219.309 302.101 190.513 294.004C172.632 288.975 156.277 290.515 140.161 280.205C124.906 270.445 112.418 256.837 100.52 243.57C74.0384 214.042 44.0792 164.375 -0.00035505 159.716" stroke="url(#paint32_linear_3002_853)" stroke-width="0.592237" stroke-linecap="round" stroke-linejoin="round"/>
<path d="M683.965 347.808C648.213 345.686 616.604 330.42 584.191 317.036C569.782 311.084 555.169 305.36 539.955 301.62C530.852 299.385 507.618 292.374 501.206 302.152C495.372 311.05 505.679 327.436 509.915 335.287C520.378 354.702 533.271 372.885 545.256 391.427C550.789 399.978 592.148 456.369 562.386 458.867C555.007 459.483 544.232 455.776 537.507 453.782C523.225 449.543 509.354 444.05 495.604 438.433C461.362 424.438 427.879 408.736 394.447 393.028C355.136 374.565 316.022 355.643 276.3 338.008C249.546 326.131 222.486 313.755 194.171 305.702C176.167 300.584 159.379 301.945 143.187 291.613C127.626 281.684 114.819 267.891 102.574 254.474C75.7282 225.068 44.2933 173.935 0.00536715 169.572" stroke="url(#paint33_linear_3002_853)" stroke-width="0.592237" stroke-linecap="round" stroke-linejoin="round"/>
<path d="M683.958 354.73C648.738 352.624 617.188 339.016 584.74 326.78C570.4 321.37 555.886 316.213 540.869 312.836C531.604 310.753 508.739 304.033 502.078 313.564C496.228 321.93 504.671 336.966 508.456 344.717C517.31 362.816 528.606 379.795 538.994 397.082C544.445 406.16 580.041 457.903 551.361 460.457C544.156 461.101 533.369 457.422 526.777 455.495C513.062 451.48 499.74 446.267 486.546 440.908C454.133 427.742 422.473 412.896 390.858 398.04C329.279 369.099 267.092 334.054 201.021 315.546C182.787 310.439 166.149 311.694 149.714 301.289C133.522 291.041 120.061 276.912 107.127 263.159C89.3902 244.298 72.7989 224.334 53.968 206.459C38.6672 191.933 22.0296 178.201 -0.00153943 175.973" stroke="url(#paint34_linear_3002_853)" stroke-width="0.592237" stroke-linecap="round" stroke-linejoin="round"/>
<path d="M683.953 359.154C649.439 357.479 617.976 345.882 585.597 335.242C571.361 330.566 556.992 326.142 542.23 323.303C532.669 321.46 510.297 315.435 502.953 324.154C485.638 344.717 576.749 454.191 535.25 457.164C515.442 458.581 491.68 446.362 474.192 439.34C444.209 427.294 414.968 413.58 385.784 399.849C328.921 373.098 271.34 340.444 210.108 323.924C191.584 318.929 175.507 320.105 158.737 309.605C141.682 298.926 127.325 284.349 113.477 270.136C94.4837 250.643 76.6192 230.035 56.5557 211.538C40.3984 196.642 22.8812 182.306 0.00516306 179.781" stroke="url(#paint35_linear_3002_853)" stroke-width="0.592237" stroke-linecap="round" stroke-linejoin="round"/>
<path d="M683.953 361.87C650.29 360.867 618.965 351.521 586.795 342.785C572.715 338.966 558.537 335.404 544.081 333.198C533.971 331.658 512.455 326.59 504.041 334.116C481.483 354.299 561.668 447.611 515.69 450.523C497.149 451.693 476.061 441.457 459.551 434.966C432.375 424.276 405.952 411.822 379.586 399.401C328.267 375.231 276.033 345.266 220.472 331.176C201.653 326.405 186.358 327.48 169.217 316.868C151.162 305.691 135.768 290.599 120.867 275.848C100.456 255.633 81.1447 234.291 59.6749 215.094C42.4875 199.722 23.9113 184.737 0.0109557 181.797" stroke="url(#paint36_linear_3002_853)" stroke-width="0.592237" stroke-linecap="round" stroke-linejoin="round"/>
<path d="M683.953 363.667C651.245 363.421 620.151 356.426 588.358 349.79C574.492 346.895 560.563 344.246 546.454 342.723C535.43 341.53 515.361 337.571 505.523 343.67C476.744 361.511 544.238 440.734 494.29 442.112C476.999 442.588 459.267 435.1 443.59 429.075C419.412 419.773 395.975 408.719 372.595 397.693C327.196 376.284 280.623 349.158 231.126 337.683C212.058 333.265 197.596 334.15 180.126 323.448C161.023 311.744 144.553 296.12 128.563 280.804C106.677 259.844 85.8784 237.74 62.9561 217.804C44.6866 201.917 25.0108 186.277 0.0225408 182.877" stroke="url(#paint37_linear_3002_853)" stroke-width="0.592237" stroke-linecap="round" stroke-linejoin="round"/>
<path d="M683.953 365.342C651.471 365.812 619.995 360.806 587.976 356.286C575.551 354.534 563.097 352.977 550.574 352.131C538.474 351.314 520.303 348.637 508.59 352.68C472.155 365.263 524.863 433.409 472.745 433.566C434.557 433.684 394.505 409.593 361.345 393.89C322.792 375.634 281.959 351.409 239.292 343.468C232.816 342.264 226.364 342.673 219.905 341.788C208.713 340.248 198.198 334.558 188.858 328.729C168.951 316.297 151.544 300.186 134.559 284.321C111.521 262.806 89.4837 240.199 65.3577 219.798C46.2548 203.642 25.7573 187.649 0.0340557 183.891" stroke="url(#paint38_linear_3002_853)" stroke-width="0.592237" stroke-linecap="round" stroke-linejoin="round"/>
<path d="M683.953 367.677C652.57 368.685 621.639 365.935 590.406 363.471C578.311 362.519 566.199 361.713 554.064 361.405C540.881 361.069 524.51 359.428 511.558 362.127C492.919 366.008 490.939 383.149 487.542 398.426C483.196 417.964 473.983 426.499 452.676 426.387C418.197 426.213 384.488 407.123 354.36 392.837C321.004 377.023 285.061 355.413 247.81 349.695C241.711 348.76 235.577 349.365 229.5 348.513C217.99 346.912 207.081 340.909 197.463 334.939C176.711 322.065 158.442 305.506 140.571 289.182C116.33 267.039 93.0774 243.799 67.7651 222.777C47.8752 206.252 26.5559 189.693 0.0340557 185.627" stroke="url(#paint39_linear_3002_853)" stroke-width="0.592237" stroke-linecap="round" stroke-linejoin="round"/>
<path d="M683.958 371.462C653.698 372.717 623.542 371.899 593.282 371.21C567.975 370.634 540.579 368.584 515.475 371.742C496.94 374.072 489.081 386.297 479.943 400.381C468.954 417.315 456.072 422.243 435.568 422.081C369.29 421.554 318.237 364.121 253.66 356.287C247.78 355.575 241.831 356.225 235.981 355.407C224.297 353.778 213.191 347.584 203.429 341.542C182.081 328.331 163.198 311.436 144.697 294.782C119.558 272.158 95.3913 248.437 69.2052 226.922C48.8581 210.211 27.0353 193.17 0.0447311 188.976" stroke="url(#paint40_linear_3002_853)" stroke-width="0.592237" stroke-linecap="round" stroke-linejoin="round"/>
<path d="M683.958 377.488C629.85 379.554 574.37 376.855 520.504 381.733C501.563 383.446 489.081 393.28 475.221 404.76C459.33 417.925 443.913 422.383 422.993 422.187C361.854 421.605 315.338 370.611 255.836 363.589C236.588 361.315 223.035 359.602 205.715 348.866C184.106 335.477 164.957 318.397 146.172 301.591C120.559 278.682 95.9064 254.68 69.2631 232.869C48.9276 216.22 27.0122 198.821 0.0274236 194.761" stroke="url(#paint41_linear_3002_853)" stroke-width="0.592237" stroke-linecap="round" stroke-linejoin="round"/>
<path d="M683.965 386.549C656.095 387.03 628.294 388.408 600.464 389.786C576.095 390.99 551.049 389.797 526.83 392.278C507.126 394.299 491.107 403.069 474.285 412.437C456.009 422.618 437.873 428.425 416.553 428.235C357.063 427.697 311.074 379.93 253.354 371.955C247.18 371.104 240.86 371.591 234.732 370.684C223.337 368.998 212.857 363.214 203.326 357.261C181.902 343.883 162.932 326.825 144.293 310.087C118.749 287.144 94.1424 263.136 67.5859 241.269C47.8696 225.029 26.3767 207.378 0.00536715 203.816" stroke="url(#paint42_linear_3002_853)" stroke-width="0.592237" stroke-linecap="round" stroke-linejoin="round"/>
<path d="M683.981 397.76C658.009 397.849 632.228 399.585 606.343 401.417C581.91 403.141 556.691 401.674 532.472 404.816C490.933 410.209 456.871 438.819 413.908 438.528C353.463 438.119 305.072 390.586 246.808 380.59C227.353 377.253 213.99 376.833 196.45 366.019C175.785 353.279 157.631 336.832 139.755 320.749C115.172 298.618 91.6417 275.344 66.1789 254.132C46.7925 237.976 25.8898 220.941 0.0276907 216.696" stroke="url(#paint43_linear_3002_853)" stroke-width="0.592237" stroke-linecap="round" stroke-linejoin="round"/>
<path d="M683.993 406.211C658.386 406.558 633.154 409.257 607.738 412.018C583.467 414.655 559.006 414.23 534.799 416.744C490.314 421.364 449.099 444.285 403.827 443.764C343.295 443.07 295.217 395.363 236.919 385.16C217.764 381.806 204.072 381.184 186.74 370.796C167.226 359.098 149.975 343.956 133.123 329.004C110.212 308.676 88.2218 287.312 64.4256 267.93C45.369 252.407 25.1261 237.119 0.137884 232.6" stroke="url(#paint44_linear_3002_853)" stroke-width="0.592237" stroke-linecap="round" stroke-linejoin="round"/>
<path d="M683.999 412.147C634.717 413.871 586.552 424.999 537.212 427.216C486.888 429.479 437.716 445.36 387.19 444.425C327.665 443.327 281.924 395.492 224.401 386.258C207.208 383.497 193.806 382.663 178.146 374.196C157.955 363.276 140.201 348.201 122.921 333.506C87.3537 303.249 49.1653 259.099 0.288348 250.828" stroke="url(#paint45_linear_3002_853)" stroke-width="0.592237" stroke-linecap="round" stroke-linejoin="round"/>
<path d="M683.999 416.279C632.582 419.46 583.45 437.173 531.726 437.027C476.466 436.876 421.264 443.837 365.998 441.961C309.164 440.034 267.3 393.975 212.411 385.199C196.132 382.595 182.556 382.248 167.347 375.002C148.603 366.076 131.977 353.235 115.855 340.562C81.5204 313.576 46.2487 276.969 0.485086 270.686" stroke="url(#paint46_linear_3002_853)" stroke-width="0.592237" stroke-linecap="round" stroke-linejoin="round"/>
<path d="M683.993 419.326C629.572 424.119 576.974 448.524 522.015 445.757C461.946 442.733 401.836 440.656 341.773 437.498C287.838 434.664 250.072 389.59 197.741 382.371C183.655 380.428 170.501 380.428 157.012 375.287C138.279 368.142 121.509 356.673 105.369 345.244C73.3665 322.592 41.7232 295.404 0.699136 291.534" stroke="url(#paint47_linear_3002_853)" stroke-width="0.592237" stroke-linecap="round" stroke-linejoin="round"/>
<path d="M683.988 421.991C653.659 425.278 624.562 433.403 595.216 441.182C568.243 448.327 540.586 456.184 512.479 453.541C447.213 447.403 382.173 436.528 316.728 432.39C266.155 429.192 232.255 385.753 183.21 379.196C169.941 377.42 157.036 378.176 144.003 374.396C127.25 369.536 111.926 360.996 97.1519 352.125C66.6139 333.797 38.003 314.421 0.925747 312.696" stroke="url(#paint48_linear_3002_853)" stroke-width="0.592237" stroke-linecap="round" stroke-linejoin="round"/>
<path d="M683.981 424.998C651.389 428.885 620.197 438.231 588.745 446.989C559.978 454.997 530.62 464.097 500.551 460.217C431.414 451.29 362.705 432.995 293.099 428.14C245.229 424.797 214.54 383.206 168.435 376.435C155.935 374.599 143.302 376.127 130.762 373.854C115.964 371.166 102.174 365.566 88.6614 359.316C59.7091 345.921 34.0727 333.567 1.15048 333.517" stroke="url(#paint49_linear_3002_853)" stroke-width="0.592237" stroke-linecap="round" stroke-linejoin="round"/>
<path d="M683.971 429.047C649.509 433.09 616.512 443.159 583.277 452.444C553.387 460.799 522.288 470.929 491.038 466.292C451.727 460.457 412.885 451.76 374.007 443.741C340.501 436.825 306.062 428.123 271.809 425.636C224.998 422.232 195.641 381.094 150.595 374.559C138.633 372.823 126.428 374.682 114.368 373.641C101.932 372.565 89.9816 369.754 78.1009 366.137C52.1173 358.218 28.9634 352.35 1.31895 353.302" stroke="url(#paint50_linear_3002_853)" stroke-width="0.592237" stroke-linecap="round" stroke-linejoin="round"/>
<path d="M683.965 434.854C647.582 438.505 612.681 448.949 577.559 458.329C547.889 466.253 516.055 476.412 485.089 471.96C445.292 466.242 406.102 456.465 366.965 447.611C330.298 439.317 292.388 428.778 254.691 426.118C207.452 422.781 177.591 382.511 132.296 374.873C111.029 371.283 88.3034 375.511 66.6196 373.344C44.7042 371.155 23.5527 370.236 1.4637 371.401" stroke="url(#paint51_linear_3002_853)" stroke-width="0.592237" stroke-linecap="round" stroke-linejoin="round"/>
<path d="M683.965 443.136C646.494 445.567 610.36 455.624 574.081 464.383C543.572 471.747 511.397 480.471 479.753 476.708C400.581 467.295 324.407 435.918 244.604 431.36C193.627 428.448 159.744 386.185 110.844 377.83C75.352 371.77 37.0942 385.602 1.53887 387.159" stroke="url(#paint52_linear_3002_853)" stroke-width="0.592237" stroke-linecap="round" stroke-linejoin="round"/>
<path d="M683.965 454.275C614.127 456.224 546.35 489.101 476.235 482.992C397.184 476.098 321.786 446.692 242.399 441.893C185.884 438.477 145.994 393.336 91.7581 383.11C76.4689 380.226 53.8244 378.815 40.5606 388.626C27.864 398.017 18.4832 399.496 1.54466 399.994" stroke="url(#paint53_linear_3002_853)" stroke-width="0.592237" stroke-linecap="round" stroke-linejoin="round"/>
<path d="M683.947 463.442C645.157 464.848 607.426 473.667 569.567 481.283C538.022 487.628 505.112 494.83 472.751 491.571C394.84 483.714 319.933 457.943 241.786 451.374C182.307 446.373 139.784 398.857 82.7302 386.717C68.581 383.709 44.6344 381.503 35.0164 394.887C32.9042 397.827 32.256 401.366 29.4436 403.92C22.4239 410.298 10.3407 410.214 1.52708 410.785" stroke="url(#paint54_linear_3002_853)" stroke-width="0.592237" stroke-linecap="round" stroke-linejoin="round"/>
<path d="M683.93 469.44C645.244 471.181 607.553 479.604 569.717 487.007C538.167 493.178 505.048 500.581 472.745 497.031C394.724 488.452 319.025 465.845 240.831 458.212C179.483 452.22 135.172 403.382 76.2775 390.178C62.2151 387.025 37.9097 384.768 31.1331 400.644C29.5996 404.239 29.97 408.327 27.4989 411.631C21.9087 419.113 9.95852 419.449 1.5095 420.227" stroke="url(#paint55_linear_3002_853)" stroke-width="0.592237" stroke-linecap="round" stroke-linejoin="round"/>
<path d="M683.919 473.085C645.898 475.124 608.809 483.132 571.564 490.283C540.268 496.286 507.45 503.673 475.454 500.033C396.456 491.039 319.13 471.389 239.998 463.246C177.562 456.823 132.053 407.353 72.0423 393.767C57.9741 390.581 32.9222 388.531 28.6514 406.166C27.6444 410.321 28.5298 414.863 26.3308 418.766C21.6723 427.042 9.98249 427.742 1.49297 428.672" stroke="url(#paint56_linear_3002_853)" stroke-width="0.592237" stroke-linecap="round" stroke-linejoin="round"/>
<path d="M683.9 475.179C646.95 477.436 610.851 484.985 574.596 491.811C543.739 497.624 511.616 504.747 480.105 501.208C399.678 492.17 320.361 474.871 239.748 467.289C176.722 461.359 130.258 411.172 69.6569 397.709C55.1604 394.489 30.0796 392.989 27.3076 411.693C26.6305 416.268 27.8342 421.246 25.7856 425.603C21.6247 434.468 10.2243 435.425 1.46283 436.45" stroke="url(#paint57_linear_3002_853)" stroke-width="0.592237" stroke-linecap="round" stroke-linejoin="round"/>
<path d="M683.889 476.546C648.247 478.915 613.363 485.91 578.322 492.316C548.022 497.86 516.841 504.496 485.95 501.225C404.012 492.557 322.664 478.546 240.576 471.187C177.127 465.498 129.94 415.35 68.7944 402.285C53.5977 399.037 29.0493 398.175 26.8676 417.506C26.312 422.417 27.7472 427.748 25.7449 432.475C21.7982 441.787 10.5367 442.885 1.44532 443.943" stroke="url(#paint58_linear_3002_853)" stroke-width="0.592237" stroke-linecap="round" stroke-linejoin="round"/>
<path d="M683.878 477.996C649.619 480.332 616.002 486.654 582.247 492.511C552.571 497.663 522.409 503.583 492.213 500.732C409.088 492.892 326.166 482.488 242.938 475.762C178.962 470.593 130.855 420.294 69.0846 407.739C53.2861 404.525 29.0674 404.105 27.0709 423.861C26.5501 429.041 28.0952 434.669 26.064 439.67C22.1404 449.336 10.8558 450.467 1.43457 451.497" stroke="url(#paint59_linear_3002_853)" stroke-width="0.592237" stroke-linecap="round" stroke-linejoin="round"/>
<path d="M683.865 480.349C622.326 484.319 559.867 505.168 498.12 500.38C414.544 493.895 330.922 487.629 247.294 481.844C182.399 477.358 132.908 426.488 70.1657 414.336C54.0026 411.206 29.5409 410.881 27.6601 431.035C27.1566 436.417 28.696 442.314 26.5953 447.505C22.5676 457.45 11.144 458.525 1.42767 459.466" stroke="url(#paint60_linear_3002_853)" stroke-width="0.592237" stroke-linecap="round" stroke-linejoin="round"/>
<path d="M683.854 484.414C623.647 487.662 563.3 504.12 502.924 500.816C420.043 496.28 337.011 494.897 254.129 490.26C187.648 486.536 135.999 434.389 71.6943 422.316C55.1435 419.208 30.3982 418.715 28.3785 439.261C27.8346 444.811 29.3913 450.915 27.198 456.257C23.0198 466.432 11.3937 467.373 1.41693 468.185" stroke="url(#paint61_linear_3002_853)" stroke-width="0.592237" stroke-linecap="round" stroke-linejoin="round"/>
<path d="M683.843 491.011C624.41 493.1 565.377 504.109 505.84 502.703C425.239 500.805 344.47 505.184 263.903 501.847C194.957 498.991 139.958 444.475 73.2971 431.953C56.4396 428.784 31.0752 427.77 28.9687 448.837C28.4016 454.521 29.993 460.799 27.7303 466.264C23.4305 476.636 11.5845 477.392 1.411 478.047" stroke="url(#paint62_linear_3002_853)" stroke-width="0.592237" stroke-linecap="round" stroke-linejoin="round"/>
<path d="M683.837 500.945C624.584 501.399 565.371 505.487 506.118 506.68C466.715 507.475 427.34 510.236 388.006 512.554C351.356 514.71 313.839 518.697 277.092 517.415C243.319 516.239 210.831 499.646 180.941 485.887C146.873 470.207 111.972 450.792 74.6338 443.473C57.5564 440.124 31.1908 438.203 29.1769 459.981C28.6388 465.777 30.3344 472.206 28.0485 477.789C23.7256 488.34 11.6944 488.877 1.40514 489.359" stroke="url(#paint63_linear_3002_853)" stroke-width="0.592237" stroke-linecap="round" stroke-linejoin="round"/>
</g>
</g>
<defs>
<linearGradient id="paint0_linear_3002_853" x1="-0.255173" y1="21.1204" x2="684.289" y2="21.1204" gradientUnits="userSpaceOnUse">
<stop stop-color="#E2A4F1"/>
<stop offset="0.375" stop-color="#1C3B96"/>
<stop offset="0.739583" stop-color="#1C3047"/>
<stop offset="1" stop-color="#4C71F2"/>
</linearGradient>
<linearGradient id="paint1_linear_3002_853" x1="-0.25517" y1="30.0734" x2="684.283" y2="30.0734" gradientUnits="userSpaceOnUse">
<stop stop-color="#E2A4F1"/>
<stop offset="0.375" stop-color="#1C3B96"/>
<stop offset="0.739583" stop-color="#1C3047"/>
<stop offset="1" stop-color="#4C71F2"/>
</linearGradient>
<linearGradient id="paint2_linear_3002_853" x1="-0.248334" y1="34.0718" x2="684.29" y2="34.0718" gradientUnits="userSpaceOnUse">
<stop stop-color="#E2A4F1"/>
<stop offset="0.375" stop-color="#1C3B96"/>
<stop offset="0.739583" stop-color="#1C3047"/>
<stop offset="1" stop-color="#4C71F2"/>
</linearGradient>
<linearGradient id="paint3_linear_3002_853" x1="-0.24247" y1="34.3487" x2="684.284" y2="34.3487" gradientUnits="userSpaceOnUse">
<stop stop-color="#E2A4F1"/>
<stop offset="0.375" stop-color="#1C3B96"/>
<stop offset="0.739583" stop-color="#1C3047"/>
<stop offset="1" stop-color="#4C71F2"/>
</linearGradient>
<linearGradient id="paint4_linear_3002_853" x1="-0.242468" y1="32.0254" x2="684.278" y2="32.0254" gradientUnits="userSpaceOnUse">
<stop stop-color="#E2A4F1"/>
<stop offset="0.375" stop-color="#1C3B96"/>
<stop offset="0.739583" stop-color="#1C3047"/>
<stop offset="1" stop-color="#4C71F2"/>
</linearGradient>
<linearGradient id="paint5_linear_3002_853" x1="-0.242463" y1="28.3245" x2="684.267" y2="28.3245" gradientUnits="userSpaceOnUse">
<stop stop-color="#E2A4F1"/>
<stop offset="0.375" stop-color="#1C3B96"/>
<stop offset="0.739583" stop-color="#1C3047"/>
<stop offset="1" stop-color="#4C71F2"/>
</linearGradient>
<linearGradient id="paint6_linear_3002_853" x1="-0.242458" y1="24.5478" x2="684.255" y2="24.5478" gradientUnits="userSpaceOnUse">
<stop stop-color="#E2A4F1"/>
<stop offset="0.375" stop-color="#1C3B96"/>
<stop offset="0.739583" stop-color="#1C3047"/>
<stop offset="1" stop-color="#4C71F2"/>
</linearGradient>
<linearGradient id="paint7_linear_3002_853" x1="-0.242458" y1="21.8263" x2="684.255" y2="21.8263" gradientUnits="userSpaceOnUse">
<stop stop-color="#E2A4F1"/>
<stop offset="0.375" stop-color="#1C3B96"/>
<stop offset="0.739583" stop-color="#1C3047"/>
<stop offset="1" stop-color="#4C71F2"/>
</linearGradient>
<linearGradient id="paint8_linear_3002_853" x1="-0.248315" y1="21.3491" x2="684.244" y2="21.3491" gradientUnits="userSpaceOnUse">
<stop stop-color="#E2A4F1"/>
<stop offset="0.375" stop-color="#1C3B96"/>
<stop offset="0.739583" stop-color="#1C3047"/>
<stop offset="1" stop-color="#4C71F2"/>
</linearGradient>
<linearGradient id="paint9_linear_3002_853" x1="-0.248322" y1="24.2956" x2="684.261" y2="24.2956" gradientUnits="userSpaceOnUse">
<stop stop-color="#E2A4F1"/>
<stop offset="0.375" stop-color="#1C3B96"/>
<stop offset="0.739583" stop-color="#1C3047"/>
<stop offset="1" stop-color="#4C71F2"/>
</linearGradient>
<linearGradient id="paint10_linear_3002_853" x1="-0.25517" y1="31.8463" x2="684.283" y2="31.8463" gradientUnits="userSpaceOnUse">
<stop stop-color="#E2A4F1"/>
<stop offset="0.375" stop-color="#1C3B96"/>
<stop offset="0.739583" stop-color="#1C3047"/>
<stop offset="1" stop-color="#4C71F2"/>
</linearGradient>
<linearGradient id="paint11_linear_3002_853" x1="-0.271769" y1="43.4314" x2="684.261" y2="43.4314" gradientUnits="userSpaceOnUse">
<stop stop-color="#E2A4F1"/>
<stop offset="0.375" stop-color="#1C3B96"/>
<stop offset="0.739583" stop-color="#1C3047"/>
<stop offset="1" stop-color="#4C71F2"/>
</linearGradient>
<linearGradient id="paint12_linear_3002_853" x1="-0.283446" y1="54.0048" x2="684.15" y2="54.0048" gradientUnits="userSpaceOnUse">
<stop stop-color="#E2A4F1"/>
<stop offset="0.375" stop-color="#1C3B96"/>
<stop offset="0.739583" stop-color="#1C3047"/>
<stop offset="1" stop-color="#4C71F2"/>
</linearGradient>
<linearGradient id="paint13_linear_3002_853" x1="-0.289245" y1="63.4645" x2="684" y2="63.4645" gradientUnits="userSpaceOnUse">
<stop stop-color="#E2A4F1"/>
<stop offset="0.375" stop-color="#1C3B96"/>
<stop offset="0.739583" stop-color="#1C3047"/>
<stop offset="1" stop-color="#4C71F2"/>
</linearGradient>
<linearGradient id="paint14_linear_3002_853" x1="-0.289161" y1="72.3015" x2="683.803" y2="72.3015" gradientUnits="userSpaceOnUse">
<stop stop-color="#E2A4F1"/>
<stop offset="0.375" stop-color="#1C3B96"/>
<stop offset="0.739583" stop-color="#1C3047"/>
<stop offset="1" stop-color="#4C71F2"/>
</linearGradient>
<linearGradient id="paint15_linear_3002_853" x1="-0.283209" y1="84.5722" x2="683.589" y2="84.5722" gradientUnits="userSpaceOnUse">
<stop stop-color="#E2A4F1"/>
<stop offset="0.375" stop-color="#1C3B96"/>
<stop offset="0.739583" stop-color="#1C3047"/>
<stop offset="1" stop-color="#4C71F2"/>
</linearGradient>
<linearGradient id="paint16_linear_3002_853" x1="-0.278228" y1="99.1976" x2="683.362" y2="99.1976" gradientUnits="userSpaceOnUse">
<stop stop-color="#E2A4F1"/>
<stop offset="0.375" stop-color="#1C3B96"/>
<stop offset="0.739583" stop-color="#1C3047"/>
<stop offset="1" stop-color="#4C71F2"/>
</linearGradient>
<linearGradient id="paint17_linear_3002_853" x1="-0.271294" y1="113.146" x2="683.137" y2="113.146" gradientUnits="userSpaceOnUse">
<stop stop-color="#E2A4F1"/>
<stop offset="0.375" stop-color="#1C3B96"/>
<stop offset="0.739583" stop-color="#1C3047"/>
<stop offset="1" stop-color="#4C71F2"/>
</linearGradient>
<linearGradient id="paint18_linear_3002_853" x1="-0.260476" y1="126.146" x2="682.969" y2="126.146" gradientUnits="userSpaceOnUse">
<stop stop-color="#E2A4F1"/>
<stop offset="0.375" stop-color="#1C3B96"/>
<stop offset="0.739583" stop-color="#1C3047"/>
<stop offset="1" stop-color="#4C71F2"/>
</linearGradient>
<linearGradient id="paint19_linear_3002_853" x1="-0.254553" y1="137.786" x2="682.824" y2="137.786" gradientUnits="userSpaceOnUse">
<stop stop-color="#E2A4F1"/>
<stop offset="0.375" stop-color="#1C3B96"/>
<stop offset="0.739583" stop-color="#1C3047"/>
<stop offset="1" stop-color="#4C71F2"/>
</linearGradient>
<linearGradient id="paint20_linear_3002_853" x1="-0.254521" y1="142.775" x2="682.749" y2="142.775" gradientUnits="userSpaceOnUse">
<stop stop-color="#E2A4F1"/>
<stop offset="0.375" stop-color="#1C3B96"/>
<stop offset="0.739583" stop-color="#1C3047"/>
<stop offset="1" stop-color="#4C71F2"/>
</linearGradient>
<linearGradient id="paint21_linear_3002_853" x1="-0.254519" y1="148.179" x2="682.743" y2="148.179" gradientUnits="userSpaceOnUse">
<stop stop-color="#E2A4F1"/>
<stop offset="0.375" stop-color="#1C3B96"/>
<stop offset="0.739583" stop-color="#1C3047"/>
<stop offset="1" stop-color="#4C71F2"/>
</linearGradient>
<linearGradient id="paint22_linear_3002_853" x1="-0.236941" y1="154.227" x2="682.761" y2="154.227" gradientUnits="userSpaceOnUse">
<stop stop-color="#E2A4F1"/>
<stop offset="0.375" stop-color="#1C3B96"/>
<stop offset="0.739583" stop-color="#1C3047"/>
<stop offset="1" stop-color="#4C71F2"/>
</linearGradient>
<linearGradient id="paint23_linear_3002_853" x1="-0.219363" y1="158.753" x2="682.778" y2="158.753" gradientUnits="userSpaceOnUse">
<stop stop-color="#E2A4F1"/>
<stop offset="0.375" stop-color="#1C3B96"/>
<stop offset="0.739583" stop-color="#1C3047"/>
<stop offset="1" stop-color="#4C71F2"/>
</linearGradient>
<linearGradient id="paint24_linear_3002_853" x1="-0.208623" y1="162.133" x2="682.795" y2="162.133" gradientUnits="userSpaceOnUse">
<stop stop-color="#E2A4F1"/>
<stop offset="0.375" stop-color="#1C3B96"/>
<stop offset="0.739583" stop-color="#1C3047"/>
<stop offset="1" stop-color="#4C71F2"/>
</linearGradient>
<linearGradient id="paint25_linear_3002_853" x1="-0.190073" y1="164.767" x2="682.825" y2="164.767" gradientUnits="userSpaceOnUse">
<stop stop-color="#E2A4F1"/>
<stop offset="0.375" stop-color="#1C3B96"/>
<stop offset="0.739583" stop-color="#1C3047"/>
<stop offset="1" stop-color="#4C71F2"/>
</linearGradient>
<linearGradient id="paint26_linear_3002_853" x1="-0.178357" y1="167.104" x2="682.842" y2="167.104" gradientUnits="userSpaceOnUse">
<stop stop-color="#E2A4F1"/>
<stop offset="0.375" stop-color="#1C3B96"/>
<stop offset="0.739583" stop-color="#1C3047"/>
<stop offset="1" stop-color="#4C71F2"/>
</linearGradient>
<linearGradient id="paint27_linear_3002_853" x1="-0.167615" y1="169.589" x2="682.853" y2="169.589" gradientUnits="userSpaceOnUse">
<stop stop-color="#E2A4F1"/>
<stop offset="0.375" stop-color="#1C3B96"/>
<stop offset="0.739583" stop-color="#1C3047"/>
<stop offset="1" stop-color="#4C71F2"/>
</linearGradient>
<linearGradient id="paint28_linear_3002_853" x1="-0.154917" y1="172.737" x2="682.86" y2="172.737" gradientUnits="userSpaceOnUse">
<stop stop-color="#E2A4F1"/>
<stop offset="0.375" stop-color="#1C3B96"/>
<stop offset="0.739583" stop-color="#1C3047"/>
<stop offset="1" stop-color="#4C71F2"/>
</linearGradient>
<linearGradient id="paint29_linear_3002_853" x1="-0.144175" y1="176.803" x2="682.871" y2="176.803" gradientUnits="userSpaceOnUse">
<stop stop-color="#E2A4F1"/>
<stop offset="0.375" stop-color="#1C3B96"/>
<stop offset="0.739583" stop-color="#1C3047"/>
<stop offset="1" stop-color="#4C71F2"/>
</linearGradient>
<linearGradient id="paint30_linear_3002_853" x1="-0.132454" y1="182.499" x2="682.877" y2="182.499" gradientUnits="userSpaceOnUse">
<stop stop-color="#E2A4F1"/>
<stop offset="0.375" stop-color="#1C3B96"/>
<stop offset="0.739583" stop-color="#1C3047"/>
<stop offset="1" stop-color="#4C71F2"/>
</linearGradient>
<linearGradient id="paint31_linear_3002_853" x1="-0.126594" y1="195.36" x2="682.883" y2="195.36" gradientUnits="userSpaceOnUse">
<stop stop-color="#E2A4F1"/>
<stop offset="0.375" stop-color="#1C3B96"/>
<stop offset="0.739583" stop-color="#1C3047"/>
<stop offset="1" stop-color="#4C71F2"/>
</linearGradient>
<linearGradient id="paint32_linear_3002_853" x1="684.254" y1="305.305" x2="-0.289709" y2="305.305" gradientUnits="userSpaceOnUse">
<stop stop-color="#E2A4F1"/>
<stop offset="0.375" stop-color="#1C3B96"/>
<stop offset="0.739583" stop-color="#1C3047"/>
<stop offset="1" stop-color="#4C71F2"/>
</linearGradient>
<linearGradient id="paint33_linear_3002_853" x1="684.254" y1="314.259" x2="-0.283969" y2="314.259" gradientUnits="userSpaceOnUse">
<stop stop-color="#E2A4F1"/>
<stop offset="0.375" stop-color="#1C3B96"/>
<stop offset="0.739583" stop-color="#1C3047"/>
<stop offset="1" stop-color="#4C71F2"/>
</linearGradient>
<linearGradient id="paint34_linear_3002_853" x1="684.247" y1="318.257" x2="-0.290866" y2="318.257" gradientUnits="userSpaceOnUse">
<stop stop-color="#E2A4F1"/>
<stop offset="0.375" stop-color="#1C3B96"/>
<stop offset="0.739583" stop-color="#1C3047"/>
<stop offset="1" stop-color="#4C71F2"/>
</linearGradient>
<linearGradient id="paint35_linear_3002_853" x1="684.242" y1="318.534" x2="-0.284147" y2="318.534" gradientUnits="userSpaceOnUse">
<stop stop-color="#E2A4F1"/>
<stop offset="0.375" stop-color="#1C3B96"/>
<stop offset="0.739583" stop-color="#1C3047"/>
<stop offset="1" stop-color="#4C71F2"/>
</linearGradient>
<linearGradient id="paint36_linear_3002_853" x1="684.242" y1="316.21" x2="-0.278407" y2="316.21" gradientUnits="userSpaceOnUse">
<stop stop-color="#E2A4F1"/>
<stop offset="0.375" stop-color="#1C3B96"/>
<stop offset="0.739583" stop-color="#1C3047"/>
<stop offset="1" stop-color="#4C71F2"/>
</linearGradient>
<linearGradient id="paint37_linear_3002_853" x1="684.242" y1="312.51" x2="-0.266806" y2="312.51" gradientUnits="userSpaceOnUse">
<stop stop-color="#E2A4F1"/>
<stop offset="0.375" stop-color="#1C3B96"/>
<stop offset="0.739583" stop-color="#1C3047"/>
<stop offset="1" stop-color="#4C71F2"/>
</linearGradient>
<linearGradient id="paint38_linear_3002_853" x1="684.242" y1="308.733" x2="-0.255265" y2="308.733" gradientUnits="userSpaceOnUse">
<stop stop-color="#E2A4F1"/>
<stop offset="0.375" stop-color="#1C3B96"/>
<stop offset="0.739583" stop-color="#1C3047"/>
<stop offset="1" stop-color="#4C71F2"/>
</linearGradient>
<linearGradient id="paint39_linear_3002_853" x1="684.242" y1="306.011" x2="-0.255265" y2="306.011" gradientUnits="userSpaceOnUse">
<stop stop-color="#E2A4F1"/>
<stop offset="0.375" stop-color="#1C3B96"/>
<stop offset="0.739583" stop-color="#1C3047"/>
<stop offset="1" stop-color="#4C71F2"/>
</linearGradient>
<linearGradient id="paint40_linear_3002_853" x1="684.247" y1="305.534" x2="-0.244582" y2="305.534" gradientUnits="userSpaceOnUse">
<stop stop-color="#E2A4F1"/>
<stop offset="0.375" stop-color="#1C3B96"/>
<stop offset="0.739583" stop-color="#1C3047"/>
<stop offset="1" stop-color="#4C71F2"/>
</linearGradient>
<linearGradient id="paint41_linear_3002_853" x1="684.247" y1="308.481" x2="-0.261923" y2="308.481" gradientUnits="userSpaceOnUse">
<stop stop-color="#E2A4F1"/>
<stop offset="0.375" stop-color="#1C3B96"/>
<stop offset="0.739583" stop-color="#1C3047"/>
<stop offset="1" stop-color="#4C71F2"/>
</linearGradient>
<linearGradient id="paint42_linear_3002_853" x1="684.254" y1="316.031" x2="-0.283969" y2="316.031" gradientUnits="userSpaceOnUse">
<stop stop-color="#E2A4F1"/>
<stop offset="0.375" stop-color="#1C3B96"/>
<stop offset="0.739583" stop-color="#1C3047"/>
<stop offset="1" stop-color="#4C71F2"/>
</linearGradient>
<linearGradient id="paint43_linear_3002_853" x1="684.271" y1="327.616" x2="-0.261628" y2="327.616" gradientUnits="userSpaceOnUse">
<stop stop-color="#E2A4F1"/>
<stop offset="0.375" stop-color="#1C3B96"/>
<stop offset="0.739583" stop-color="#1C3047"/>
<stop offset="1" stop-color="#4C71F2"/>
</linearGradient>
<linearGradient id="paint44_linear_3002_853" x1="684.282" y1="338.19" x2="-0.151417" y2="338.19" gradientUnits="userSpaceOnUse">
<stop stop-color="#E2A4F1"/>
<stop offset="0.375" stop-color="#1C3B96"/>
<stop offset="0.739583" stop-color="#1C3047"/>
<stop offset="1" stop-color="#4C71F2"/>
</linearGradient>
<linearGradient id="paint45_linear_3002_853" x1="684.288" y1="347.65" x2="-0.000904648" y2="347.65" gradientUnits="userSpaceOnUse">
<stop stop-color="#E2A4F1"/>
<stop offset="0.375" stop-color="#1C3B96"/>
<stop offset="0.739583" stop-color="#1C3047"/>
<stop offset="1" stop-color="#4C71F2"/>
</linearGradient>
<linearGradient id="paint46_linear_3002_853" x1="684.288" y1="356.487" x2="0.195956" y2="356.487" gradientUnits="userSpaceOnUse">
<stop stop-color="#E2A4F1"/>
<stop offset="0.375" stop-color="#1C3B96"/>
<stop offset="0.739583" stop-color="#1C3047"/>
<stop offset="1" stop-color="#4C71F2"/>
</linearGradient>
<linearGradient id="paint47_linear_3002_853" x1="684.282" y1="368.757" x2="0.410099" y2="368.757" gradientUnits="userSpaceOnUse">
<stop stop-color="#E2A4F1"/>
<stop offset="0.375" stop-color="#1C3B96"/>
<stop offset="0.739583" stop-color="#1C3047"/>
<stop offset="1" stop-color="#4C71F2"/>
</linearGradient>
<linearGradient id="paint48_linear_3002_853" x1="684.277" y1="383.383" x2="0.636821" y2="383.383" gradientUnits="userSpaceOnUse">
<stop stop-color="#E2A4F1"/>
<stop offset="0.375" stop-color="#1C3B96"/>
<stop offset="0.739583" stop-color="#1C3047"/>
<stop offset="1" stop-color="#4C71F2"/>
</linearGradient>
<linearGradient id="paint49_linear_3002_853" x1="684.27" y1="397.331" x2="0.861589" y2="397.331" gradientUnits="userSpaceOnUse">
<stop stop-color="#E2A4F1"/>
<stop offset="0.375" stop-color="#1C3B96"/>
<stop offset="0.739583" stop-color="#1C3047"/>
<stop offset="1" stop-color="#4C71F2"/>
</linearGradient>
<linearGradient id="paint50_linear_3002_853" x1="684.259" y1="410.331" x2="1.03018" y2="410.331" gradientUnits="userSpaceOnUse">
<stop stop-color="#E2A4F1"/>
<stop offset="0.375" stop-color="#1C3B96"/>
<stop offset="0.739583" stop-color="#1C3047"/>
<stop offset="1" stop-color="#4C71F2"/>
</linearGradient>
<linearGradient id="paint51_linear_3002_853" x1="684.254" y1="421.971" x2="1.17496" y2="421.971" gradientUnits="userSpaceOnUse">
<stop stop-color="#E2A4F1"/>
<stop offset="0.375" stop-color="#1C3B96"/>
<stop offset="0.739583" stop-color="#1C3047"/>
<stop offset="1" stop-color="#4C71F2"/>
</linearGradient>
<linearGradient id="paint52_linear_3002_853" x1="684.254" y1="426.96" x2="1.25019" y2="426.96" gradientUnits="userSpaceOnUse">
<stop stop-color="#E2A4F1"/>
<stop offset="0.375" stop-color="#1C3B96"/>
<stop offset="0.739583" stop-color="#1C3047"/>
<stop offset="1" stop-color="#4C71F2"/>
</linearGradient>
<linearGradient id="paint53_linear_3002_853" x1="684.254" y1="432.364" x2="1.25599" y2="432.364" gradientUnits="userSpaceOnUse">
<stop stop-color="#E2A4F1"/>
<stop offset="0.375" stop-color="#1C3B96"/>
<stop offset="0.739583" stop-color="#1C3047"/>
<stop offset="1" stop-color="#4C71F2"/>
</linearGradient>
<linearGradient id="paint54_linear_3002_853" x1="684.236" y1="438.412" x2="1.23841" y2="438.412" gradientUnits="userSpaceOnUse">
<stop stop-color="#E2A4F1"/>
<stop offset="0.375" stop-color="#1C3B96"/>
<stop offset="0.739583" stop-color="#1C3047"/>
<stop offset="1" stop-color="#4C71F2"/>
</linearGradient>
<linearGradient id="paint55_linear_3002_853" x1="684.218" y1="442.938" x2="1.22083" y2="442.938" gradientUnits="userSpaceOnUse">
<stop stop-color="#E2A4F1"/>
<stop offset="0.375" stop-color="#1C3B96"/>
<stop offset="0.739583" stop-color="#1C3047"/>
<stop offset="1" stop-color="#4C71F2"/>
</linearGradient>
<linearGradient id="paint56_linear_3002_853" x1="684.208" y1="446.318" x2="1.20429" y2="446.318" gradientUnits="userSpaceOnUse">
<stop stop-color="#E2A4F1"/>
<stop offset="0.375" stop-color="#1C3B96"/>
<stop offset="0.739583" stop-color="#1C3047"/>
<stop offset="1" stop-color="#4C71F2"/>
</linearGradient>
<linearGradient id="paint57_linear_3002_853" x1="684.189" y1="448.952" x2="1.17413" y2="448.952" gradientUnits="userSpaceOnUse">
<stop stop-color="#E2A4F1"/>
<stop offset="0.375" stop-color="#1C3B96"/>
<stop offset="0.739583" stop-color="#1C3047"/>
<stop offset="1" stop-color="#4C71F2"/>
</linearGradient>
<linearGradient id="paint58_linear_3002_853" x1="684.177" y1="451.289" x2="1.15661" y2="451.289" gradientUnits="userSpaceOnUse">
<stop stop-color="#E2A4F1"/>
<stop offset="0.375" stop-color="#1C3B96"/>
<stop offset="0.739583" stop-color="#1C3047"/>
<stop offset="1" stop-color="#4C71F2"/>
</linearGradient>
<linearGradient id="paint59_linear_3002_853" x1="684.167" y1="453.774" x2="1.14587" y2="453.774" gradientUnits="userSpaceOnUse">
<stop stop-color="#E2A4F1"/>
<stop offset="0.375" stop-color="#1C3B96"/>
<stop offset="0.739583" stop-color="#1C3047"/>
<stop offset="1" stop-color="#4C71F2"/>
</linearGradient>
<linearGradient id="paint60_linear_3002_853" x1="684.154" y1="456.922" x2="1.13898" y2="456.922" gradientUnits="userSpaceOnUse">
<stop stop-color="#E2A4F1"/>
<stop offset="0.375" stop-color="#1C3B96"/>
<stop offset="0.739583" stop-color="#1C3047"/>
<stop offset="1" stop-color="#4C71F2"/>
</linearGradient>
<linearGradient id="paint61_linear_3002_853" x1="684.143" y1="460.988" x2="1.12824" y2="460.988" gradientUnits="userSpaceOnUse">
<stop stop-color="#E2A4F1"/>
<stop offset="0.375" stop-color="#1C3B96"/>
<stop offset="0.739583" stop-color="#1C3047"/>
<stop offset="1" stop-color="#4C71F2"/>
</linearGradient>
<linearGradient id="paint62_linear_3002_853" x1="684.131" y1="466.684" x2="1.12232" y2="466.684" gradientUnits="userSpaceOnUse">
<stop stop-color="#E2A4F1"/>
<stop offset="0.375" stop-color="#1C3B96"/>
<stop offset="0.739583" stop-color="#1C3047"/>
<stop offset="1" stop-color="#4C71F2"/>
</linearGradient>
<linearGradient id="paint63_linear_3002_853" x1="684.126" y1="479.545" x2="1.11646" y2="479.545" gradientUnits="userSpaceOnUse">
<stop stop-color="#E2A4F1"/>
<stop offset="0.375" stop-color="#1C3B96"/>
<stop offset="0.739583" stop-color="#1C3047"/>
<stop offset="1" stop-color="#4C71F2"/>
</linearGradient>
<clipPath id="clip0_3002_853">
<rect width="684" height="524" fill="white"/>
</clipPath>
</defs>
</svg>
