<svg width="684" height="524" viewBox="0 0 684 524" fill="none" xmlns="http://www.w3.org/2000/svg">
<mask id="mask0_3002_2039" style="mask-type:alpha" maskUnits="userSpaceOnUse" x="0" y="0" width="684" height="524">
<rect width="684" height="524" fill="#00FF85"/>
</mask>
<g mask="url(#mask0_3002_2039)">
<path d="M15.4747 423.816C-0.0699349 338.671 -54.5789 290.379 -89.2206 259.688C-92.0235 257.205 -94.6962 254.837 -97.2077 252.574C-105.623 244.992 -112.144 238.663 -115.755 233.152C-117.553 230.405 -118.576 227.939 -118.793 225.685C-119.006 223.468 -118.446 221.381 -116.93 219.337C-115.393 217.265 -112.855 215.212 -109.081 213.162C-105.314 211.115 -100.371 209.101 -94.0885 207.077C-81.5223 203.03 -63.7105 198.982 -39.471 194.556C57.4756 176.857 238.201 156.592 398.842 163.651C479.171 167.181 554.401 177.54 611.607 198.425C668.845 219.322 707.755 250.641 716.021 295.921C749.371 478.596 619.656 655.4 426.151 690.727C232.646 726.054 48.8248 606.491 15.4747 423.816Z" stroke="url(#paint0_angular_3002_2039)" stroke-width="2.03263"/>
<path d="M15.9391 436.096C-2.94759 351.629 -59.3166 305.522 -95.1405 276.22C-98.0389 273.849 -100.803 271.588 -103.402 269.426C-112.109 262.182 -118.875 256.114 -122.699 250.749C-124.605 248.076 -125.724 245.652 -126.029 243.409C-126.329 241.201 -125.852 239.094 -124.418 236.991C-122.964 234.86 -120.508 232.71 -116.818 230.512C-113.134 228.319 -108.275 226.111 -102.077 223.842C-89.68 219.302 -72.0415 214.556 -47.9951 209.179C48.179 187.675 227.966 160.306 388.761 161.031C469.166 161.394 544.746 168.781 602.73 187.397C660.747 206.023 700.86 235.785 710.904 280.704C751.424 461.924 628.774 643.7 436.811 686.622C244.848 729.545 56.4594 617.316 15.9391 436.096Z" stroke="url(#paint1_angular_3002_2039)" stroke-width="2.03263"/>
<path d="M17.1402 450.862C-5.73598 367.387 -64.2307 324.009 -101.406 296.441C-104.413 294.21 -107.281 292.083 -109.98 290.047C-119.021 283.224 -126.068 277.485 -130.143 272.307C-132.173 269.728 -133.406 267.359 -133.817 265.133C-134.222 262.942 -133.845 260.815 -132.512 258.647C-131.162 256.449 -128.811 254.184 -125.229 251.814C-121.654 249.448 -116.904 247.012 -110.821 244.451C-98.6539 239.328 -81.2607 233.749 -57.4967 227.237C37.5478 201.19 215.832 165.315 376.48 158.405C456.812 154.949 532.657 158.739 591.46 174.581C650.296 190.431 691.777 218.255 703.942 262.646C753.022 441.737 639.142 629.132 449.433 681.121C259.725 733.11 66.2197 629.954 17.1402 450.862Z" stroke="url(#paint2_angular_3002_2039)" stroke-width="2.03263"/>
<path d="M19.3627 466.331C-6.1534 383.625 -65.9964 342.127 -104.028 315.753C-107.105 313.619 -110.04 311.585 -112.801 309.635C-122.055 303.103 -129.28 297.59 -133.517 292.545C-135.629 290.031 -136.936 287.703 -137.418 285.491C-137.892 283.314 -137.583 281.176 -136.32 278.966C-135.04 276.727 -132.762 274.388 -129.257 271.906C-125.759 269.428 -121.089 266.842 -115.091 264.089C-103.092 258.582 -85.8849 252.453 -62.3397 245.189C31.8295 216.137 208.884 174.618 369.232 162.607C449.413 156.602 525.341 157.981 584.617 171.947C643.927 185.92 686.271 212.412 699.84 256.395C754.583 433.837 646.713 624.754 458.751 682.743C270.79 740.732 74.1061 643.774 19.3627 466.331Z" stroke="url(#paint3_angular_3002_2039)" stroke-width="2.03263"/>
<path d="M21.4766 479.573C-7.57068 398.04 -69.1421 359.152 -108.272 334.437C-111.438 332.438 -114.457 330.531 -117.3 328.702C-126.826 322.573 -134.281 317.377 -138.731 312.518C-140.949 310.097 -142.355 307.827 -142.932 305.638C-143.499 303.483 -143.282 301.334 -142.115 299.072C-140.932 296.78 -138.757 294.346 -135.363 291.715C-131.974 289.088 -127.42 286.304 -121.545 283.296C-109.794 277.278 -92.8663 270.416 -69.6551 262.147C23.1784 229.074 198.285 179.983 357.968 161.092C437.817 151.646 513.734 149.761 573.556 161.165C633.411 172.577 676.855 197.225 692.302 240.583C754.621 415.508 655.056 610.886 469.761 676.9C284.466 742.913 83.7959 654.498 21.4766 479.573Z" stroke="url(#paint4_angular_3002_2039)" stroke-width="2.03263"/>
<path d="M23.8649 491.412C-8.31708 411.064 -71.3478 374.589 -111.405 351.408C-114.646 349.532 -117.737 347.744 -120.649 346.026C-130.404 340.271 -138.055 335.367 -142.69 330.684C-145 328.351 -146.493 326.137 -147.154 323.972C-147.804 321.841 -147.671 319.685 -146.592 317.38C-145.499 315.043 -143.42 312.527 -140.13 309.766C-136.845 307.011 -132.402 304.053 -126.648 300.819C-115.139 294.351 -98.4896 286.839 -75.616 277.677C15.8675 241.034 188.942 185.201 347.774 160.142C427.198 147.612 502.985 142.789 563.204 151.869C623.456 160.955 667.821 183.902 684.935 226.63C753.979 399.012 662.053 598.097 479.452 671.235C296.852 744.373 92.9096 663.793 23.8649 491.412Z" stroke="url(#paint5_angular_3002_2039)" stroke-width="2.03263"/>
<path d="M26.8076 503.519C-8.55764 424.521 -72.9949 390.592 -113.946 369.029C-117.26 367.284 -120.419 365.621 -123.397 364.021C-133.375 358.66 -141.216 354.065 -146.034 349.571C-148.435 347.332 -150.015 345.18 -150.762 343.043C-151.497 340.939 -151.45 338.78 -150.464 336.433C-149.465 334.055 -147.488 331.457 -144.311 328.568C-141.139 325.683 -136.817 322.55 -131.197 319.089C-119.956 312.167 -103.62 303.995 -81.1301 293.927C8.81703 253.661 179.524 190.96 337.228 159.577C416.088 143.885 491.622 136.039 552.155 142.707C612.722 149.379 657.968 170.536 676.775 212.547C752.649 382.033 668.747 584.631 489.213 665.003C309.68 745.376 102.682 673.005 26.8076 503.519Z" stroke="url(#paint6_angular_3002_2039)" stroke-width="2.03263"/>
<path d="M29.6222 513.49C-8.34748 435.71 -73.8761 403.94 -115.521 383.75C-118.891 382.116 -122.104 380.558 -125.133 379.058C-135.283 374.032 -143.273 369.7 -148.237 365.369C-150.711 363.21 -152.363 361.112 -153.18 359.001C-153.984 356.923 -154.009 354.763 -153.101 352.385C-152.182 349.975 -150.292 347.313 -147.213 344.319C-144.138 341.331 -139.923 338.056 -134.421 334.41C-123.416 327.118 -107.36 318.409 -85.2175 307.6C3.34251 264.367 171.873 196.031 328.448 159.428C406.743 141.125 481.974 130.774 542.696 135.428C603.451 140.084 649.374 159.728 669.566 201.09C751.028 367.963 673.902 573.236 497.137 659.527C320.371 745.818 111.084 680.363 29.6222 513.49Z" stroke="url(#paint7_angular_3002_2039)" stroke-width="2.03263"/>
<path d="M34.1415 527.36C-7.42351 451.441 -74.366 422.77 -116.91 404.549C-120.352 403.074 -123.634 401.668 -126.73 400.312C-137.105 395.765 -145.288 391.812 -150.45 387.717C-153.022 385.677 -154.769 383.658 -155.684 381.587C-156.585 379.55 -156.71 377.393 -155.915 374.975C-155.109 372.525 -153.346 369.777 -150.41 366.643C-147.479 363.514 -143.422 360.046 -138.096 356.147C-127.444 348.348 -111.813 338.898 -90.1997 327.065C-3.75804 279.739 161.392 203.597 316.085 159.713C393.438 137.769 468.103 123.912 528.976 125.721C589.882 127.532 636.675 145.006 658.778 185.379C747.954 348.26 680.51 556.915 507.973 651.377C335.436 745.839 123.317 690.241 34.1415 527.36Z" stroke="url(#paint8_angular_3002_2039)" stroke-width="2.03263"/>
<path d="M38.9659 540.163C-5.88855 466.14 -74.024 440.432 -117.326 424.094C-120.829 422.772 -124.17 421.512 -127.323 420.292C-137.887 416.205 -146.235 412.614 -151.572 408.75C-154.231 406.825 -156.065 404.884 -157.07 402.856C-158.059 400.859 -158.279 398.71 -157.591 396.26C-156.893 393.776 -155.252 390.955 -152.456 387.695C-149.665 384.44 -145.764 380.797 -140.615 376.668C-130.315 368.41 -115.113 358.283 -94.0397 345.514C-9.75668 294.442 151.896 211.131 304.515 160.505C380.831 135.189 454.817 118.072 515.71 117.21C576.637 116.347 624.151 131.753 648.004 171.118C744.237 329.931 686.009 541.343 517.78 643.281C349.552 745.219 135.199 698.977 38.9659 540.163Z" stroke="url(#paint9_angular_3002_2039)" stroke-width="2.03263"/>
<path d="M44.5104 553.102C-3.63826 481.177 -72.8643 458.57 -116.859 444.203C-120.419 443.04 -123.813 441.932 -127.018 440.855C-137.755 437.249 -146.257 434.038 -151.762 430.419C-154.506 428.616 -156.426 426.76 -157.521 424.779C-158.599 422.829 -158.916 420.692 -158.339 418.213C-157.754 415.701 -156.242 412.808 -153.596 409.425C-150.954 406.048 -147.222 402.232 -142.264 397.876C-132.347 389.161 -117.618 378.358 -97.1421 364.651C-15.2492 309.829 142.48 219.309 292.659 161.849C367.756 133.116 440.894 112.677 501.686 109.069C562.512 105.459 610.673 118.704 636.278 156.953C739.578 311.263 690.948 525.087 527.49 634.511C364.032 743.935 147.811 707.412 44.5104 553.102Z" stroke="url(#paint10_angular_3002_2039)" stroke-width="2.03263"/>
<path d="M50.595 565.703C-0.731249 496.01 -70.9016 476.531 -115.497 464.151C-119.105 463.149 -122.545 462.194 -125.795 461.263C-136.683 458.142 -145.321 455.316 -150.983 451.947C-153.804 450.268 -155.806 448.501 -156.989 446.571C-158.153 444.671 -158.566 442.551 -158.1 440.048C-157.629 437.512 -156.248 434.554 -153.756 431.056C-151.269 427.564 -147.711 423.585 -142.954 419.01C-133.438 409.86 -119.208 398.407 -99.3675 383.795C-20.0159 325.356 133.494 227.852 280.945 163.714C354.678 131.641 426.825 107.943 487.395 101.611C547.998 95.2762 596.703 106.349 623.998 143.41C734.116 292.932 695.125 508.722 536.74 625.367C378.354 742.013 160.713 715.224 50.595 565.703Z" stroke="url(#paint11_angular_3002_2039)" stroke-width="2.03263"/>
<path d="M57.2597 578.056C2.84996 510.743 -68.1258 494.44 -113.233 484.079C-116.882 483.241 -120.362 482.442 -123.65 481.657C-134.668 479.029 -143.424 476.595 -149.232 473.484C-152.126 471.934 -154.205 470.258 -155.474 468.384C-156.723 466.538 -157.23 464.439 -156.878 461.918C-156.521 459.363 -155.274 456.346 -152.943 452.739C-150.615 449.139 -147.24 445.004 -142.693 440.22C-133.598 430.65 -119.898 418.569 -100.735 403.079C-24.093 341.129 124.875 236.818 269.291 166.11C341.506 130.753 412.514 103.832 472.738 94.7822C532.994 85.727 582.149 94.597 611.083 130.393C727.816 274.809 698.574 492.134 545.597 615.788C392.619 739.441 173.993 722.472 57.2597 578.056Z" stroke="url(#paint12_angular_3002_2039)" stroke-width="2.03263"/>
<path d="M64.2349 589.717C6.94496 524.838 -64.6735 511.642 -110.189 503.255C-113.871 502.577 -117.383 501.93 -120.702 501.29C-131.824 499.144 -140.677 497.093 -146.615 494.238C-149.574 492.816 -151.724 491.232 -153.074 489.414C-154.402 487.625 -155 485.55 -154.758 483.016C-154.512 480.448 -153.399 477.38 -151.226 473.675C-149.057 469.976 -145.866 465.698 -141.531 460.721C-132.862 450.764 -119.701 438.098 -101.231 421.788C-27.3602 356.558 116.923 245.857 258.122 168.927C328.728 130.457 398.497 100.47 458.269 88.8052C518.074 77.1341 567.568 83.8546 598.034 118.356C720.947 257.551 701.198 475.944 553.752 606.143C406.306 736.342 187.147 728.911 64.2349 589.717Z" stroke="url(#paint13_angular_3002_2039)" stroke-width="2.03263"/>
<path d="M70.0473 598.629C10.5778 535.742 -61.449 524.996 -107.224 518.167C-110.927 517.614 -114.459 517.088 -117.798 516.561C-128.987 514.796 -137.905 513.048 -143.937 510.397C-146.943 509.077 -149.145 507.567 -150.556 505.797C-151.944 504.054 -152.613 502 -152.457 499.459C-152.299 496.884 -151.291 493.78 -149.246 490.003C-147.205 486.233 -144.161 481.848 -139.999 476.726C-131.674 466.479 -118.953 453.371 -101.05 436.441C-29.4469 368.73 110.977 253.172 249.47 171.471C318.723 130.616 387.428 98.2661 446.768 84.5696C506.14 70.8655 555.834 75.894 587.46 109.337C715.048 244.258 702.759 463.197 559.84 598.35C416.92 733.502 197.636 733.55 70.0473 598.629Z" stroke="url(#paint14_angular_3002_2039)" stroke-width="2.03263"/>
<path d="M78.2198 610.135C15.9662 550.003 -56.473 542.527 -102.51 537.775C-106.235 537.391 -109.786 537.025 -113.146 536.649C-124.403 535.392 -133.391 534.05 -139.537 531.675C-142.599 530.491 -144.868 529.083 -146.357 527.378C-147.823 525.7 -148.584 523.678 -148.543 521.133C-148.502 518.554 -147.635 515.407 -145.763 511.542C-143.895 507.683 -141.052 503.165 -137.126 497.859C-129.274 487.247 -117.158 473.577 -100.04 455.854C-31.573 384.973 103.479 263.181 238.134 175.298C305.468 131.352 372.64 95.9268 431.299 79.5598C489.99 63.1838 539.861 65.959 572.967 97.9368C706.529 226.948 704.157 446.219 567.498 587.698C430.839 729.178 211.781 739.146 78.2198 610.135Z" stroke="url(#paint15_angular_3002_2039)" stroke-width="2.03263"/>
<path d="M85.5643 619.61C21.0462 561.914 -51.6269 557.226 -97.8124 554.248C-101.549 554.007 -105.112 553.777 -108.484 553.531C-119.781 552.707 -128.814 551.711 -135.046 549.574C-138.152 548.509 -140.473 547.189 -142.027 545.543C-143.556 543.922 -144.394 541.931 -144.451 539.387C-144.509 536.808 -143.764 533.63 -142.042 529.695C-140.323 525.767 -137.656 521.144 -133.937 515.691C-126.498 504.785 -114.917 490.659 -98.4917 472.292C-32.7993 398.832 97.4732 271.941 228.652 178.948C294.248 132.447 360.008 94.4677 417.995 75.8588C476.014 57.2396 525.955 58.0965 560.265 88.7786C698.685 212.562 704.741 431.763 573.619 578.389C442.497 725.015 223.985 743.393 85.5643 619.61Z" stroke="url(#paint16_angular_3002_2039)" stroke-width="2.03263"/>
<path d="M94.0311 629.668C27.1389 574.742 -45.6671 573.122 -91.9372 572.092C-95.6807 572.008 -99.2505 571.929 -102.629 571.825C-113.951 571.479 -123.018 570.864 -129.335 568.992C-132.483 568.059 -134.857 566.838 -136.479 565.258C-138.075 563.703 -138.996 561.749 -139.161 559.209C-139.327 556.635 -138.717 553.428 -137.162 549.425C-135.61 545.428 -133.14 540.696 -129.654 535.092C-122.682 523.882 -111.706 509.281 -96.0696 490.238C-33.5313 414.074 91.278 281.806 218.421 183.368C281.999 134.144 346.101 93.4267 403.252 72.3907C460.434 51.3431 510.367 50.0946 545.94 79.3035C689.453 197.144 704.741 415.894 579.915 567.916C455.089 719.937 237.545 747.508 94.0311 629.668Z" stroke="url(#paint17_angular_3002_2039)" stroke-width="2.03263"/>
<path d="M104.288 640.786C34.8111 589.167 -37.9879 591.078 -84.2534 592.293C-87.9966 592.391 -91.566 592.485 -94.9461 592.545C-106.271 592.748 -115.357 592.574 -121.758 591.01C-124.947 590.23 -127.378 589.126 -129.074 587.627C-130.744 586.151 -131.759 584.244 -132.046 581.715C-132.337 579.152 -131.883 575.92 -130.524 571.845C-129.168 567.778 -126.93 562.932 -123.72 557.165C-117.299 545.63 -107.044 530.514 -92.3494 510.736C-33.577 431.63 84.6731 293.466 206.895 188.98C268.011 136.732 330.063 92.9546 386.128 69.1726C442.222 45.3775 492.036 41.7097 528.983 69.1597C678.041 179.904 703.916 397.656 586.606 555.55C469.297 713.445 253.345 751.53 104.288 640.786Z" stroke="url(#paint18_angular_3002_2039)" stroke-width="2.03263"/>
<path d="M115.215 651.53C43.2872 603.386 -29.33 608.871 -75.4801 612.357C-79.2139 612.639 -82.7744 612.907 -86.1474 613.134C-97.4486 613.892 -106.533 614.165 -113.002 612.917C-116.226 612.295 -118.708 611.311 -120.476 609.897C-122.216 608.506 -123.323 606.651 -123.734 604.139C-124.151 601.593 -123.856 598.342 -122.699 594.206C-121.544 590.077 -119.548 585.127 -116.625 579.21C-110.778 567.373 -101.278 551.772 -87.5723 531.295C-32.7564 449.398 78.5645 305.593 195.506 195.229C253.983 140.042 313.81 93.27 368.638 66.7629C423.496 40.2412 473.07 34.131 511.32 59.7331C665.638 163.022 702.177 379.24 592.765 542.706C483.353 706.172 269.533 754.818 115.215 651.53Z" stroke="url(#paint19_angular_3002_2039)" stroke-width="2.03263"/>
<path d="M127.821 662.706C53.3982 618.516 -18.8169 627.914 -64.7114 633.886C-68.4246 634.369 -71.9654 634.83 -75.3213 635.238C-86.565 636.606 -95.621 637.368 -102.148 636.472C-105.401 636.025 -107.933 635.177 -109.774 633.86C-111.587 632.564 -112.793 630.772 -113.339 628.286C-113.893 625.767 -113.774 622.505 -112.842 618.312C-111.911 614.127 -110.185 609.076 -107.586 603.009C-102.386 590.874 -93.7429 574.783 -81.1629 553.596C-30.8491 468.859 72.5447 319.253 183.357 202.736C238.768 144.471 295.982 94.5372 349.299 65.1083C402.646 35.6632 451.817 26.8852 491.394 50.3846C651.063 145.19 699.224 359.12 598.798 528.256C498.372 697.391 287.49 757.511 127.821 662.706Z" stroke="url(#paint20_angular_3002_2039)" stroke-width="2.03263"/>
<path d="M140.467 672.774C63.8553 632.5 -7.77598 645.626 -53.2994 653.968C-56.9825 654.643 -60.4947 655.287 -63.8249 655.868C-74.9827 657.817 -83.9871 659.047 -90.5521 658.49C-93.8234 658.212 -96.3958 657.496 -98.3032 656.277C-100.18 655.077 -101.478 653.35 -102.152 650.895C-102.835 648.408 -102.886 645.144 -102.172 640.909C-101.46 636.681 -99.9972 631.548 -97.7158 625.354C-93.1523 612.966 -85.354 596.449 -73.8886 574.638C-28.0325 487.408 67.4714 332.646 172.098 210.545C224.416 149.488 278.967 96.6566 330.687 64.5049C382.437 32.3355 431.087 21.0218 471.828 42.4392C636.195 128.845 695.375 339.993 603.846 514.104C512.318 688.215 304.834 759.18 140.467 672.774Z" stroke="url(#paint21_angular_3002_2039)" stroke-width="2.03263"/>
<path d="M152.315 681.288C73.9035 644.64 2.96443 661.102 -42.1191 671.564C-45.7666 672.41 -49.2449 673.217 -52.5443 673.954C-63.5987 676.422 -72.5357 678.072 -79.1196 677.822C-82.4003 677.698 -85.0033 677.103 -86.9658 675.974C-88.897 674.863 -90.2735 673.199 -91.0619 670.778C-91.861 668.326 -92.0636 665.068 -91.5489 660.804C-91.035 656.547 -89.8143 651.351 -87.8249 645.058C-83.8457 632.47 -76.8284 615.606 -66.3954 593.283C-24.6685 504.004 63.4939 344.946 162.296 218.085C211.702 154.648 263.722 99.3241 313.883 64.789C364.071 30.2349 412.139 16.6586 453.838 36.1474C622.065 114.773 691.054 322.922 607.768 501.123C524.481 679.323 320.543 759.913 152.315 681.288Z" stroke="url(#paint22_angular_3002_2039)" stroke-width="2.03263"/>
<path d="M163.054 688.311C83.2018 654.92 12.9998 674.285 -31.6152 686.593C-35.2248 687.588 -38.6669 688.538 -41.9331 689.41C-52.8768 692.33 -61.7383 694.347 -68.3269 694.368C-71.61 694.379 -74.2353 693.891 -76.2425 692.844C-78.2178 691.814 -79.6616 690.207 -80.5489 687.821C-81.4482 685.403 -81.7846 682.156 -81.4457 677.875C-81.1073 673.601 -80.1013 668.359 -78.3726 661.989C-74.9145 649.248 -68.5967 632.11 -59.0908 609.377C-21.0715 518.457 60.4739 355.907 153.975 225.09C200.73 159.675 250.43 102.257 299.128 65.6882C347.852 29.099 395.321 13.557 437.786 31.3142C609.105 102.953 686.597 308.089 610.711 489.565C534.825 671.04 334.374 759.95 163.054 688.311Z" stroke="url(#paint23_angular_3002_2039)" stroke-width="2.03263"/>
<path d="M175.751 695.834C94.4081 666.257 25.2007 688.922 -18.7822 703.326C-22.3407 704.491 -25.734 705.603 -28.9553 706.628C-39.7486 710.063 -48.5048 712.496 -55.085 712.829C-58.3639 712.995 -61.0093 712.633 -63.0638 711.681C-65.0856 710.745 -66.6038 709.209 -67.603 706.868C-68.6157 704.495 -69.1053 701.268 -68.9693 696.975C-68.8335 692.69 -68.0766 687.406 -66.651 680.962C-63.7995 668.072 -58.2995 650.653 -49.8795 627.496C-16.2035 534.88 57.5615 368.654 144.77 233.561C188.378 166.007 235.307 106.303 282.22 67.4716C329.159 28.6186 375.84 10.8486 419.097 26.5772C593.613 90.0324 680.722 291.273 613.505 476.135C546.288 660.997 350.267 759.289 175.751 695.834Z" stroke="url(#paint24_angular_3002_2039)" stroke-width="2.03263"/>
<path d="M187.431 702.064C104.907 675.966 36.7233 701.547 -6.60878 717.804C-10.1146 719.119 -13.4577 720.374 -16.6327 721.535C-27.2704 725.425 -35.9155 728.227 -42.4756 728.839C-45.7446 729.144 -48.403 728.894 -50.496 728.031C-52.5557 727.182 -54.1377 725.711 -55.2353 723.414C-56.3477 721.087 -56.9739 717.883 -57.0201 713.589C-57.0663 709.301 -56.5343 703.99 -55.3835 697.491C-53.0815 684.492 -48.3255 666.856 -40.8957 643.362C-11.18 549.4 55.4652 380.194 136.862 241.522C177.565 172.179 221.918 110.538 267.142 69.7502C312.39 28.9404 358.274 9.20564 402.16 23.0845C579.212 79.0775 674.781 276.44 615.469 463.988C556.156 651.536 364.483 758.057 187.431 702.064Z" stroke="url(#paint25_angular_3002_2039)" stroke-width="2.03263"/>
<path d="M199.194 707.716C115.65 685.093 48.5964 713.504 5.98233 731.559C2.53465 733.02 -0.753071 734.413 -3.87661 735.706C-14.3423 740.037 -22.8626 743.199 -29.3914 744.085C-32.6447 744.526 -35.3112 744.388 -37.4385 743.613C-39.532 742.851 -41.1741 741.447 -42.3668 739.199C-43.5757 736.92 -44.3353 733.745 -44.5612 729.456C-44.7866 725.175 -44.4773 719.846 -43.5993 713.305C-41.8432 700.22 -37.8292 682.401 -31.3887 658.617C-5.62982 563.494 53.8785 391.648 129.403 249.692C167.169 178.707 208.905 115.264 252.382 72.6207C295.884 29.9537 340.903 8.31676 385.33 20.3476C564.57 68.8848 668.312 262.077 616.897 451.942C565.482 641.806 378.433 756.253 199.194 707.716Z" stroke="url(#paint26_angular_3002_2039)" stroke-width="2.03263"/>
<path d="M210.581 712.625C126.203 693.34 60.3321 724.393 18.4693 744.129C15.0825 745.725 11.8527 747.248 8.783 748.664C-1.50229 753.408 -9.89015 756.906 -16.3786 758.05C-19.6118 758.621 -22.2817 758.588 -24.4381 757.899C-26.5602 757.22 -28.2569 755.883 -29.538 753.684C-30.8365 751.455 -31.7217 748.313 -32.1178 744.036C-32.5133 739.767 -32.4159 734.43 -31.7987 727.859C-30.564 714.715 -27.2614 696.75 -21.7713 672.729C0.186537 576.658 52.8178 402.583 122.641 257.737C157.556 185.307 196.737 120.255 238.485 75.9174C280.256 31.5552 324.379 8.14599 369.25 18.4015C550.277 59.7764 661.616 248.692 617.788 440.451C573.96 632.209 391.607 754 210.581 712.625Z" stroke="url(#paint27_angular_3002_2039)" stroke-width="2.03263"/>
<path d="M221.621 716.885C136.573 700.815 71.9272 734.345 30.8433 755.654C27.5194 757.378 24.3497 759.022 21.3359 760.553C11.238 765.684 2.9889 769.498 -3.45146 770.888C-6.6607 771.58 -9.32994 771.649 -11.5109 771.042C-13.6572 770.444 -15.4034 769.173 -16.767 767.024C-18.1491 764.845 -19.1529 761.739 -19.711 757.481C-20.2681 753.23 -20.3733 747.893 -20.0058 741.303C-19.2707 728.122 -16.6519 710.045 -12.077 685.833C6.22039 588.997 52.21 413.051 116.488 265.66C148.63 191.958 185.315 125.467 225.351 79.5772C265.409 33.6623 308.613 8.59606 353.84 17.142C536.306 51.6196 654.731 236.176 618.21 429.459C581.688 622.742 404.087 751.363 221.621 716.885Z" stroke="url(#paint28_angular_3002_2039)" stroke-width="2.03263"/>
<path d="M230 719.802C144.529 706.158 80.8635 741.513 40.4022 763.982C37.1287 765.8 34.0071 767.533 31.0381 769.15C21.0902 774.566 12.9529 778.612 6.55466 780.185C3.36642 780.969 0.700223 781.113 -1.49714 780.568C-3.6596 780.032 -5.44122 778.811 -6.86542 776.701C-8.30893 774.563 -9.40062 771.487 -10.0796 767.246C-10.7574 763.012 -11.0143 757.681 -10.8344 751.083C-10.4745 737.886 -8.37102 719.742 -4.48661 695.41C11.0492 598.093 52.0158 420.91 112.075 271.751C142.108 197.164 176.887 129.656 215.602 82.6463C254.338 35.6106 296.811 9.32574 342.263 16.5818C525.636 45.8557 649.263 226.969 618.253 421.212C587.244 615.456 413.373 749.076 230 719.802Z" stroke="url(#paint29_angular_3002_2039)" stroke-width="2.03263"/>
<path d="M239.55 722.806C153.685 711.912 91.1868 749.292 51.4675 773.048C48.2541 774.97 45.1897 776.803 42.2741 778.513C32.5051 784.246 24.5019 788.552 18.1574 790.329C14.996 791.214 12.3358 791.445 10.1221 790.97C7.9435 790.504 6.1236 789.34 4.63243 787.277C3.12104 785.187 1.9312 782.147 1.11645 777.93C0.303133 773.721 -0.124759 768.4 -0.156667 761.8C-0.220457 748.598 1.29964 730.396 4.40118 705.951C16.8058 608.186 52.0651 429.779 107.307 278.77C134.93 203.258 167.525 134.669 204.711 86.4405C241.918 38.1859 283.526 10.5515 329.187 16.3452C513.405 39.7191 642.78 216.772 618.021 411.91C593.261 607.049 423.768 746.18 239.55 722.806Z" stroke="url(#paint30_angular_3002_2039)" stroke-width="2.03263"/>
<path d="M249.971 725.706C163.78 717.795 102.615 757.32 63.7433 782.438C60.5984 784.471 57.5994 786.409 54.7449 788.22C45.1806 794.287 37.3314 798.868 31.0524 800.864C27.9236 801.859 25.273 802.181 23.0441 801.784C20.8507 801.393 18.9915 800.293 17.4298 798.283C15.8468 796.246 14.5523 793.25 13.5918 789.064C12.633 784.885 12.0209 779.582 11.7602 772.987C11.2387 759.796 12.1267 741.551 14.3788 717.014C23.3861 618.878 52.4382 439.356 102.411 286.522C127.4 210.097 157.596 140.419 193.088 90.9305C228.599 41.4148 269.223 12.3544 315.059 16.5613C499.976 33.5337 635.413 205.994 617.434 401.874C599.455 597.753 434.888 742.678 249.971 725.706Z" stroke="url(#paint31_angular_3002_2039)" stroke-width="2.03263"/>
<path d="M258.845 727.872C172.46 722.488 112.479 763.787 74.3591 790.034C71.2751 792.158 68.3341 794.182 65.5338 796.076C56.1513 802.421 48.4397 807.23 42.2218 809.409C39.1235 810.495 36.4834 810.895 34.2439 810.563C32.04 810.236 30.1494 809.192 28.5294 807.228C26.8875 805.239 25.5058 802.281 24.4231 798.125C23.3424 793.976 22.5752 788.694 22.1215 782.109C21.2138 768.939 21.5672 750.676 23.0997 726.084C29.2292 627.726 53.0113 447.429 98.4866 293.197C121.226 216.074 149.37 145.541 183.397 95.0348C217.442 44.5003 257.198 14.2626 303.137 17.1254C488.472 28.675 628.901 197.095 616.667 393.417C604.433 589.739 444.18 739.421 258.845 727.872Z" stroke="url(#paint32_angular_3002_2039)" stroke-width="2.03263"/>
<path d="M268.139 729.848C181.629 727.098 122.934 770.205 85.6318 797.6C82.6139 799.817 79.736 801.93 76.9947 803.909C67.8098 810.537 60.2482 815.578 54.0996 817.945C51.0357 819.125 48.4091 819.605 46.1606 819.342C43.9477 819.083 42.0262 818.096 40.3471 816.183C38.6454 814.244 37.1742 811.33 35.9655 807.209C34.7588 803.095 33.8312 797.838 33.177 791.271C31.8687 778.134 31.6656 759.869 32.4484 735.241C35.579 636.742 53.8584 455.805 94.6147 300.259C114.995 222.479 140.977 151.122 173.45 99.6024C205.94 48.0544 244.757 16.6197 290.761 18.0819C476.362 23.981 621.856 188.045 615.607 384.649C609.359 581.253 453.74 735.747 268.139 729.848Z" stroke="url(#paint33_angular_3002_2039)" stroke-width="2.03263"/>
<path d="M276.854 731.434C190.302 731.142 132.854 775.899 96.3447 804.342C93.391 806.644 90.5742 808.838 87.8902 810.893C78.8972 817.779 71.4819 823.033 65.4029 825.575C62.3738 826.841 59.7619 827.395 57.5067 827.196C55.2874 827 53.3386 826.068 51.606 824.203C49.8498 822.313 48.2965 819.443 46.9712 815.357C45.6482 811.279 44.5717 806.051 43.7313 799.505C42.0504 786.41 41.3288 768.159 41.4119 743.518C41.7442 644.97 54.8782 463.587 91.2011 306.947C109.364 228.619 133.309 156.553 164.306 104.132C195.32 51.6823 233.228 19.158 279.256 19.3133C464.949 19.9395 615.043 179.806 614.38 376.508C613.717 573.21 462.548 732.061 276.854 731.434Z" stroke="url(#paint34_angular_3002_2039)" stroke-width="2.03263"/>
<path d="M286.167 732.849C199.645 735.171 143.575 781.642 107.941 811.175C105.058 813.565 102.309 815.843 99.6884 817.979C90.9075 825.133 83.6542 830.609 77.6548 833.332C74.6653 834.689 72.0713 835.322 69.8111 835.191C67.5869 835.062 65.6109 834.189 63.8227 832.378C62.0103 830.542 60.371 827.72 58.9229 823.676C57.4774 819.64 56.2435 814.447 55.2058 807.929C53.1302 794.891 51.8577 776.669 51.1967 752.038C48.5529 653.525 56.2034 471.828 87.7794 314.162C103.569 235.322 125.327 162.565 154.726 109.232C184.142 55.8696 221.051 22.2154 267.062 20.9806C452.69 15.9989 607.543 171.26 612.82 367.892C618.098 564.524 471.795 727.868 286.167 732.849Z" stroke="url(#paint35_angular_3002_2039)" stroke-width="2.03263"/>
<path d="M297.094 734.145C210.708 739.518 156.313 787.938 121.743 818.71C118.946 821.199 116.279 823.573 113.735 825.8C105.212 833.26 98.1564 838.988 92.2568 841.921C89.3171 843.383 86.747 844.107 84.4836 844.056C82.2562 844.005 80.2507 843.203 78.3997 841.456C76.5236 839.685 74.7858 836.922 73.196 832.932C71.609 828.949 70.1926 823.803 68.9257 817.325C66.3915 804.369 64.477 786.204 62.9475 761.611C56.8301 663.252 58.0663 481.398 84.0609 322.717C97.0594 243.369 116.237 169.89 143.737 115.553C171.252 61.186 206.951 26.2508 252.89 23.3936C438.226 11.8668 598.46 161.569 610.671 357.892C622.881 554.216 482.431 722.619 297.094 734.145Z" stroke="url(#paint36_angular_3002_2039)" stroke-width="2.03263"/>
<path d="M308.741 735.099C222.616 743.704 170.073 794.127 136.68 826.172C133.978 828.765 131.402 831.237 128.943 833.557C120.706 841.331 113.869 847.319 108.084 850.471C105.201 852.042 102.66 852.862 100.396 852.896C98.1683 852.929 96.1341 852.202 94.2189 850.525C92.2779 848.826 90.4378 846.13 88.6997 842.203C86.9646 838.282 85.3564 833.192 83.8478 826.767C80.8301 813.914 78.2365 795.834 75.7869 771.315C65.9897 673.255 60.4136 491.482 80.4463 331.939C90.4637 252.159 106.876 178.014 132.321 122.685C157.781 67.3253 192.145 31.0775 237.945 26.5016C422.72 8.04093 588.449 151.636 608.004 347.365C627.559 543.093 493.516 716.638 308.741 735.099Z" stroke="url(#paint37_angular_3002_2039)" stroke-width="2.03263"/>
<path d="M321.472 735.64C235.771 747.755 185.331 800.282 153.275 833.665C150.681 836.366 148.208 838.941 145.846 841.36C137.933 849.463 131.347 855.726 125.695 859.112C122.879 860.799 120.373 861.722 118.113 861.848C115.888 861.972 113.826 861.329 111.844 859.732C109.835 858.114 107.886 855.495 105.989 851.642C104.096 847.795 102.281 842.776 100.511 836.417C96.9709 823.699 93.641 805.739 90.192 781.341C76.3976 683.762 63.4015 502.37 76.9009 342.141C83.6513 262.019 97.0212 187.265 120.185 130.943C143.362 74.5895 176.218 36.9683 221.793 30.5256C405.659 4.53305 577.115 141.239 604.648 336.006C632.182 530.772 505.339 709.647 321.472 735.64Z" stroke="url(#paint38_angular_3002_2039)" stroke-width="2.03263"/>
<path d="M333.602 735.672C248.437 751.11 200.078 805.559 169.344 840.163C166.857 842.962 164.486 845.632 162.22 848.141C154.628 856.546 148.291 863.06 142.775 866.663C140.026 868.459 137.558 869.479 135.304 869.692C133.086 869.903 131.001 869.34 128.958 867.822C126.888 866.282 124.839 863.742 122.793 859.965C120.751 856.195 118.743 851.25 116.727 844.965C112.695 832.394 108.669 814.577 104.274 790.332C86.6958 693.363 66.6558 512.613 73.9142 351.981C77.5438 271.656 87.9967 196.439 108.953 139.259C129.921 82.0472 161.289 43.1768 206.579 34.9667C389.296 1.84389 565.938 131.779 601.024 325.328C636.11 518.876 516.319 702.549 333.602 735.672Z" stroke="url(#paint39_angular_3002_2039)" stroke-width="2.03263"/>
<path d="M347.979 735.098C263.616 754.448 217.819 811.069 188.714 847.053C186.359 849.964 184.113 852.741 181.965 855.351C174.769 864.098 168.739 870.897 163.395 874.751C160.732 876.671 158.314 877.803 156.072 878.121C153.866 878.433 151.757 877.968 149.646 876.545C147.507 875.103 145.343 872.659 143.126 868.981C140.912 865.309 138.678 860.462 136.374 854.277C131.767 841.905 126.924 824.292 121.415 800.276C99.384 704.221 71.0301 524.587 70.8734 363.791C70.7951 283.385 77.7682 207.766 96.0656 149.68C114.373 91.5619 143.915 51.2863 188.778 40.9964C369.773 -0.516921 552.219 121.134 596.193 312.859C640.168 504.584 528.974 693.585 347.979 735.098Z" stroke="url(#paint40_angular_3002_2039)" stroke-width="2.03263"/>
<path d="M362.005 733.895C278.601 757.032 235.406 815.662 207.954 852.923C205.733 855.937 203.615 858.812 201.587 861.517C194.792 870.579 189.075 877.643 183.91 881.734C181.337 883.773 178.972 885.013 176.747 885.432C174.558 885.843 172.429 885.473 170.257 884.147C168.055 882.803 165.783 880.459 163.402 876.885C161.025 873.317 158.574 868.575 155.994 862.5C150.833 850.349 145.2 832.973 138.613 809.23C112.27 714.267 75.8394 536.095 68.4272 375.47C64.7208 295.149 68.2747 219.292 83.9324 160.44C99.5988 101.555 127.293 59.9877 171.646 47.684C350.584 -1.95411 538.333 111.341 590.914 300.886C643.495 490.431 540.942 684.257 362.005 733.895Z" stroke="url(#paint41_angular_3002_2039)" stroke-width="2.03263"/>
<path d="M374.051 732.35C291.611 758.716 250.731 818.984 224.75 857.285C222.648 860.384 220.644 863.339 218.723 866.12C212.286 875.44 206.849 882.722 201.847 887.011C199.355 889.148 197.04 890.48 194.833 890.984C192.661 891.481 190.52 891.194 188.298 889.953C186.045 888.696 183.684 886.443 181.165 882.964C178.651 879.491 176.017 874.848 173.203 868.878C167.572 856.937 161.267 839.794 153.761 816.325C123.741 722.459 80.4013 545.841 66.7411 385.626C59.9103 305.511 60.5082 229.573 73.8628 170.156C87.2247 110.706 113.28 68.0915 157.12 54.0703C333.989 -2.49679 526.007 103.402 585.928 290.757C645.848 478.111 550.92 675.783 374.051 732.35Z" stroke="url(#paint42_angular_3002_2039)" stroke-width="2.03263"/>
<path d="M384.1 730.694C302.565 759.737 263.674 821.307 238.958 860.436C236.958 863.602 235.051 866.621 233.222 869.464C227.093 878.989 221.896 886.444 217.037 890.894C214.616 893.111 212.346 894.518 210.157 895.094C208.002 895.661 205.853 895.445 203.591 894.277C201.299 893.094 198.865 890.919 196.234 887.524C193.608 884.135 190.824 879.581 187.816 873.706C181.799 861.955 174.938 845.027 166.67 821.815C133.601 728.98 84.5186 553.871 65.6353 394.187C56.1928 314.337 54.3114 238.421 65.7191 178.599C77.1331 118.745 101.783 75.3024 145.143 59.8575C320.071 -2.4534 515.444 97.1209 581.448 282.419C647.453 467.718 559.028 668.383 384.1 730.694Z" stroke="url(#paint43_angular_3002_2039)" stroke-width="2.03263"/>
<path d="M394.863 728.543C314.4 760.437 277.7 823.337 254.376 863.312C252.489 866.546 250.689 869.63 248.961 872.535C243.171 882.27 238.239 889.904 233.54 894.522C231.199 896.823 228.98 898.309 226.812 898.962C224.679 899.604 222.523 899.463 220.222 898.376C217.889 897.274 215.38 895.186 212.632 891.886C209.888 888.592 206.945 884.138 203.732 878.373C197.306 866.841 189.853 850.165 180.773 827.258C144.458 735.644 89.2448 562.371 64.7546 403.45C52.5082 323.982 47.9567 248.178 57.2524 187.992C66.5533 127.773 89.6597 83.4908 132.449 66.5298C305.076 -1.89763 503.831 90.7405 576.315 273.602C648.799 456.463 567.49 660.115 394.863 728.543Z" stroke="url(#paint44_angular_3002_2039)" stroke-width="2.03263"/>
<path d="M405.524 726.019C326.231 760.719 291.762 824.869 269.856 865.638C268.084 868.937 266.394 872.082 264.769 875.047C259.325 884.979 254.664 892.781 250.13 897.561C247.87 899.943 245.705 901.506 243.562 902.234C241.452 902.951 239.293 902.886 236.955 901.881C234.585 900.862 232.004 898.863 229.141 895.661C226.284 892.465 223.187 888.118 219.773 882.469C212.945 871.17 204.912 854.765 195.033 832.192C155.523 741.91 94.2589 570.682 64.2027 412.72C49.1732 333.731 41.9623 258.134 49.1387 197.658C56.3191 137.15 77.856 92.0831 120.023 73.6299C290.141 -0.817717 492.027 84.7833 570.888 264.986C649.749 445.189 575.642 651.571 405.524 726.019Z" stroke="url(#paint45_angular_3002_2039)" stroke-width="2.03263"/>
<path d="M416.828 722.905C338.896 760.561 306.863 825.961 286.505 867.525C284.858 870.888 283.287 874.095 281.775 877.118C276.708 887.248 272.344 895.219 267.993 900.167C265.824 902.632 263.719 904.275 261.605 905.084C259.524 905.88 257.364 905.896 254.989 904.979C252.583 904.049 249.929 902.149 246.948 899.057C243.972 895.971 240.714 891.743 237.09 886.226C229.843 875.192 221.198 859.101 210.478 836.915C167.602 748.182 99.9443 579.378 63.9714 422.657C45.9832 344.289 35.9358 269.017 40.8338 208.314C45.7345 147.579 65.5622 101.734 107.006 81.7088C274.205 0.918959 479.166 78.8705 564.745 255.982C650.324 433.093 584.028 642.115 416.828 722.905Z" stroke="url(#paint46_angular_3002_2039)" stroke-width="2.03263"/>
</g>
<defs>
<radialGradient id="paint0_angular_3002_2039" cx="0" cy="0" r="1" gradientUnits="userSpaceOnUse" gradientTransform="translate(327.327 418.18) rotate(-100.346) scale(286.88 405.348)">
<stop stop-color="#2E718E"/>
<stop offset="1" stop-color="#52CBFF" stop-opacity="0"/>
</radialGradient>
<radialGradient id="paint1_angular_3002_2039" cx="0" cy="0" r="1" gradientUnits="userSpaceOnUse" gradientTransform="translate(327.327 418.18) rotate(-102.604) scale(286.88 405.348)">
<stop stop-color="#2E718E"/>
<stop offset="1" stop-color="#52CBFF" stop-opacity="0"/>
</radialGradient>
<radialGradient id="paint2_angular_3002_2039" cx="0" cy="0" r="1" gradientUnits="userSpaceOnUse" gradientTransform="translate(327.327 418.181) rotate(-105.326) scale(286.88 405.348)">
<stop stop-color="#2E718E"/>
<stop offset="1" stop-color="#52CBFF" stop-opacity="0"/>
</radialGradient>
<radialGradient id="paint3_angular_3002_2039" cx="0" cy="0" r="1" gradientUnits="userSpaceOnUse" gradientTransform="translate(328.354 423.814) rotate(-107.146) scale(286.88 405.348)">
<stop stop-color="#2E718E"/>
<stop offset="1" stop-color="#52CBFF" stop-opacity="0"/>
</radialGradient>
<radialGradient id="paint4_angular_3002_2039" cx="0" cy="0" r="1" gradientUnits="userSpaceOnUse" gradientTransform="translate(328.355 423.814) rotate(-109.609) scale(286.88 405.348)">
<stop stop-color="#2E718E"/>
<stop offset="1" stop-color="#52CBFF" stop-opacity="0"/>
</radialGradient>
<radialGradient id="paint5_angular_3002_2039" cx="0" cy="0" r="1" gradientUnits="userSpaceOnUse" gradientTransform="translate(328.355 423.814) rotate(-111.828) scale(286.88 405.348)">
<stop stop-color="#2E718E"/>
<stop offset="1" stop-color="#52CBFF" stop-opacity="0"/>
</radialGradient>
<radialGradient id="paint6_angular_3002_2039" cx="0" cy="0" r="1" gradientUnits="userSpaceOnUse" gradientTransform="translate(328.355 423.814) rotate(-114.117) scale(286.88 405.348)">
<stop stop-color="#2E718E"/>
<stop offset="1" stop-color="#52CBFF" stop-opacity="0"/>
</radialGradient>
<radialGradient id="paint7_angular_3002_2039" cx="0" cy="0" r="1" gradientUnits="userSpaceOnUse" gradientTransform="translate(328.356 423.813) rotate(-116.02) scale(286.88 405.348)">
<stop stop-color="#2E718E"/>
<stop offset="1" stop-color="#52CBFF" stop-opacity="0"/>
</radialGradient>
<radialGradient id="paint8_angular_3002_2039" cx="0" cy="0" r="1" gradientUnits="userSpaceOnUse" gradientTransform="translate(328.355 423.813) rotate(-118.7) scale(286.88 405.348)">
<stop stop-color="#2E718E"/>
<stop offset="1" stop-color="#52CBFF" stop-opacity="0"/>
</radialGradient>
<radialGradient id="paint9_angular_3002_2039" cx="0" cy="0" r="1" gradientUnits="userSpaceOnUse" gradientTransform="translate(328.355 423.813) rotate(-121.214) scale(286.88 405.348)">
<stop stop-color="#2E718E"/>
<stop offset="1" stop-color="#52CBFF" stop-opacity="0"/>
</radialGradient>
<radialGradient id="paint10_angular_3002_2039" cx="0" cy="0" r="1" gradientUnits="userSpaceOnUse" gradientTransform="translate(328.356 423.813) rotate(-123.8) scale(286.88 405.348)">
<stop stop-color="#2E718E"/>
<stop offset="1" stop-color="#52CBFF" stop-opacity="0"/>
</radialGradient>
<radialGradient id="paint11_angular_3002_2039" cx="0" cy="0" r="1" gradientUnits="userSpaceOnUse" gradientTransform="translate(328.356 423.813) rotate(-126.37) scale(286.88 405.348)">
<stop stop-color="#2E718E"/>
<stop offset="1" stop-color="#52CBFF" stop-opacity="0"/>
</radialGradient>
<radialGradient id="paint12_angular_3002_2039" cx="0" cy="0" r="1" gradientUnits="userSpaceOnUse" gradientTransform="translate(328.355 423.813) rotate(-128.949) scale(286.88 405.348)">
<stop stop-color="#2E718E"/>
<stop offset="1" stop-color="#52CBFF" stop-opacity="0"/>
</radialGradient>
<radialGradient id="paint13_angular_3002_2039" cx="0" cy="0" r="1" gradientUnits="userSpaceOnUse" gradientTransform="translate(328.355 423.813) rotate(-131.445) scale(286.88 405.348)">
<stop stop-color="#2E718E"/>
<stop offset="1" stop-color="#52CBFF" stop-opacity="0"/>
</radialGradient>
<radialGradient id="paint14_angular_3002_2039" cx="0" cy="0" r="1" gradientUnits="userSpaceOnUse" gradientTransform="translate(328.355 423.813) rotate(-133.4) scale(286.88 405.348)">
<stop stop-color="#2E718E"/>
<stop offset="1" stop-color="#52CBFF" stop-opacity="0"/>
</radialGradient>
<radialGradient id="paint15_angular_3002_2039" cx="0" cy="0" r="1" gradientUnits="userSpaceOnUse" gradientTransform="translate(328.355 423.813) rotate(-135.993) scale(286.88 405.348)">
<stop stop-color="#2E718E"/>
<stop offset="1" stop-color="#52CBFF" stop-opacity="0"/>
</radialGradient>
<radialGradient id="paint16_angular_3002_2039" cx="0" cy="0" r="1" gradientUnits="userSpaceOnUse" gradientTransform="translate(328.355 423.813) rotate(-138.195) scale(286.88 405.348)">
<stop stop-color="#2E718E"/>
<stop offset="1" stop-color="#52CBFF" stop-opacity="0"/>
</radialGradient>
<radialGradient id="paint17_angular_3002_2039" cx="0" cy="0" r="1" gradientUnits="userSpaceOnUse" gradientTransform="translate(328.355 423.814) rotate(-140.61) scale(286.88 405.348)">
<stop stop-color="#2E718E"/>
<stop offset="1" stop-color="#52CBFF" stop-opacity="0"/>
</radialGradient>
<radialGradient id="paint18_angular_3002_2039" cx="0" cy="0" r="1" gradientUnits="userSpaceOnUse" gradientTransform="translate(328.356 423.813) rotate(-143.389) scale(286.88 405.348)">
<stop stop-color="#2E718E"/>
<stop offset="1" stop-color="#52CBFF" stop-opacity="0"/>
</radialGradient>
<radialGradient id="paint19_angular_3002_2039" cx="0" cy="0" r="1" gradientUnits="userSpaceOnUse" gradientTransform="translate(328.356 423.813) rotate(-146.205) scale(286.88 405.348)">
<stop stop-color="#2E718E"/>
<stop offset="1" stop-color="#52CBFF" stop-opacity="0"/>
</radialGradient>
<radialGradient id="paint20_angular_3002_2039" cx="0" cy="0" r="1" gradientUnits="userSpaceOnUse" gradientTransform="translate(328.355 423.813) rotate(-149.3) scale(286.88 405.348)">
<stop stop-color="#2E718E"/>
<stop offset="1" stop-color="#52CBFF" stop-opacity="0"/>
</radialGradient>
<radialGradient id="paint21_angular_3002_2039" cx="0" cy="0" r="1" gradientUnits="userSpaceOnUse" gradientTransform="translate(328.355 423.813) rotate(-152.27) scale(286.88 405.348)">
<stop stop-color="#2E718E"/>
<stop offset="1" stop-color="#52CBFF" stop-opacity="0"/>
</radialGradient>
<radialGradient id="paint22_angular_3002_2039" cx="0" cy="0" r="1" gradientUnits="userSpaceOnUse" gradientTransform="translate(328.356 423.813) rotate(-154.95) scale(286.88 405.348)">
<stop stop-color="#2E718E"/>
<stop offset="1" stop-color="#52CBFF" stop-opacity="0"/>
</radialGradient>
<radialGradient id="paint23_angular_3002_2039" cx="0" cy="0" r="1" gradientUnits="userSpaceOnUse" gradientTransform="translate(328.355 423.813) rotate(-157.307) scale(286.88 405.348)">
<stop stop-color="#2E718E"/>
<stop offset="1" stop-color="#52CBFF" stop-opacity="0"/>
</radialGradient>
<radialGradient id="paint24_angular_3002_2039" cx="0" cy="0" r="1" gradientUnits="userSpaceOnUse" gradientTransform="translate(328.355 423.813) rotate(-160.018) scale(286.88 405.348)">
<stop stop-color="#2E718E"/>
<stop offset="1" stop-color="#52CBFF" stop-opacity="0"/>
</radialGradient>
<radialGradient id="paint25_angular_3002_2039" cx="0" cy="0" r="1" gradientUnits="userSpaceOnUse" gradientTransform="translate(328.356 423.813) rotate(-162.45) scale(286.88 405.348)">
<stop stop-color="#2E718E"/>
<stop offset="1" stop-color="#52CBFF" stop-opacity="0"/>
</radialGradient>
<radialGradient id="paint26_angular_3002_2039" cx="0" cy="0" r="1" gradientUnits="userSpaceOnUse" gradientTransform="translate(328.355 423.813) rotate(-164.848) scale(286.88 405.347)">
<stop stop-color="#2E718E"/>
<stop offset="1" stop-color="#52CBFF" stop-opacity="0"/>
</radialGradient>
<radialGradient id="paint27_angular_3002_2039" cx="0" cy="0" r="1" gradientUnits="userSpaceOnUse" gradientTransform="translate(328.356 423.812) rotate(-167.126) scale(286.88 405.348)">
<stop stop-color="#2E718E"/>
<stop offset="1" stop-color="#52CBFF" stop-opacity="0"/>
</radialGradient>
<radialGradient id="paint28_angular_3002_2039" cx="0" cy="0" r="1" gradientUnits="userSpaceOnUse" gradientTransform="translate(328.355 423.812) rotate(-169.3) scale(286.88 405.348)">
<stop stop-color="#2E718E"/>
<stop offset="1" stop-color="#52CBFF" stop-opacity="0"/>
</radialGradient>
<radialGradient id="paint29_angular_3002_2039" cx="0" cy="0" r="1" gradientUnits="userSpaceOnUse" gradientTransform="translate(328.355 423.813) rotate(-170.93) scale(286.88 405.348)">
<stop stop-color="#2E718E"/>
<stop offset="1" stop-color="#52CBFF" stop-opacity="0"/>
</radialGradient>
<radialGradient id="paint30_angular_3002_2039" cx="0" cy="0" r="1" gradientUnits="userSpaceOnUse" gradientTransform="translate(328.355 423.812) rotate(-172.769) scale(286.88 405.348)">
<stop stop-color="#2E718E"/>
<stop offset="1" stop-color="#52CBFF" stop-opacity="0"/>
</radialGradient>
<radialGradient id="paint31_angular_3002_2039" cx="0" cy="0" r="1" gradientUnits="userSpaceOnUse" gradientTransform="translate(328.355 423.812) rotate(-174.756) scale(286.88 405.348)">
<stop stop-color="#2E718E"/>
<stop offset="1" stop-color="#52CBFF" stop-opacity="0"/>
</radialGradient>
<radialGradient id="paint32_angular_3002_2039" cx="0" cy="0" r="1" gradientUnits="userSpaceOnUse" gradientTransform="translate(328.355 423.812) rotate(-176.434) scale(286.88 405.347)">
<stop stop-color="#2E718E"/>
<stop offset="1" stop-color="#52CBFF" stop-opacity="0"/>
</radialGradient>
<radialGradient id="paint33_angular_3002_2039" cx="0" cy="0" r="1" gradientUnits="userSpaceOnUse" gradientTransform="translate(328.355 423.812) rotate(-178.18) scale(286.88 405.348)">
<stop stop-color="#2E718E"/>
<stop offset="1" stop-color="#52CBFF" stop-opacity="0"/>
</radialGradient>
<radialGradient id="paint34_angular_3002_2039" cx="0" cy="0" r="1" gradientUnits="userSpaceOnUse" gradientTransform="translate(328.355 423.812) rotate(-179.807) scale(286.88 405.348)">
<stop stop-color="#2E718E"/>
<stop offset="1" stop-color="#52CBFF" stop-opacity="0"/>
</radialGradient>
<radialGradient id="paint35_angular_3002_2039" cx="0" cy="0" r="1" gradientUnits="userSpaceOnUse" gradientTransform="translate(328.355 423.812) rotate(178.463) scale(286.88 405.348)">
<stop stop-color="#2E718E"/>
<stop offset="1" stop-color="#52CBFF" stop-opacity="0"/>
</radialGradient>
<radialGradient id="paint36_angular_3002_2039" cx="0" cy="0" r="1" gradientUnits="userSpaceOnUse" gradientTransform="translate(328.354 423.813) rotate(176.441) scale(286.88 405.348)">
<stop stop-color="#2E718E"/>
<stop offset="1" stop-color="#52CBFF" stop-opacity="0"/>
</radialGradient>
<radialGradient id="paint37_angular_3002_2039" cx="0" cy="0" r="1" gradientUnits="userSpaceOnUse" gradientTransform="translate(328.355 423.813) rotate(174.295) scale(286.88 405.348)">
<stop stop-color="#2E718E"/>
<stop offset="1" stop-color="#52CBFF" stop-opacity="0"/>
</radialGradient>
<radialGradient id="paint38_angular_3002_2039" cx="0" cy="0" r="1" gradientUnits="userSpaceOnUse" gradientTransform="translate(328.355 423.813) rotate(171.954) scale(286.88 405.348)">
<stop stop-color="#2E718E"/>
<stop offset="1" stop-color="#52CBFF" stop-opacity="0"/>
</radialGradient>
<radialGradient id="paint39_angular_3002_2039" cx="0" cy="0" r="1" gradientUnits="userSpaceOnUse" gradientTransform="translate(328.355 423.812) rotate(169.725) scale(286.88 405.348)">
<stop stop-color="#2E718E"/>
<stop offset="1" stop-color="#52CBFF" stop-opacity="0"/>
</radialGradient>
<radialGradient id="paint40_angular_3002_2039" cx="0" cy="0" r="1" gradientUnits="userSpaceOnUse" gradientTransform="translate(328.355 423.813) rotate(167.082) scale(286.88 405.348)">
<stop stop-color="#2E718E"/>
<stop offset="1" stop-color="#52CBFF" stop-opacity="0"/>
</radialGradient>
<radialGradient id="paint41_angular_3002_2039" cx="0" cy="0" r="1" gradientUnits="userSpaceOnUse" gradientTransform="translate(328.355 423.812) rotate(164.496) scale(286.88 405.348)">
<stop stop-color="#2E718E"/>
<stop offset="1" stop-color="#52CBFF" stop-opacity="0"/>
</radialGradient>
<radialGradient id="paint42_angular_3002_2039" cx="0" cy="0" r="1" gradientUnits="userSpaceOnUse" gradientTransform="translate(328.354 423.812) rotate(162.264) scale(286.88 405.348)">
<stop stop-color="#2E718E"/>
<stop offset="1" stop-color="#52CBFF" stop-opacity="0"/>
</radialGradient>
<radialGradient id="paint43_angular_3002_2039" cx="0" cy="0" r="1" gradientUnits="userSpaceOnUse" gradientTransform="translate(328.356 423.813) rotate(160.394) scale(286.88 405.348)">
<stop stop-color="#2E718E"/>
<stop offset="1" stop-color="#52CBFF" stop-opacity="0"/>
</radialGradient>
<radialGradient id="paint44_angular_3002_2039" cx="0" cy="0" r="1" gradientUnits="userSpaceOnUse" gradientTransform="translate(328.355 423.813) rotate(158.377) scale(286.88 405.348)">
<stop stop-color="#2E718E"/>
<stop offset="1" stop-color="#52CBFF" stop-opacity="0"/>
</radialGradient>
<radialGradient id="paint45_angular_3002_2039" cx="0" cy="0" r="1" gradientUnits="userSpaceOnUse" gradientTransform="translate(328.355 423.813) rotate(156.365) scale(286.88 405.348)">
<stop stop-color="#2E718E"/>
<stop offset="1" stop-color="#52CBFF" stop-opacity="0"/>
</radialGradient>
<radialGradient id="paint46_angular_3002_2039" cx="0" cy="0" r="1" gradientUnits="userSpaceOnUse" gradientTransform="translate(328.354 423.813) rotate(154.21) scale(286.88 405.348)">
<stop stop-color="#2E718E"/>
<stop offset="1" stop-color="#52CBFF" stop-opacity="0"/>
</radialGradient>
</defs>
</svg>
