<svg width="684" height="524" viewBox="0 0 684 524" fill="none" xmlns="http://www.w3.org/2000/svg">
<g clip-path="url(#clip0_3088_534)">
<path d="M46.6239 516.538C2.92766 441.825 -64.7991 415.059 -107.841 398.049C-111.324 396.673 -114.645 395.361 -117.778 394.092C-128.277 389.841 -136.568 386.12 -141.844 382.174C-144.473 380.207 -146.277 378.238 -147.25 376.194C-148.208 374.183 -148.394 372.031 -147.668 369.591C-146.932 367.119 -145.247 364.323 -142.401 361.107C-139.559 357.896 -135.602 354.314 -130.389 350.266C-119.961 342.169 -104.604 332.28 -83.3343 319.841C1.73384 270.088 164.664 189.304 318.053 141.061C394.755 116.937 468.998 100.974 529.897 101.06C590.83 101.147 638.098 117.29 661.335 157.022C755.083 317.314 693.57 527.794 523.774 627.1C353.979 726.405 140.372 676.831 46.6239 516.538Z" stroke="url(#paint0_radial_3088_534)" stroke-width="2.03263"/>
<path d="M51.2559 527.921C4.65042 454.987 -64.0782 430.91 -107.757 415.609C-111.291 414.371 -114.661 413.19 -117.842 412.046C-128.5 408.212 -136.932 404.821 -142.359 401.085C-145.063 399.223 -146.943 397.327 -147.996 395.323C-149.032 393.351 -149.304 391.208 -148.674 388.742C-148.036 386.242 -146.462 383.382 -143.745 380.056C-141.032 376.736 -137.219 373.001 -132.169 368.751C-122.069 360.25 -107.113 349.763 -86.3499 336.495C-3.30768 283.431 156.314 196.291 307.683 142.043C383.375 114.916 456.932 96.0404 517.787 93.7278C578.677 91.4139 626.544 105.683 651.328 144.468C751.317 300.944 698.143 513.683 532.391 619.6C366.64 725.518 151.246 684.396 51.2559 527.921Z" stroke="url(#paint1_radial_3088_534)" stroke-width="2.03263"/>
<path d="M57.4292 541.388C7.41316 470.75 -62.3812 449.963 -106.737 436.753C-110.326 435.684 -113.748 434.665 -116.98 433.673C-127.808 430.35 -136.391 427.363 -141.99 423.889C-144.779 422.158 -146.747 420.353 -147.894 418.401C-149.023 416.48 -149.396 414.353 -148.884 411.859C-148.365 409.332 -146.929 406.401 -144.373 402.95C-141.82 399.505 -138.189 395.593 -133.347 391.108C-123.662 382.136 -109.221 370.951 -89.1109 356.713C-8.68208 299.765 146.622 205.144 295.244 143.769C369.563 113.079 442.14 90.732 502.817 85.5323C563.528 80.3298 612.019 92.3097 638.617 129.874C745.923 281.426 702.911 496.45 542.375 610.118C381.84 723.787 164.736 692.939 57.4292 541.388Z" stroke="url(#paint2_radial_3088_534)" stroke-width="2.03263"/>
<path d="M64.8028 555.167C12.5682 486.153 -57.8512 467.594 -102.604 455.799C-106.225 454.845 -109.678 453.935 -112.94 453.046C-123.868 450.068 -132.542 447.355 -138.248 444.061C-141.091 442.42 -143.115 440.678 -144.324 438.764C-145.513 436.88 -145.953 434.765 -145.52 432.257C-145.082 429.715 -143.74 426.739 -141.295 423.208C-138.853 419.684 -135.348 415.659 -130.651 411.022C-121.255 401.748 -107.177 390.11 -87.5294 375.239C-8.95003 315.765 143.27 216.259 289.868 150.195C363.174 117.16 435.005 92.5184 495.487 85.3941C556.001 78.2658 604.848 88.6994 632.626 125.4C744.692 273.467 708.531 489.749 551.687 608.459C394.843 727.169 176.869 703.233 64.8028 555.167Z" stroke="url(#paint3_radial_3088_534)" stroke-width="2.03263"/>
<path d="M71.3125 566.891C16.16 500.185 -54.992 484.67 -100.211 474.81C-103.869 474.012 -107.358 473.252 -110.655 472.504C-121.701 469.998 -130.483 467.661 -136.326 464.615C-139.237 463.097 -141.334 461.444 -142.624 459.584C-143.893 457.752 -144.423 455.658 -144.099 453.134C-143.77 450.575 -142.558 447.545 -140.266 443.912C-137.978 440.286 -134.649 436.114 -130.156 431.28C-121.167 421.61 -107.602 409.378 -88.6122 393.677C-12.6617 330.88 135.141 224.924 278.764 152.62C350.582 116.464 421.288 88.7582 481.407 79.041C541.56 69.3184 590.81 77.6429 620.139 113.116C738.466 256.229 711.634 473.865 560.038 599.207C408.441 724.548 189.639 710.004 71.3125 566.891Z" stroke="url(#paint4_radial_3088_534)" stroke-width="2.03263"/>
<path d="M77.6017 577.201C19.9081 512.681 -51.7912 499.932 -97.3579 491.83C-101.045 491.174 -104.56 490.549 -107.884 489.929C-119.018 487.853 -127.885 485.858 -133.84 483.04C-136.808 481.636 -138.968 480.066 -140.328 478.257C-141.668 476.476 -142.279 474.404 -142.052 471.869C-141.823 469.299 -140.729 466.224 -138.579 462.506C-136.434 458.794 -133.269 454.496 -128.966 449.491C-120.358 439.481 -107.277 426.732 -88.909 410.308C-15.4466 344.618 128.143 233.019 268.859 155.209C339.224 116.3 408.804 85.8777 468.502 73.8402C528.233 61.7961 577.768 68.2077 608.449 102.519C732.228 240.943 713.842 459.455 567.211 590.572C420.581 721.689 201.38 715.625 77.6017 577.201Z" stroke="url(#paint5_radial_3088_534)" stroke-width="2.03263"/>
<path d="M84.5034 587.574C24.279 525.41 -47.8723 515.534 -93.7263 509.259C-97.4362 508.751 -100.974 508.267 -104.319 507.78C-115.528 506.15 -124.467 504.51 -130.531 501.933C-133.552 500.649 -135.773 499.166 -137.205 497.412C-138.614 495.687 -139.307 493.641 -139.182 491.099C-139.056 488.522 -138.085 485.405 -136.086 481.604C-134.09 477.81 -131.099 473.389 -127 468.216C-118.799 457.87 -106.237 444.609 -88.5399 427.464C-17.7596 358.893 121.258 241.649 258.755 158.28C327.51 116.592 395.819 83.4152 454.989 69.0031C514.191 54.5831 563.943 59.0112 595.97 92.0696C725.178 225.44 715.534 444.512 574.257 581.38C432.979 718.249 213.712 720.945 84.5034 587.574Z" stroke="url(#paint6_radial_3088_534)" stroke-width="2.03263"/>
<path d="M90.5547 595.985C28.2987 535.855 -44.1407 528.382 -90.1778 523.632C-93.9026 523.248 -97.4545 522.882 -100.814 522.506C-112.071 521.25 -121.059 519.908 -127.205 517.533C-130.268 516.35 -132.536 514.942 -134.026 513.237C-135.491 511.559 -136.252 509.537 -136.212 506.992C-136.171 504.413 -135.304 501.266 -133.433 497.4C-131.564 493.541 -128.722 489.023 -124.796 483.718C-116.944 473.105 -104.829 459.434 -87.7111 441.711C-19.2474 370.826 115.799 249.029 250.451 161.14C317.783 117.191 384.953 81.7637 443.611 65.3942C502.302 49.0157 552.173 51.7889 585.281 83.7653C718.847 212.771 716.485 432.042 579.832 573.527C443.179 715.012 224.122 724.99 90.5547 595.985Z" stroke="url(#paint7_radial_3088_534)" stroke-width="2.03263"/>
<path d="M99.5409 607.476C34.5414 550.323 -38.1683 546.245 -84.3771 543.654C-88.1158 543.444 -91.6809 543.244 -95.0545 543.027C-106.358 542.298 -115.399 541.378 -121.649 539.293C-124.764 538.254 -127.096 536.954 -128.663 535.32C-130.206 533.712 -131.06 531.729 -131.139 529.184C-131.219 526.606 -130.5 523.422 -128.811 519.473C-127.125 515.531 -124.497 510.885 -120.824 505.402C-113.476 494.433 -102.014 480.211 -85.7436 461.707C-20.6692 387.699 108.535 259.72 238.93 165.631C304.133 118.582 369.573 80.0523 427.402 60.9579C485.262 41.8531 535.209 42.2913 569.775 72.6847C709.228 195.304 717.121 414.446 587.233 562.166C457.345 709.886 238.994 730.095 99.5409 607.476Z" stroke="url(#paint8_radial_3088_534)" stroke-width="2.03263"/>
<path d="M108.448 617.861C41.0044 563.614 -31.8142 562.729 -78.0922 562.166C-81.8364 562.121 -85.407 562.077 -88.7868 562.008C-100.111 561.775 -109.184 561.252 -115.52 559.444C-118.677 558.543 -121.063 557.346 -122.701 555.782C-124.312 554.244 -125.253 552.299 -125.444 549.761C-125.636 547.189 -125.058 543.976 -123.544 539.957C-122.032 535.945 -119.611 531.188 -116.181 525.549C-109.322 514.269 -98.4945 499.558 -83.0512 480.358C-21.2851 403.567 102.182 270.045 228.325 170.328C291.403 120.465 355.09 79.1023 412.025 57.4902C468.992 35.8662 518.91 34.1136 554.776 62.9618C699.472 179.347 716.968 397.932 593.683 551.206C470.399 704.481 253.144 734.246 108.448 617.861Z" stroke="url(#paint9_radial_3088_534)" stroke-width="2.03263"/>
<path d="M118.079 628.127C48.2567 576.978 -24.5277 579.379 -70.784 580.905C-74.5265 581.028 -78.0952 581.146 -81.4747 581.229C-92.7979 581.508 -101.885 581.395 -108.296 579.874C-111.49 579.116 -113.929 578.028 -115.635 576.54C-117.315 575.076 -118.342 573.176 -118.647 570.649C-118.955 568.088 -118.523 564.852 -117.191 560.769C-115.862 556.693 -113.658 551.832 -110.486 546.043C-104.143 534.465 -93.9902 519.281 -79.4289 499.404C-21.1904 419.904 96.1269 280.948 217.642 175.641C278.406 122.982 340.162 78.7884 396.064 54.6295C451.998 30.4573 501.786 26.4542 538.916 53.6549C688.717 163.393 716.057 380.966 599.813 539.647C483.57 698.327 267.879 737.865 118.079 628.127Z" stroke="url(#paint10_radial_3088_534)" stroke-width="2.03263"/>
<path d="M128.102 637.891C56.0554 589.925 -16.548 595.589 -62.6894 599.188C-66.4225 599.479 -69.9823 599.757 -73.3548 599.991C-84.654 600.778 -93.7373 601.072 -100.21 599.841C-103.435 599.227 -105.92 598.249 -107.691 596.839C-109.434 595.452 -110.546 593.6 -110.964 591.089C-111.387 588.544 -111.1 585.293 -109.953 581.154C-108.808 577.022 -106.824 572.067 -103.915 566.142C-98.0976 554.291 -88.6362 538.667 -74.981 518.157C-20.367 436.125 90.5997 292.046 207.269 181.395C265.61 126.064 325.322 79.1448 380.084 52.5028C434.877 25.8462 484.436 19.614 522.749 45.1219C677.32 148.031 714.392 364.158 605.382 527.893C496.373 691.628 282.673 740.8 128.102 637.891Z" stroke="url(#paint11_radial_3088_534)" stroke-width="2.03263"/>
<path d="M138.585 647.225C64.4539 602.548 -7.82128 611.472 -53.7539 617.144C-57.4702 617.603 -61.014 618.04 -64.3724 618.427C-75.6249 619.72 -84.6857 620.423 -91.207 619.484C-94.4565 619.016 -96.9827 618.151 -98.8158 616.822C-100.62 615.515 -101.814 613.715 -102.344 611.225C-102.881 608.702 -102.741 605.441 -101.781 601.255C-100.823 597.076 -99.0639 592.036 -96.4249 585.987C-91.1463 573.886 -82.3974 557.852 -69.6788 536.748C-18.8107 452.342 85.5614 303.417 197.135 187.628C252.927 129.729 310.467 80.1706 363.976 51.0917C417.514 21.9969 466.742 13.5414 506.164 37.2997C665.209 133.15 711.966 347.391 610.434 515.864C508.901 684.338 297.63 743.075 138.585 647.225Z" stroke="url(#paint12_radial_3088_534)" stroke-width="2.03263"/>
<path d="M149.126 655.801C73.119 614.396 1.3011 626.46 -44.3409 634.126C-48.0337 634.747 -51.555 635.338 -54.8934 635.87C-66.0789 637.653 -75.1005 638.75 -81.6565 638.096C-84.9234 637.77 -87.4848 637.016 -89.374 635.768C-91.2332 634.54 -92.5046 632.794 -93.1426 630.33C-93.7892 627.833 -93.7909 624.568 -93.0146 620.344C-92.2397 616.127 -90.7015 611.016 -88.3285 604.857C-83.5819 592.538 -75.5398 576.138 -63.7525 554.5C-16.609 467.959 81.1774 314.629 187.602 194.091C240.819 133.816 296.146 81.7987 348.337 50.4168C400.557 19.0177 449.37 8.42604 489.79 30.4447C652.858 119.277 708.903 331.278 614.805 504.014C520.707 676.749 312.195 744.633 149.126 655.801Z" stroke="url(#paint13_radial_3088_534)" stroke-width="2.03263"/>
<path d="M157.632 662.192C80.2573 623.403 8.89263 637.909 -36.4614 647.128C-40.1308 647.874 -43.6299 648.585 -46.9483 649.231C-58.0664 651.394 -67.0453 652.798 -73.6199 652.368C-76.896 652.153 -79.4816 651.487 -81.4123 650.305C-83.3123 649.141 -84.6425 647.439 -85.3641 644.998C-86.0955 642.524 -86.2085 639.262 -85.5768 635.014C-84.9461 630.773 -83.5831 625.613 -81.4216 619.376C-77.098 606.903 -69.6198 590.238 -58.5774 568.21C-14.413 480.111 78.087 323.535 180.338 199.438C231.469 137.383 284.989 83.5089 336.08 50.3652C387.199 17.2033 435.622 4.95298 476.769 25.5802C642.773 108.799 706.015 318.765 617.864 494.61C529.712 670.454 323.636 745.41 157.632 662.192Z" stroke="url(#paint14_radial_3088_534)" stroke-width="2.03263"/>
<path d="M169.245 670.214C90.1942 634.965 19.5588 652.685 -25.3317 663.946C-28.9636 664.858 -32.427 665.726 -35.7127 666.522C-46.7216 669.186 -55.6278 670.994 -62.2151 670.862C-65.4975 670.796 -68.1107 670.247 -70.0929 669.153C-72.0435 668.077 -73.4494 666.437 -74.2807 664.031C-75.1233 661.593 -75.3837 658.339 -74.9449 654.067C-74.5067 649.802 -73.3785 644.585 -71.5013 638.257C-67.7465 625.6 -61.0299 608.614 -50.9953 586.11C-10.8616 496.103 74.4602 335.503 170.993 206.907C219.263 142.602 270.292 86.3619 319.831 50.9409C369.397 15.5003 417.216 1.07193 459.255 19.8166C628.853 95.4399 701.53 302.33 621.423 481.983C541.317 661.636 338.843 745.837 169.245 670.214Z" stroke="url(#paint15_radial_3088_534)" stroke-width="2.03263"/>
<path d="M179.383 676.609C99.0367 644.425 29.1344 664.845 -15.2902 677.823C-18.8844 678.873 -22.3119 679.875 -25.5646 680.795C-36.463 683.88 -45.2931 686.03 -51.8807 686.151C-55.1632 686.211 -57.7955 685.763 -59.8183 684.746C-61.8089 683.746 -63.2767 682.161 -64.1998 679.789C-65.1355 677.385 -65.5208 674.143 -65.2464 669.857C-64.9724 665.579 -64.0456 660.322 -62.4129 653.927C-59.1471 641.135 -53.0882 623.904 -43.9257 601.03C-7.28021 509.548 71.8075 345.788 163.327 213.577C209.092 147.465 257.922 89.306 306.063 52.0076C354.231 14.6887 401.46 -1.56654 444.187 15.549C616.566 84.5996 697.139 288.545 623.995 471.143C550.851 653.741 351.762 745.66 179.383 676.609Z" stroke="url(#paint16_radial_3088_534)" stroke-width="2.03263"/>
<path d="M190.777 683.17C109.146 654.4 40.1662 677.748 -3.67205 692.587C-7.21883 693.787 -10.601 694.932 -13.8121 695.989C-24.5708 699.531 -33.3025 702.051 -39.8791 702.449C-43.1562 702.647 -45.805 702.311 -47.8688 701.38C-49.8998 700.464 -51.4331 698.943 -52.4554 696.612C-53.4915 694.249 -54.0131 691.027 -53.9195 686.733C-53.8261 682.446 -53.1216 677.156 -51.7599 670.697C-49.0361 657.78 -43.7087 640.308 -35.5183 617.069C-2.76061 524.123 69.3557 357.176 155.223 221.226C198.16 153.244 244.496 93.0785 291.023 53.7845C337.575 14.4688 384.077 -3.7623 427.488 11.5374C602.624 73.2624 691.72 273.631 626.336 459.149C560.951 644.667 365.913 744.895 190.777 683.17Z" stroke="url(#paint17_radial_3088_534)" stroke-width="2.03263"/>
<path d="M204.214 690.115C121.283 665.336 53.5169 692.002 10.4495 708.948C6.96514 710.319 3.64243 711.626 0.486388 712.838C-10.088 716.897 -18.6872 719.837 -25.2368 720.554C-28.5004 720.911 -31.1624 720.703 -33.2689 719.874C-35.3419 719.057 -36.9472 717.612 -38.0813 715.333C-39.2307 713.024 -39.9079 709.83 -40.0227 705.537C-40.1372 701.251 -39.69 695.932 -38.6429 689.416C-36.5486 676.381 -32.0746 658.671 -25.0204 635.063C3.19273 540.638 67.1306 370.391 146.305 230.438C185.897 160.455 229.261 98.1134 273.828 56.6099C318.42 15.0836 363.984 -5.38051 408.085 7.79661C586.007 60.9583 684.713 256.772 628.399 445.242C572.086 633.711 382.136 743.277 204.214 690.115Z" stroke="url(#paint18_radial_3088_534)" stroke-width="2.03263"/>
<path d="M218.155 696.48C134.107 675.804 67.7323 705.766 25.5494 724.807C22.1365 726.348 18.882 727.817 15.7893 729.182C5.42708 733.755 -3.01737 737.114 -9.52385 738.152C-12.766 738.669 -15.435 738.592 -17.5797 737.867C-19.6903 737.153 -21.3647 735.789 -22.6093 733.568C-23.8708 731.318 -24.704 728.162 -25.0295 723.88C-25.3544 719.604 -25.169 714.27 -24.4433 707.71C-22.9917 694.588 -19.393 676.68 -13.507 652.753C10.0341 557.057 65.5324 383.875 137.737 240.202C173.843 168.358 214.093 103.962 256.568 60.3196C299.066 16.6531 343.57 -6.02433 388.265 4.97068C568.584 49.3289 676.788 240.057 629.8 431.066C582.812 622.074 398.473 740.838 218.155 696.48Z" stroke="url(#paint19_radial_3088_534)" stroke-width="2.03263"/>
<path d="M233.82 702.677C148.779 686.57 84.1181 720.072 43.0249 741.363C39.7002 743.086 36.5298 744.729 33.5152 746.259C23.4151 751.385 15.1643 755.195 8.72335 756.582C5.51387 757.273 2.8446 757.341 0.663896 756.733C-1.48217 756.134 -3.22778 754.862 -4.59046 752.712C-5.97162 750.533 -6.97401 747.427 -7.53026 743.168C-8.08552 738.917 -8.18844 733.58 -7.818 726.99C-7.07712 713.809 -4.45053 695.733 0.134936 671.523C18.4746 574.696 64.5409 398.769 128.883 251.407C161.057 177.719 197.771 111.243 237.827 65.3712C277.906 19.4737 321.12 -5.57363 366.344 2.99202C548.795 37.5492 667.139 222.157 630.534 415.424C593.928 608.691 416.27 737.235 233.82 702.677Z" stroke="url(#paint20_radial_3088_534)" stroke-width="2.03263"/>
<path d="M249.145 707.82C163.383 696.141 100.546 732.947 60.6105 756.339C57.3795 758.232 54.2985 760.036 51.3673 761.72C41.5463 767.363 33.504 771.596 27.1436 773.315C23.9742 774.171 21.312 774.377 19.1027 773.883C16.9285 773.396 15.1194 772.216 13.6471 770.139C12.1549 768.035 10.9929 764.985 10.2168 760.761C9.44203 756.544 9.06277 751.22 9.0913 744.62C9.14828 731.418 10.8348 713.23 14.1598 688.815C27.4583 591.167 64.3481 413.09 120.969 262.593C149.282 187.336 182.503 119.048 220.129 71.1624C257.775 23.2501 299.634 -4.0025 345.241 2.20862C529.237 27.2668 656.987 205.495 630.444 400.399C603.9 595.303 433.141 732.878 249.145 707.82Z" stroke="url(#paint21_radial_3088_534)" stroke-width="2.03263"/>
<path d="M263.188 711.774C176.974 704.118 115.926 743.823 77.129 769.056C73.9901 771.098 70.9968 773.044 68.1476 774.864C58.6012 780.96 50.7656 785.564 44.4925 787.578C41.3667 788.582 38.717 788.912 36.487 788.522C34.2925 788.137 32.4301 787.043 30.8623 785.038C29.2734 783.005 27.97 780.013 26.9972 775.829C26.0261 771.653 25.3983 766.353 25.1181 759.759C24.5577 746.569 25.3919 728.322 27.5716 703.778C36.2893 605.615 64.8115 426.008 114.333 273.027C139.096 196.529 169.087 126.763 204.432 77.1696C239.797 27.5493 280.336 -1.63092 326.183 2.44074C511.15 18.8674 647.095 190.927 629.694 386.859C612.294 582.791 448.155 728.201 263.188 711.774Z" stroke="url(#paint22_radial_3088_534)" stroke-width="2.03263"/>
<path d="M275.681 714.706C189.225 710.602 129.862 752.785 92.1351 779.593C89.0828 781.762 86.1721 783.83 83.4002 785.765C74.1126 792.248 66.4731 797.171 60.2881 799.441C57.2062 800.573 54.5724 801.012 52.3282 800.713C50.1197 800.42 48.2138 799.403 46.565 797.464C44.8938 795.499 43.4684 792.562 42.3243 788.422C41.1823 784.29 40.337 779.02 39.7858 772.442C38.6833 759.287 38.7663 741.021 39.9346 716.408C44.6073 617.97 65.7177 437.342 108.905 282.453C130.5 205.002 157.596 134.06 190.872 83.0554C224.166 32.0225 263.47 1.19955 309.446 3.38195C494.932 12.1866 637.839 178.509 628.512 374.991C619.185 571.473 461.166 723.511 275.681 714.706Z" stroke="url(#paint23_radial_3088_534)" stroke-width="2.03263"/>
<path d="M290.184 717.439C203.631 717.43 146.33 762.373 109.913 790.936C106.967 793.246 104.157 795.45 101.48 797.514C92.5095 804.429 85.1113 809.708 79.0407 812.269C76.0157 813.545 73.4056 814.108 71.1498 813.916C68.9299 813.727 66.9781 812.801 65.2393 810.942C63.477 809.058 61.9144 806.192 60.5758 802.111C59.2395 798.038 58.1459 792.813 57.2842 786.27C55.5607 773.181 54.7795 754.931 54.7823 730.291C54.7934 631.742 67.336 450.317 103.148 293.56C121.056 215.173 144.766 143.029 175.591 90.5075C206.434 37.9568 244.236 5.30919 290.264 5.31436C475.959 5.33522 626.573 164.712 626.551 361.415C626.529 558.118 475.879 717.46 290.184 717.439Z" stroke="url(#paint24_radial_3088_534)" stroke-width="2.03263"/>
<path d="M303.29 719.304C216.814 722.967 161.471 770.302 126.3 800.384C123.454 802.817 120.741 805.138 118.153 807.314C109.484 814.604 102.317 820.191 96.3604 823.007C93.3923 824.411 90.8084 825.084 88.5465 824.988C86.3205 824.893 84.3312 824.051 82.5152 822.268C80.6745 820.46 78.9917 817.663 77.4811 813.643C75.9732 809.629 74.6589 804.456 73.5203 797.955C71.2429 784.951 69.6881 766.751 68.6453 742.133C64.4747 643.672 69.3077 461.879 98.4358 303.743C113.001 224.667 133.629 151.582 162.198 97.7995C190.783 43.9875 227.166 9.76519 273.152 7.81728C458.681 -0.0413831 615.922 152.8 624.247 349.327C632.571 545.854 488.818 711.446 303.29 719.304Z" stroke="url(#paint25_radial_3088_534)" stroke-width="2.03263"/>
<path d="M316.276 720.598C230.029 727.875 176.715 777.483 142.833 809.01C140.091 811.561 137.477 813.994 134.983 816.276C126.627 823.922 119.699 829.804 113.866 832.867C110.959 834.393 108.406 835.174 106.142 835.172C103.914 835.171 101.891 834.413 100.002 832.707C98.0872 830.978 96.2888 828.254 94.6114 824.3C92.9368 820.353 91.4073 815.24 89.9977 808.792C87.1783 795.894 84.8635 777.776 82.7918 753.223C74.5058 655.023 71.7295 473.186 94.2167 313.97C105.461 234.354 123.013 160.47 149.308 105.54C175.617 50.5789 210.536 14.8646 256.4 10.9946C441.438 -4.61856 604.935 141.511 621.474 337.518C638.013 533.525 501.313 704.985 316.276 720.598Z" stroke="url(#paint26_radial_3088_534)" stroke-width="2.03263"/>
<path d="M328.653 721.322C242.764 732.021 191.464 783.709 158.861 816.558C156.223 819.216 153.708 821.75 151.307 824.129C143.261 832.102 136.572 838.255 130.865 841.547C128.022 843.187 125.501 844.069 123.239 844.158C121.013 844.245 118.961 843.568 117.006 841.938C115.024 840.287 113.119 837.636 111.286 833.753C109.456 829.875 107.724 824.826 106.059 818.44C102.729 805.664 99.6963 787.652 96.6503 763.201C84.4679 665.408 74.4666 483.825 90.6079 323.841C98.6794 243.841 113.281 169.318 137.371 113.386C161.475 57.4228 194.947 20.3488 240.622 14.6589C424.892 -8.29625 594.069 131.22 618.385 326.414C642.701 521.609 512.923 698.367 328.653 721.322Z" stroke="url(#paint27_radial_3088_534)" stroke-width="2.03263"/>
<path d="M340.486 721.554C255.064 735.504 205.762 789.101 174.429 823.163C171.894 825.919 169.476 828.547 167.167 831.015C159.429 839.287 152.979 845.689 147.401 849.196C144.622 850.943 142.136 851.92 139.879 852.094C137.658 852.265 135.582 851.667 133.567 850.113C131.523 848.538 129.519 845.961 127.54 842.15C125.564 838.345 123.642 833.365 121.736 827.046C117.924 814.407 114.21 796.522 110.239 772.204C94.355 674.944 77.4723 493.871 87.5328 333.39C92.5636 253.141 104.327 178.118 126.279 121.312C148.242 64.4749 180.283 26.1578 225.709 18.7393C408.976 -11.1899 583.324 121.808 615.027 315.939C646.731 510.071 523.752 691.625 340.486 721.554Z" stroke="url(#paint28_radial_3088_534)" stroke-width="2.03263"/>
<path d="M349.357 721.433C264.367 737.808 216.609 792.785 186.258 827.724C183.802 830.551 181.46 833.247 179.222 835.78C171.723 844.269 165.458 850.852 159.981 854.515C157.253 856.341 154.796 857.388 152.545 857.626C150.329 857.861 148.238 857.322 146.179 855.825C144.092 854.309 142.015 851.791 139.928 848.037C137.845 844.29 135.782 839.367 133.697 833.105C129.527 820.579 125.306 802.807 120.644 778.612C102.001 681.842 79.9746 501.324 85.4665 340.621C88.2128 260.262 97.8381 184.934 118.165 127.527C138.502 70.088 169.441 30.8751 214.638 22.1676C396.979 -12.9621 575.039 115.023 612.251 308.174C649.464 501.325 531.699 686.304 349.357 721.433Z" stroke="url(#paint29_radial_3088_534)" stroke-width="2.03263"/>
<path d="M359.359 720.994C274.938 740.087 228.969 796.569 199.754 832.465C197.391 835.369 195.137 838.138 192.981 840.742C185.758 849.467 179.707 856.248 174.351 860.085C171.683 861.997 169.261 863.122 167.018 863.433C164.812 863.739 162.704 863.267 160.597 861.837C158.463 860.389 156.306 857.939 154.1 854.254C151.898 850.575 149.678 845.721 147.393 839.529C142.823 827.143 138.034 809.516 132.598 785.483C110.859 689.362 83.0508 509.643 83.3826 348.847C83.5485 268.441 90.7513 192.843 109.225 134.813C127.709 76.7512 157.373 36.5655 202.267 26.412C383.387 -14.5513 565.463 107.654 608.855 299.511C652.247 491.368 540.479 680.031 359.359 720.994Z" stroke="url(#paint30_radial_3088_534)" stroke-width="2.03263"/>
<path d="M370.142 720.16C286.434 742.168 242.451 800.21 214.499 837.097C212.237 840.081 210.081 842.927 208.017 845.604C201.101 854.574 195.289 861.561 190.069 865.582C187.468 867.585 185.087 868.794 182.857 869.182C180.662 869.564 178.539 869.165 176.384 867.81C174.201 866.436 171.96 864.062 169.628 860.456C167.299 856.856 164.912 852.082 162.414 845.973C157.418 833.753 152.02 816.303 145.754 792.472C120.695 697.163 86.6725 518.516 81.4287 357.805C78.8066 277.441 83.3839 201.64 99.8344 143.004C116.294 84.3359 144.547 43.1459 189.062 31.4419C368.653 -15.7769 554.856 100.041 604.874 290.279C654.892 480.516 549.733 672.941 370.142 720.16Z" stroke="url(#paint31_radial_3088_534)" stroke-width="2.03263"/>
<path d="M379.223 719.164C296.195 743.615 253.931 802.919 227.071 840.609C224.898 843.658 222.826 846.566 220.841 849.303C214.19 858.471 208.585 865.625 203.486 869.797C200.945 871.876 198.6 873.154 196.382 873.607C194.199 874.053 192.065 873.717 189.872 872.425C187.649 871.116 185.34 868.809 182.903 865.272C180.47 861.742 177.945 857.04 175.269 851.006C169.916 838.938 164.01 821.653 157.049 798.017C129.209 703.482 89.9693 525.908 80.0212 365.42C75.0467 285.168 77.4021 209.264 92.1283 150.172C106.863 91.0471 133.897 49.0473 178.05 36.0446C356.181 -16.4134 545.697 93.9019 601.265 282.593C656.833 471.284 557.354 666.706 379.223 719.164Z" stroke="url(#paint32_radial_3088_534)" stroke-width="2.03263"/>
<path d="M388.633 717.846C306.388 744.814 265.95 805.379 240.25 843.869C238.171 846.983 236.189 849.953 234.288 852.749C227.92 862.115 222.535 869.437 217.565 873.762C215.089 875.917 212.784 877.266 210.581 877.787C208.413 878.299 206.27 878.028 204.038 876.804C201.776 875.563 199.398 873.327 196.854 869.866C194.315 866.412 191.647 861.789 188.789 855.84C183.072 843.94 176.641 826.843 168.964 803.43C138.257 709.787 93.6269 533.49 78.795 373.379C71.3783 293.316 71.4206 217.376 84.3402 157.863C97.2668 98.3165 123.01 55.5127 166.746 41.1712C343.197 -16.6883 535.984 87.8034 597.274 274.714C658.563 461.625 565.083 659.986 388.633 717.846Z" stroke="url(#paint33_radial_3088_534)" stroke-width="2.03263"/>
<path d="M397.366 716.359C315.921 745.653 277.218 807.341 252.622 846.546C250.632 849.718 248.735 852.742 246.914 855.591C240.814 865.135 235.64 872.606 230.795 877.071C228.381 879.295 226.115 880.709 223.928 881.292C221.775 881.866 219.625 881.655 217.36 880.495C215.063 879.319 212.623 877.151 209.982 873.765C207.345 870.384 204.547 865.838 201.521 859.973C195.468 848.24 188.555 831.333 180.216 808.147C146.863 715.413 97.2439 540.456 77.8713 380.83C68.1841 301.01 66.0699 225.099 77.2943 165.243C88.5247 105.354 113.042 61.8364 156.353 46.2586C331.09 -16.5881 526.767 82.3869 593.339 267.482C659.912 452.577 572.102 653.513 397.366 716.359Z" stroke="url(#paint34_radial_3088_534)" stroke-width="2.03263"/>
<path d="M406.602 714.508C326.078 746.248 289.256 809.077 265.855 849.006C263.962 852.237 262.157 855.317 260.423 858.219C254.614 867.943 249.668 875.567 244.96 880.176C242.614 882.473 240.392 883.954 238.223 884.603C236.089 885.242 233.933 885.096 231.634 884.005C229.303 882.899 226.798 880.806 224.056 877.5C221.319 874.201 218.385 869.742 215.183 863.97C208.779 852.426 201.358 835.735 192.322 812.811C156.184 721.127 101.304 547.748 77.1202 388.78C65.027 309.289 60.6214 233.477 70.033 173.309C79.4498 113.108 102.641 68.8699 145.463 51.9913C318.222 -16.1036 516.798 76.9171 588.93 259.918C661.062 442.918 579.36 646.413 406.602 714.508Z" stroke="url(#paint35_radial_3088_534)" stroke-width="2.03263"/>
<path d="M417.314 711.993C337.961 746.553 303.378 810.643 281.4 851.373C279.622 854.668 277.926 857.81 276.296 860.772C270.834 870.694 266.16 878.488 261.617 883.26C259.354 885.638 257.186 887.197 255.041 887.922C252.93 888.635 250.771 888.566 248.435 887.557C246.067 886.533 243.489 884.53 240.632 881.324C237.78 878.122 234.691 873.77 231.288 868.115C224.48 856.803 216.475 840.385 206.636 817.794C167.286 727.442 106.325 556.106 76.5477 398.091C61.6578 319.076 54.5806 243.466 61.8639 183.004C69.1512 122.508 90.7678 77.4793 132.967 59.1006C303.216 -15.0461 504.951 70.9117 583.493 251.254C662.036 431.596 587.564 637.847 417.314 711.993Z" stroke="url(#paint36_radial_3088_534)" stroke-width="2.03263"/>
<path d="M428.586 708.911C350.582 746.419 318.425 811.758 297.988 853.283C296.334 856.643 294.758 859.846 293.24 862.867C288.153 872.987 283.774 880.95 279.413 885.889C277.24 888.351 275.132 889.989 273.016 890.794C270.934 891.586 268.774 891.598 266.401 890.676C263.996 889.742 261.346 887.837 258.371 884.74C255.4 881.648 252.15 877.414 248.537 871.89C241.311 860.842 232.697 844.735 222.019 822.528C179.312 733.714 111.976 564.782 76.3011 407.992C58.4621 329.59 48.5578 254.299 53.5714 193.606C58.5876 132.88 78.5025 87.0729 119.984 67.1265C287.336 -13.345 492.149 64.9963 577.391 242.27C662.633 419.543 595.939 628.439 428.586 708.911Z" stroke="url(#paint37_radial_3088_534)" stroke-width="2.03263"/>
<path d="M440.736 705.07C364.33 745.733 334.868 812.331 316.144 854.656C314.629 858.081 313.184 861.346 311.791 864.426C307.122 874.746 303.072 882.881 298.917 887.994C296.846 890.542 294.807 892.266 292.725 893.156C290.677 894.032 288.519 894.132 286.111 893.309C283.67 892.474 280.944 890.678 277.844 887.705C274.751 884.737 271.33 880.639 267.495 875.268C259.823 864.524 250.558 848.782 238.982 827.03C192.683 740.034 118.503 573.993 76.4539 418.792C55.4274 341.184 42.4562 266.36 44.9864 205.513C47.5181 144.633 65.5454 98.0507 106.177 76.4266C270.103 -10.8133 477.945 59.097 570.357 232.741C662.768 406.385 604.662 617.83 440.736 705.07Z" stroke="url(#paint38_radial_3088_534)" stroke-width="2.03263"/>
<path d="M452.148 700.956C377.38 744.559 350.53 812.253 333.466 855.274C332.086 858.754 330.769 862.073 329.497 865.205C325.233 875.699 321.502 883.985 317.548 889.256C315.579 891.883 313.608 893.684 311.562 894.655C309.55 895.61 307.397 895.794 304.959 895.065C302.487 894.325 299.694 892.637 296.481 889.787C293.274 886.941 289.697 882.98 285.656 877.761C277.572 867.324 267.702 851.954 255.288 830.669C205.642 745.539 125.061 582.509 77.0084 429.06C52.9799 352.328 37.1088 278.065 37.2711 217.166C37.4334 156.233 53.6356 108.985 93.3961 85.7975C253.806 -7.75098 464.208 54.0242 563.303 223.943C662.397 393.862 612.557 607.407 452.148 700.956Z" stroke="url(#paint39_radial_3088_534)" stroke-width="2.03263"/>
<path d="M465.463 695.506C392.786 742.511 369.086 811.371 354.024 855.133C352.806 858.673 351.644 862.05 350.517 865.237C346.741 875.916 343.396 884.366 339.69 889.813C337.844 892.528 335.958 894.418 333.959 895.482C331.993 896.529 329.851 896.812 327.382 896.196C324.879 895.572 322.01 894.014 318.67 891.315C315.335 888.62 311.579 884.828 307.301 879.801C298.744 869.748 288.176 854.85 274.795 834.16C221.275 751.41 133.262 592.268 78.1845 441.199C50.6432 365.657 31.3644 292.205 28.7181 231.363C26.0704 170.487 40.0766 122.542 78.7255 97.5459C234.65 -3.30024 447.678 48.7067 554.503 213.875C661.327 379.044 621.388 594.66 465.463 695.506Z" stroke="url(#paint40_radial_3088_534)" stroke-width="2.03263"/>
<path d="M478.235 689.585C407.752 739.821 387.184 809.68 374.112 854.077C373.055 857.669 372.046 861.094 371.064 864.329C367.774 875.167 364.814 883.76 361.358 889.369C359.635 892.164 357.837 894.138 355.889 895.291C353.971 896.426 351.845 896.805 349.35 896.301C346.821 895.79 343.885 894.363 340.426 891.817C336.973 889.276 333.05 885.657 328.55 880.829C319.548 871.172 308.319 856.765 294.017 836.7C236.818 756.449 141.714 601.442 79.8756 453.011C48.9536 378.789 26.3801 306.282 20.9912 245.621C15.5993 184.927 27.4278 136.399 64.9094 109.684C216.125 1.90476 431.283 44.2463 545.451 204.426C659.62 364.606 629.45 581.805 478.235 689.585Z" stroke="url(#paint41_radial_3088_534)" stroke-width="2.03263"/>
<path d="M489.029 684.017C420.556 736.959 402.723 807.566 391.389 852.438C390.472 856.069 389.598 859.531 388.743 862.801C385.877 873.76 383.254 882.461 380.019 888.2C378.406 891.06 376.686 893.102 374.784 894.331C372.913 895.539 370.802 896.001 368.29 895.594C365.743 895.182 362.754 893.871 359.198 891.462C355.649 889.057 351.588 885.593 346.903 880.944C337.532 871.644 325.75 857.686 310.678 838.193C250.399 760.23 149.331 609.043 81.7611 463.132C47.9729 390.17 22.5935 318.597 14.847 258.192C7.09614 197.754 17.0264 148.802 53.4395 120.648C200.344 7.06326 416.987 40.9959 537.306 196.61C657.624 352.223 635.933 570.432 489.029 684.017Z" stroke="url(#paint42_radial_3088_534)" stroke-width="2.03263"/>
<path d="M497.907 679.027C431.199 734.177 415.68 805.328 405.818 850.547C405.02 854.205 404.259 857.694 403.511 860.991C401.005 872.036 398.667 880.819 395.621 886.661C394.103 889.572 392.45 891.669 390.589 892.958C388.758 894.228 386.664 894.758 384.139 894.434C381.581 894.105 378.55 892.892 374.918 890.6C371.292 888.312 367.12 884.983 362.286 880.489C352.616 871.501 340.385 857.935 324.685 838.944C261.892 762.99 155.943 615.183 83.6454 471.556C47.4933 399.736 19.7909 329.029 10.0765 268.909C0.356821 208.756 8.6837 159.507 44.1583 130.179C187.277 11.8588 404.912 38.701 530.246 190.304C655.581 341.907 641.025 560.707 497.907 679.027Z" stroke="url(#paint43_radial_3088_534)" stroke-width="2.03263"/>
<path d="M507.287 673.329C442.561 730.791 429.555 802.445 421.29 847.982C420.621 851.667 419.984 855.18 419.352 858.501C417.236 869.628 415.209 878.487 412.37 884.433C410.955 887.395 409.377 889.549 407.563 890.904C405.778 892.236 403.704 892.84 401.169 892.605C398.601 892.366 395.529 891.261 391.819 889.098C388.115 886.939 383.828 883.759 378.839 879.438C368.859 870.795 356.158 857.668 339.799 839.242C274.373 765.544 163.288 621.556 85.9819 480.563C47.3251 410.059 17.1519 340.37 5.32814 280.63C-6.50214 220.856 0.0866601 171.344 34.5073 140.786C173.374 17.5035 391.819 36.6712 522.41 183.77C653.001 330.869 646.153 550.046 507.287 673.329Z" stroke="url(#paint44_radial_3088_534)" stroke-width="2.03263"/>
<path d="M516.444 667.315C453.776 727.015 443.295 799.081 436.634 844.88C436.095 848.586 435.581 852.119 435.067 855.46C433.343 866.655 431.628 875.58 429 881.621C427.69 884.632 426.189 886.84 424.423 888.257C422.686 889.652 420.634 890.328 418.093 890.182C415.518 890.034 412.409 889.037 408.625 887.006C404.847 884.978 400.452 881.95 395.314 877.807C385.037 869.52 371.882 856.847 354.887 839.007C286.912 767.653 170.84 627.655 88.6298 489.463C47.5208 420.36 14.9189 351.774 1.00447 292.485C-12.9177 233.164 -8.0717 183.451 25.2546 151.703C159.706 23.6201 378.689 35.1046 514.366 177.527C650.042 319.949 650.896 539.231 516.444 667.315Z" stroke="url(#paint45_radial_3088_534)" stroke-width="2.03263"/>
<path d="M526.006 660.526C465.626 722.54 457.862 794.949 452.927 840.966C452.528 844.689 452.147 848.24 451.759 851.598C450.457 862.849 449.078 871.832 446.679 877.969C445.484 881.026 444.066 883.289 442.355 884.772C440.671 886.231 438.647 886.984 436.102 886.933C433.523 886.882 430.379 886.002 426.521 884.115C422.67 882.231 418.163 879.37 412.874 875.423C402.292 867.529 388.671 855.359 371.016 838.17C300.408 769.421 179.155 633.886 91.8082 498.882C48.1307 431.373 12.9736 364.061 -3.15969 305.337C-19.3019 246.581 -16.3281 196.722 15.7812 163.743C145.323 30.6965 364.583 33.9412 505.517 171.162C646.452 308.384 655.548 527.479 526.006 660.526Z" stroke="url(#paint46_radial_3088_534)" stroke-width="2.03263"/>
</g>
<defs>
<radialGradient id="paint0_radial_3088_534" cx="0" cy="0" r="1" gradientUnits="userSpaceOnUse" gradientTransform="translate(337.79 404.709) rotate(-120.321) scale(286.88 405.348)">
<stop stop-color="#18546D"/>
<stop offset="1" stop-color="#296E8C"/>
</radialGradient>
<radialGradient id="paint1_radial_3088_534" cx="0" cy="0" r="1" gradientUnits="userSpaceOnUse" gradientTransform="translate(337.791 404.708) rotate(-122.579) scale(286.88 405.348)">
<stop stop-color="#18546D"/>
<stop offset="1" stop-color="#296E8C"/>
</radialGradient>
<radialGradient id="paint2_radial_3088_534" cx="0" cy="0" r="1" gradientUnits="userSpaceOnUse" gradientTransform="translate(337.791 404.709) rotate(-125.301) scale(286.88 405.348)">
<stop stop-color="#18546D"/>
<stop offset="1" stop-color="#296E8C"/>
</radialGradient>
<radialGradient id="paint3_radial_3088_534" cx="0" cy="0" r="1" gradientUnits="userSpaceOnUse" gradientTransform="translate(340.681 409.652) rotate(-127.121) scale(286.88 405.348)">
<stop stop-color="#18546D"/>
<stop offset="1" stop-color="#296E8C"/>
</radialGradient>
<radialGradient id="paint4_radial_3088_534" cx="0" cy="0" r="1" gradientUnits="userSpaceOnUse" gradientTransform="translate(340.682 409.652) rotate(-129.584) scale(286.88 405.348)">
<stop stop-color="#18546D"/>
<stop offset="1" stop-color="#296E8C"/>
</radialGradient>
<radialGradient id="paint5_radial_3088_534" cx="0" cy="0" r="1" gradientUnits="userSpaceOnUse" gradientTransform="translate(340.682 409.652) rotate(-131.803) scale(286.88 405.348)">
<stop stop-color="#18546D"/>
<stop offset="1" stop-color="#296E8C"/>
</radialGradient>
<radialGradient id="paint6_radial_3088_534" cx="0" cy="0" r="1" gradientUnits="userSpaceOnUse" gradientTransform="translate(340.682 409.652) rotate(-134.092) scale(286.88 405.348)">
<stop stop-color="#18546D"/>
<stop offset="1" stop-color="#296E8C"/>
</radialGradient>
<radialGradient id="paint7_radial_3088_534" cx="0" cy="0" r="1" gradientUnits="userSpaceOnUse" gradientTransform="translate(340.682 409.652) rotate(-135.995) scale(286.88 405.348)">
<stop stop-color="#18546D"/>
<stop offset="1" stop-color="#296E8C"/>
</radialGradient>
<radialGradient id="paint8_radial_3088_534" cx="0" cy="0" r="1" gradientUnits="userSpaceOnUse" gradientTransform="translate(340.682 409.652) rotate(-138.675) scale(286.88 405.348)">
<stop stop-color="#18546D"/>
<stop offset="1" stop-color="#296E8C"/>
</radialGradient>
<radialGradient id="paint9_radial_3088_534" cx="0" cy="0" r="1" gradientUnits="userSpaceOnUse" gradientTransform="translate(340.681 409.652) rotate(-141.189) scale(286.88 405.348)">
<stop stop-color="#18546D"/>
<stop offset="1" stop-color="#296E8C"/>
</radialGradient>
<radialGradient id="paint10_radial_3088_534" cx="0" cy="0" r="1" gradientUnits="userSpaceOnUse" gradientTransform="translate(340.682 409.651) rotate(-143.775) scale(286.88 405.348)">
<stop stop-color="#18546D"/>
<stop offset="1" stop-color="#296E8C"/>
</radialGradient>
<radialGradient id="paint11_radial_3088_534" cx="0" cy="0" r="1" gradientUnits="userSpaceOnUse" gradientTransform="translate(340.681 409.651) rotate(-146.346) scale(286.88 405.348)">
<stop stop-color="#18546D"/>
<stop offset="1" stop-color="#296E8C"/>
</radialGradient>
<radialGradient id="paint12_radial_3088_534" cx="0" cy="0" r="1" gradientUnits="userSpaceOnUse" gradientTransform="translate(340.681 409.651) rotate(-148.924) scale(286.88 405.348)">
<stop stop-color="#18546D"/>
<stop offset="1" stop-color="#296E8C"/>
</radialGradient>
<radialGradient id="paint13_radial_3088_534" cx="0" cy="0" r="1" gradientUnits="userSpaceOnUse" gradientTransform="translate(340.682 409.651) rotate(-151.421) scale(286.88 405.348)">
<stop stop-color="#18546D"/>
<stop offset="1" stop-color="#296E8C"/>
</radialGradient>
<radialGradient id="paint14_radial_3088_534" cx="0" cy="0" r="1" gradientUnits="userSpaceOnUse" gradientTransform="translate(340.681 409.651) rotate(-153.375) scale(286.88 405.348)">
<stop stop-color="#18546D"/>
<stop offset="1" stop-color="#296E8C"/>
</radialGradient>
<radialGradient id="paint15_radial_3088_534" cx="0" cy="0" r="1" gradientUnits="userSpaceOnUse" gradientTransform="translate(340.682 409.651) rotate(-155.968) scale(286.88 405.348)">
<stop stop-color="#18546D"/>
<stop offset="1" stop-color="#296E8C"/>
</radialGradient>
<radialGradient id="paint16_radial_3088_534" cx="0" cy="0" r="1" gradientUnits="userSpaceOnUse" gradientTransform="translate(340.681 409.651) rotate(-158.17) scale(286.88 405.348)">
<stop stop-color="#18546D"/>
<stop offset="1" stop-color="#296E8C"/>
</radialGradient>
<radialGradient id="paint17_radial_3088_534" cx="0" cy="0" r="1" gradientUnits="userSpaceOnUse" gradientTransform="translate(340.682 409.652) rotate(-160.585) scale(286.88 405.348)">
<stop stop-color="#18546D"/>
<stop offset="1" stop-color="#296E8C"/>
</radialGradient>
<radialGradient id="paint18_radial_3088_534" cx="0" cy="0" r="1" gradientUnits="userSpaceOnUse" gradientTransform="translate(340.682 409.651) rotate(-163.364) scale(286.88 405.348)">
<stop stop-color="#18546D"/>
<stop offset="1" stop-color="#296E8C"/>
</radialGradient>
<radialGradient id="paint19_radial_3088_534" cx="0" cy="0" r="1" gradientUnits="userSpaceOnUse" gradientTransform="translate(340.682 409.651) rotate(-166.18) scale(286.88 405.348)">
<stop stop-color="#18546D"/>
<stop offset="1" stop-color="#296E8C"/>
</radialGradient>
<radialGradient id="paint20_radial_3088_534" cx="0" cy="0" r="1" gradientUnits="userSpaceOnUse" gradientTransform="translate(340.681 409.651) rotate(-169.275) scale(286.88 405.348)">
<stop stop-color="#18546D"/>
<stop offset="1" stop-color="#296E8C"/>
</radialGradient>
<radialGradient id="paint21_radial_3088_534" cx="0" cy="0" r="1" gradientUnits="userSpaceOnUse" gradientTransform="translate(340.681 409.651) rotate(-172.245) scale(286.88 405.347)">
<stop stop-color="#18546D"/>
<stop offset="1" stop-color="#296E8C"/>
</radialGradient>
<radialGradient id="paint22_radial_3088_534" cx="0" cy="0" r="1" gradientUnits="userSpaceOnUse" gradientTransform="translate(340.681 409.651) rotate(-174.925) scale(286.88 405.348)">
<stop stop-color="#18546D"/>
<stop offset="1" stop-color="#296E8C"/>
</radialGradient>
<radialGradient id="paint23_radial_3088_534" cx="0" cy="0" r="1" gradientUnits="userSpaceOnUse" gradientTransform="translate(340.681 409.651) rotate(-177.282) scale(286.88 405.348)">
<stop stop-color="#18546D"/>
<stop offset="1" stop-color="#296E8C"/>
</radialGradient>
<radialGradient id="paint24_radial_3088_534" cx="0" cy="0" r="1" gradientUnits="userSpaceOnUse" gradientTransform="translate(340.682 409.651) rotate(-179.994) scale(286.88 405.348)">
<stop stop-color="#18546D"/>
<stop offset="1" stop-color="#296E8C"/>
</radialGradient>
<radialGradient id="paint25_radial_3088_534" cx="0" cy="0" r="1" gradientUnits="userSpaceOnUse" gradientTransform="translate(340.682 409.651) rotate(177.574) scale(286.88 405.348)">
<stop stop-color="#18546D"/>
<stop offset="1" stop-color="#296E8C"/>
</radialGradient>
<radialGradient id="paint26_radial_3088_534" cx="0" cy="0" r="1" gradientUnits="userSpaceOnUse" gradientTransform="translate(340.681 409.651) rotate(175.177) scale(286.88 405.347)">
<stop stop-color="#18546D"/>
<stop offset="1" stop-color="#296E8C"/>
</radialGradient>
<radialGradient id="paint27_radial_3088_534" cx="0" cy="0" r="1" gradientUnits="userSpaceOnUse" gradientTransform="translate(340.681 409.651) rotate(172.899) scale(286.88 405.348)">
<stop stop-color="#18546D"/>
<stop offset="1" stop-color="#296E8C"/>
</radialGradient>
<radialGradient id="paint28_radial_3088_534" cx="0" cy="0" r="1" gradientUnits="userSpaceOnUse" gradientTransform="translate(340.681 409.651) rotate(170.725) scale(286.88 405.347)">
<stop stop-color="#18546D"/>
<stop offset="1" stop-color="#296E8C"/>
</radialGradient>
<radialGradient id="paint29_radial_3088_534" cx="0" cy="0" r="1" gradientUnits="userSpaceOnUse" gradientTransform="translate(340.681 409.651) rotate(169.095) scale(286.88 405.347)">
<stop stop-color="#18546D"/>
<stop offset="1" stop-color="#296E8C"/>
</radialGradient>
<radialGradient id="paint30_radial_3088_534" cx="0" cy="0" r="1" gradientUnits="userSpaceOnUse" gradientTransform="translate(340.681 409.651) rotate(167.256) scale(286.88 405.348)">
<stop stop-color="#18546D"/>
<stop offset="1" stop-color="#296E8C"/>
</radialGradient>
<radialGradient id="paint31_radial_3088_534" cx="0" cy="0" r="1" gradientUnits="userSpaceOnUse" gradientTransform="translate(340.681 409.651) rotate(165.269) scale(286.88 405.347)">
<stop stop-color="#18546D"/>
<stop offset="1" stop-color="#296E8C"/>
</radialGradient>
<radialGradient id="paint32_radial_3088_534" cx="0" cy="0" r="1" gradientUnits="userSpaceOnUse" gradientTransform="translate(340.68 409.651) rotate(163.591) scale(286.88 405.347)">
<stop stop-color="#18546D"/>
<stop offset="1" stop-color="#296E8C"/>
</radialGradient>
<radialGradient id="paint33_radial_3088_534" cx="0" cy="0" r="1" gradientUnits="userSpaceOnUse" gradientTransform="translate(340.681 409.651) rotate(161.845) scale(286.88 405.348)">
<stop stop-color="#18546D"/>
<stop offset="1" stop-color="#296E8C"/>
</radialGradient>
<radialGradient id="paint34_radial_3088_534" cx="0" cy="0" r="1" gradientUnits="userSpaceOnUse" gradientTransform="translate(340.681 409.65) rotate(160.218) scale(286.88 405.347)">
<stop stop-color="#18546D"/>
<stop offset="1" stop-color="#296E8C"/>
</radialGradient>
<radialGradient id="paint35_radial_3088_534" cx="0" cy="0" r="1" gradientUnits="userSpaceOnUse" gradientTransform="translate(340.681 409.651) rotate(158.488) scale(286.88 405.348)">
<stop stop-color="#18546D"/>
<stop offset="1" stop-color="#296E8C"/>
</radialGradient>
<radialGradient id="paint36_radial_3088_534" cx="0" cy="0" r="1" gradientUnits="userSpaceOnUse" gradientTransform="translate(340.68 409.651) rotate(156.466) scale(286.88 405.348)">
<stop stop-color="#18546D"/>
<stop offset="1" stop-color="#296E8C"/>
</radialGradient>
<radialGradient id="paint37_radial_3088_534" cx="0" cy="0" r="1" gradientUnits="userSpaceOnUse" gradientTransform="translate(340.681 409.651) rotate(154.319) scale(286.88 405.348)">
<stop stop-color="#18546D"/>
<stop offset="1" stop-color="#296E8C"/>
</radialGradient>
<radialGradient id="paint38_radial_3088_534" cx="0" cy="0" r="1" gradientUnits="userSpaceOnUse" gradientTransform="translate(340.681 409.651) rotate(151.978) scale(286.88 405.348)">
<stop stop-color="#18546D"/>
<stop offset="1" stop-color="#296E8C"/>
</radialGradient>
<radialGradient id="paint39_radial_3088_534" cx="0" cy="0" r="1" gradientUnits="userSpaceOnUse" gradientTransform="translate(340.68 409.65) rotate(149.75) scale(286.88 405.348)">
<stop stop-color="#18546D"/>
<stop offset="1" stop-color="#296E8C"/>
</radialGradient>
<radialGradient id="paint40_radial_3088_534" cx="0" cy="0" r="1" gradientUnits="userSpaceOnUse" gradientTransform="translate(340.681 409.651) rotate(147.107) scale(286.88 405.348)">
<stop stop-color="#18546D"/>
<stop offset="1" stop-color="#296E8C"/>
</radialGradient>
<radialGradient id="paint41_radial_3088_534" cx="0" cy="0" r="1" gradientUnits="userSpaceOnUse" gradientTransform="translate(340.681 409.651) rotate(144.521) scale(286.88 405.348)">
<stop stop-color="#18546D"/>
<stop offset="1" stop-color="#296E8C"/>
</radialGradient>
<radialGradient id="paint42_radial_3088_534" cx="0" cy="0" r="1" gradientUnits="userSpaceOnUse" gradientTransform="translate(340.681 409.651) rotate(142.289) scale(286.88 405.348)">
<stop stop-color="#18546D"/>
<stop offset="1" stop-color="#296E8C"/>
</radialGradient>
<radialGradient id="paint43_radial_3088_534" cx="0" cy="0" r="1" gradientUnits="userSpaceOnUse" gradientTransform="translate(340.681 409.651) rotate(140.419) scale(286.88 405.348)">
<stop stop-color="#18546D"/>
<stop offset="1" stop-color="#296E8C"/>
</radialGradient>
<radialGradient id="paint44_radial_3088_534" cx="0" cy="0" r="1" gradientUnits="userSpaceOnUse" gradientTransform="translate(340.68 409.651) rotate(138.402) scale(286.88 405.348)">
<stop stop-color="#18546D"/>
<stop offset="1" stop-color="#296E8C"/>
</radialGradient>
<radialGradient id="paint45_radial_3088_534" cx="0" cy="0" r="1" gradientUnits="userSpaceOnUse" gradientTransform="translate(340.681 409.65) rotate(136.39) scale(286.88 405.348)">
<stop stop-color="#18546D"/>
<stop offset="1" stop-color="#296E8C"/>
</radialGradient>
<radialGradient id="paint46_radial_3088_534" cx="0" cy="0" r="1" gradientUnits="userSpaceOnUse" gradientTransform="translate(340.681 409.651) rotate(134.235) scale(286.88 405.348)">
<stop stop-color="#18546D"/>
<stop offset="1" stop-color="#296E8C"/>
</radialGradient>
<clipPath id="clip0_3088_534">
<rect width="684" height="524" fill="white"/>
</clipPath>
</defs>
</svg>
