<svg width="684" height="524" viewBox="0 0 684 524" fill="none" xmlns="http://www.w3.org/2000/svg">
<g clip-path="url(#clip0_3002_778)">
<mask id="mask0_3002_778" style="mask-type:alpha" maskUnits="userSpaceOnUse" x="-1" y="-1" width="686" height="526">
<rect width="684" height="524" rx="1.94444" fill="#00FF85" stroke="white" stroke-opacity="0.4" stroke-width="0.972222"/>
</mask>
<g mask="url(#mask0_3002_778)">
<path d="M544.295 78.854C628.844 105.264 698.529 78.8386 742.816 62.0444C746.399 60.6857 749.816 59.39 753.06 58.1904C763.933 54.1712 772.77 51.2717 779.481 50.6217C782.826 50.2978 785.547 50.544 787.692 51.4197C789.803 52.2815 791.427 53.781 792.559 56.1272C793.706 58.5051 794.358 61.7813 794.421 66.1762C794.484 70.5636 793.959 76.0006 792.804 82.6559C790.496 95.968 785.692 114.034 778.174 138.103C748.103 234.37 680.511 407.774 597.712 549.984C556.308 621.095 511.141 684.339 465.008 726.244C418.849 768.171 371.963 788.534 327.001 774.489C145.606 717.827 47.0878 516.194 107.109 324.046C167.13 131.898 362.9 22.1921 544.295 78.854Z" stroke="url(#paint0_linear_3002_778)" stroke-width="2.08017"/>
<path d="M532.945 73.434C618.469 96.4933 687.059 67.3429 730.65 48.8171C734.177 47.3183 737.54 45.889 740.735 44.5625C751.441 40.1182 760.157 36.8727 766.837 35.9589C770.166 35.5035 772.895 35.6424 775.073 36.4328C777.216 37.2108 778.898 38.6452 780.122 40.945C781.361 43.2759 782.142 46.5238 782.378 50.9128C782.614 55.2943 782.303 60.7478 781.412 67.4434C779.629 80.8361 775.541 99.0768 768.977 123.424C742.721 220.801 682.013 396.733 604.88 542.094C566.31 614.781 523.669 679.755 479.222 723.444C434.751 767.158 388.703 789.351 343.223 777.089C159.737 727.616 53.3523 530.021 105.757 335.658C158.163 141.294 349.46 23.9616 532.945 73.434Z" stroke="url(#paint1_linear_3002_778)" stroke-width="2.08017"/>
<path d="M518.995 67.5004C605.517 86.4727 672.645 54.0982 715.307 33.5236C718.759 31.859 722.05 30.2716 725.179 28.7949C735.661 23.8472 744.213 20.1916 750.843 18.9616C754.147 18.3486 756.879 18.3577 759.092 19.0439C761.27 19.7192 763.018 21.0721 764.349 23.3112C765.698 25.5806 766.632 28.7878 767.076 33.1606C767.52 37.526 767.468 42.9882 766.896 49.7184C765.752 63.1807 762.534 81.595 757.133 106.226C735.531 204.74 683.245 383.356 613.102 532.216C578.027 606.653 538.519 673.578 496.197 719.329C453.851 765.105 408.909 789.459 362.898 779.37C177.27 738.666 61.6227 546.345 104.74 349.713C147.857 153.08 333.367 26.7964 518.995 67.5004Z" stroke="url(#paint2_linear_3002_778)" stroke-width="2.08017"/>
<path d="M503.919 62.1568C591 78.3713 657.066 43.881 699.053 21.9616C702.45 20.1882 705.689 18.4971 708.769 16.9217C719.09 11.6436 727.521 7.71816 734.108 6.27817C737.391 5.56063 740.122 5.4829 742.356 6.09841C744.554 6.70421 746.345 8.00089 747.746 10.1966C749.166 12.422 750.202 15.5979 750.785 19.9544C751.366 24.3035 751.489 29.7646 751.13 36.5096C750.414 50.0015 747.783 68.5086 743.167 93.2991C724.706 192.449 678.119 372.636 612.739 523.649C580.046 599.162 542.684 667.308 501.837 714.38C460.967 761.478 416.821 787.248 370.512 778.626C183.685 743.838 61.9875 555.288 98.837 357.385C135.687 159.482 317.091 27.3696 503.919 62.1568Z" stroke="url(#paint3_linear_3002_778)" stroke-width="2.08017"/>
<path d="M490.916 57.7747C578.614 70.2314 643.137 32.9334 684.143 9.22963C687.46 7.31189 690.624 5.48312 693.633 3.77685C703.717 -1.94 711.972 -6.22418 718.491 -7.94595C721.74 -8.80391 724.465 -8.99896 726.723 -8.48003C728.946 -7.96927 730.79 -6.75074 732.285 -4.61728C733.799 -2.45498 734.971 0.673502 735.74 5.00092C736.508 9.321 736.865 14.7717 736.797 21.526C736.661 35.0361 734.828 53.6393 731.282 78.6052C717.099 178.457 678.3 360.48 619.471 514.163C590.054 591.012 555.655 660.701 516.869 709.485C478.061 758.296 435.063 785.94 388.427 779.315C200.277 752.59 70.5881 569.445 98.8977 370.141C127.207 170.837 302.766 31.0495 490.916 57.7747Z" stroke="url(#paint4_linear_3002_778)" stroke-width="2.08017"/>
<path d="M479.052 54.308C567.166 63.3603 630.197 23.5922 670.254 -1.6813C673.495 -3.72604 676.585 -5.67591 679.527 -7.49742C689.382 -13.6004 697.465 -18.2009 703.912 -20.1738C707.125 -21.1569 709.841 -21.4573 712.118 -21.0262C714.358 -20.6018 716.248 -19.4556 717.824 -17.3816C719.421 -15.2796 720.713 -12.1988 721.649 -7.90441C722.584 -3.61731 723.152 1.81551 723.345 8.56731C723.732 22.0726 722.621 40.7328 720.044 65.8173C709.737 166.144 678.015 349.532 625.18 505.377C598.76 583.307 567.085 654.276 530.216 704.525C493.327 754.802 451.432 784.089 404.574 779.275C215.53 759.854 78.8482 581.867 99.4206 381.617C119.993 181.366 290.009 34.887 479.052 54.308Z" stroke="url(#paint5_linear_3002_778)" stroke-width="2.08017"/>
<path d="M466.681 51.2168C555.086 56.7427 616.479 14.4891 655.495 -12.3641C658.651 -14.5366 661.661 -16.6084 664.528 -18.5459C674.131 -25.0376 682.024 -29.9573 688.387 -32.1861C691.558 -33.2967 694.26 -33.7054 696.552 -33.3655C698.808 -33.031 700.742 -31.9612 702.4 -29.9518C704.08 -27.9152 705.493 -24.8884 706.6 -20.6349C707.706 -16.3885 708.49 -10.9827 708.953 -4.24403C709.879 9.23503 709.514 27.9247 707.941 53.0921C701.649 153.75 677.276 338.259 630.707 496.09C607.421 575.013 578.605 647.19 543.773 698.872C508.921 750.582 468.229 781.519 421.216 778.58C231.548 766.725 87.8665 594.338 100.425 393.426C112.983 192.514 277.013 39.3613 466.681 51.2168Z" stroke="url(#paint6_linear_3002_778)" stroke-width="2.08017"/>
<path d="M456.306 49.0235C544.846 51.61 604.801 7.34052 642.904 -20.7937C645.987 -23.0699 648.926 -25.2405 651.726 -27.2722C661.109 -34.0792 668.834 -39.2584 675.12 -41.6973C678.252 -42.9126 680.939 -43.4108 683.241 -43.1473C685.506 -42.8878 687.475 -41.8829 689.199 -39.9296C690.946 -37.95 692.459 -34.9719 693.707 -30.7574C694.952 -26.5501 695.915 -21.1733 696.602 -14.4538C697.976 -1.01289 698.231 17.6786 697.495 42.8844C694.55 143.696 676.319 328.912 635.018 488.203C614.366 567.856 587.964 640.95 554.867 693.76C521.752 746.599 482.11 778.871 435.026 777.496C245.068 771.947 95.7404 604.428 101.618 403.209C107.497 201.991 266.349 43.4744 456.306 49.0235Z" stroke="url(#paint7_linear_3002_778)" stroke-width="2.08017"/>
<path d="M441.588 46.522C530.152 44.9656 587.971 -2.05882 624.717 -31.9439C627.69 -34.3618 630.525 -36.6674 633.227 -38.8278C642.281 -46.0661 649.755 -51.6008 655.92 -54.331C658.992 -55.6915 661.653 -56.3147 663.965 -56.1591C666.24 -56.0059 668.254 -55.0941 670.066 -53.2236C671.904 -51.3278 673.554 -48.4236 674.998 -44.2722C676.439 -40.1277 677.653 -34.8018 678.653 -28.1217C680.653 -14.7598 681.783 3.89927 682.226 29.1119C683.998 129.951 674.447 315.817 640.64 476.865C623.734 557.396 600.779 631.645 570.188 685.945C539.579 740.275 501.49 774.365 454.393 775.193C264.384 778.532 107.386 618.178 103.849 416.905C100.312 215.632 251.579 49.861 441.588 46.522Z" stroke="url(#paint8_linear_3002_778)" stroke-width="2.08017"/>
<path d="M427.692 44.8045C516.102 39.3657 571.804 -10.1492 607.203 -41.6171C610.067 -44.163 612.798 -46.5907 615.403 -48.8675C624.131 -56.4959 631.355 -62.3531 637.395 -65.3511C640.404 -66.845 643.035 -67.5843 645.351 -67.5302C647.631 -67.4769 649.683 -66.6543 651.576 -64.8651C653.495 -63.0517 655.271 -60.2227 656.895 -56.1386C658.517 -52.0613 659.963 -46.7938 661.255 -40.1639C663.839 -26.9026 665.786 -8.31102 667.335 16.858C673.527 117.522 672.137 303.628 645.425 466.004C632.068 547.199 612.391 622.383 584.21 677.973C556.014 733.592 519.456 769.32 472.441 772.212C282.761 783.881 118.882 630.567 106.521 429.643C94.1607 228.718 238.012 56.4733 427.692 44.8045Z" stroke="url(#paint9_linear_3002_778)" stroke-width="2.08017"/>
<path d="M413.331 43.6751C501.406 34.2528 554.817 -17.7248 588.761 -50.7578C591.507 -53.4303 594.126 -55.9788 596.625 -58.3708C605 -66.3853 611.953 -72.5624 617.851 -75.8299C620.79 -77.458 623.385 -78.3153 625.701 -78.3657C627.981 -78.4153 630.068 -77.6862 632.039 -75.9842C634.038 -74.2592 635.94 -71.5133 637.747 -67.5065C639.551 -63.5066 641.233 -58.3097 642.823 -51.7449C646.003 -38.6136 648.787 -20.1288 651.469 4.94465C662.197 105.227 669.205 291.206 649.847 454.622C640.166 536.337 623.902 612.333 598.258 669.137C572.6 725.972 537.691 763.313 490.854 768.323C301.894 788.538 131.264 642.774 109.851 442.612C88.4378 242.45 224.371 63.89 413.331 43.6751Z" stroke="url(#paint10_linear_3002_778)" stroke-width="2.08017"/>
<path d="M399.026 43.1974C486.59 29.8342 537.616 -24.4867 570.043 -59.0089C572.667 -61.8019 575.169 -64.4653 577.558 -66.967C585.565 -75.349 592.234 -81.8318 597.98 -85.3605C600.843 -87.1188 603.396 -88.0916 605.708 -88.2459C607.983 -88.3977 610.101 -87.7629 612.147 -86.151C614.221 -84.5174 616.245 -81.8596 618.229 -77.9379C620.211 -74.0229 622.124 -68.9067 624.007 -62.4198C627.773 -49.4444 631.383 -31.1031 635.187 -6.17514C650.402 93.5248 665.745 279.003 653.735 443.122C647.73 525.19 634.89 601.838 611.82 659.735C588.737 717.664 555.539 756.533 508.973 763.639C321.11 792.309 144.114 654.345 113.745 455.345C83.3752 256.345 211.163 71.8674 399.026 43.1974Z" stroke="url(#paint11_linear_3002_778)" stroke-width="2.08017"/>
<path d="M384.663 43.3621C471.537 26.0729 520.067 -30.4887 550.909 -66.4349C553.404 -69.3431 555.783 -72.1164 558.058 -74.7231C565.68 -83.4568 572.05 -90.2331 577.631 -94.0167C580.412 -95.9021 582.919 -96.9887 585.222 -97.2469C587.488 -97.5009 589.632 -96.962 591.748 -95.4438C593.894 -93.9052 596.035 -91.3411 598.194 -87.5127C600.35 -83.6908 602.491 -78.6658 604.664 -72.2702C609.01 -59.4774 613.441 -41.3171 618.363 -16.5855C638.049 82.3289 661.721 266.929 657.107 431.422C654.8 513.677 645.422 590.825 624.98 649.702C604.526 708.61 573.11 748.934 526.912 758.128C340.529 795.221 157.505 665.36 118.213 467.927C78.9211 270.495 198.28 80.4551 384.663 43.3621Z" stroke="url(#paint12_linear_3002_778)" stroke-width="2.08017"/>
<path d="M370.777 44.1364C456.816 23.0796 502.836 -35.5421 532.083 -72.7975C534.449 -75.8116 536.706 -78.6859 538.865 -81.3892C546.098 -90.4466 552.168 -97.4939 557.579 -101.517C560.275 -103.522 562.733 -104.717 565.022 -105.075C567.274 -105.427 569.44 -104.982 571.62 -103.558C573.831 -102.114 576.082 -99.6456 578.405 -95.9149C580.725 -92.1904 583.084 -87.2635 585.533 -80.9687C590.432 -68.3773 595.65 -50.4272 601.645 -25.9335C625.62 72.0297 657.31 255.424 659.865 419.962C661.143 502.239 655.134 579.722 637.276 639.433C619.408 699.177 589.778 740.83 544.024 752.028C359.433 797.204 170.927 675.438 123.073 479.904C75.2187 284.37 186.187 89.3123 370.777 44.1364Z" stroke="url(#paint13_linear_3002_778)" stroke-width="2.08017"/>
<path d="M359.937 45.165C445.208 21.1861 489.202 -38.9711 517.161 -77.2024C519.423 -80.2955 521.58 -83.245 523.646 -86.0204C530.566 -95.3192 536.392 -102.569 541.662 -106.775C544.289 -108.87 546.704 -110.148 548.98 -110.584C551.219 -111.013 553.398 -110.642 555.626 -109.293C557.885 -107.926 560.218 -105.535 562.668 -101.886C565.114 -98.2431 567.639 -93.3995 570.301 -87.1918C575.627 -74.7748 581.454 -57.0131 588.281 -32.7381C615.583 64.3503 653.509 246.557 661.675 410.912C665.759 493.097 662.396 570.741 646.584 631.026C630.764 691.344 602.572 733.984 557.227 746.736C374.284 798.181 181.735 682.915 127.24 489.128C72.7443 295.34 176.995 96.6104 359.937 45.165Z" stroke="url(#paint14_linear_3002_778)" stroke-width="2.08017"/>
<path d="M345.624 47.0982C429.722 19.2862 470.949 -42.7996 497.15 -82.2566C499.27 -85.4489 501.292 -88.493 503.229 -91.3589C509.722 -100.961 515.214 -108.468 520.289 -112.907C522.818 -115.119 525.173 -116.505 527.426 -117.044C529.644 -117.574 531.838 -117.302 534.125 -116.055C536.442 -114.791 538.882 -112.509 541.494 -108.974C544.102 -105.445 546.844 -100.721 549.785 -94.6399C555.667 -82.4766 562.291 -64.9967 570.209 -41.0553C601.876 54.6985 648.006 235.003 663.599 398.82C671.396 480.737 671.549 558.453 658.481 619.392C645.406 680.364 619.172 724.235 574.45 739.026C394.022 798.695 196.455 692.258 133.249 501.133C70.0424 310.009 165.196 106.767 345.624 47.0982Z" stroke="url(#paint15_linear_3002_778)" stroke-width="2.08017"/>
<path d="M333.546 49.2471C416.513 18.2242 455.325 -45.4 479.99 -85.8346C481.986 -89.1059 483.889 -92.2255 485.715 -95.1638C491.834 -105.009 497.033 -112.72 501.934 -117.352C504.376 -119.659 506.676 -121.135 508.907 -121.759C511.103 -122.374 513.306 -122.187 515.639 -121.028C518.003 -119.855 520.529 -117.668 523.275 -114.236C526.016 -110.81 528.938 -106.195 532.11 -100.231C538.455 -88.3028 545.747 -71.0904 554.578 -47.471C589.901 46.9954 642.925 225.394 664.801 388.491C675.74 470.048 678.88 547.701 668.163 609.096C657.441 670.526 632.912 715.373 588.79 731.871C410.789 798.429 209.278 699.662 138.774 511.107C68.2707 322.553 155.544 115.805 333.546 49.2471Z" stroke="url(#paint16_linear_3002_778)" stroke-width="2.08017"/>
<path d="M320.405 52.1361C401.991 17.6444 438.087 -47.5589 461.027 -88.9971C462.883 -92.3496 464.652 -95.5466 466.353 -98.5592C472.052 -108.653 476.922 -116.577 481.623 -121.411C483.965 -123.819 486.201 -125.39 488.404 -126.109C490.572 -126.815 492.78 -126.721 495.16 -125.662C497.572 -124.589 500.187 -122.51 503.076 -119.197C505.959 -115.89 509.073 -111.402 512.493 -105.577C519.335 -93.9269 527.346 -77.037 537.165 -53.8108C576.437 39.0831 636.933 215.088 665.662 377.119C680.029 458.142 686.438 535.594 678.318 597.387C670.194 659.214 647.576 705.055 604.19 723.397C429.151 797.397 223.657 707.21 145.27 521.794C66.883 336.379 145.366 126.136 320.405 52.1361Z" stroke="url(#paint17_linear_3002_778)" stroke-width="2.08017"/>
<path d="M305.453 56.141C385.271 17.7345 418.163 -49.142 439.067 -91.6436C440.758 -95.0822 442.371 -98.3612 443.924 -101.453C449.126 -111.811 453.606 -119.962 458.067 -125.018C460.29 -127.537 462.447 -129.215 464.613 -130.039C466.744 -130.85 468.954 -130.863 471.383 -129.92C473.844 -128.965 476.557 -127.016 479.603 -123.847C482.643 -120.683 485.97 -116.351 489.669 -110.699C497.068 -99.3945 505.888 -82.9128 516.821 -60.19C560.551 30.6908 629.508 203.556 666.06 364.003C684.337 444.235 694.493 521.285 689.379 583.399C684.262 645.547 663.893 692.43 621.447 712.854C450.201 795.253 240.577 715.135 153.293 533.737C66.009 352.34 134.207 138.54 305.453 56.141Z" stroke="url(#paint18_linear_3002_778)" stroke-width="2.08017"/>
<path d="M290.52 60.9336C368.355 18.6528 397.923 -49.7586 416.714 -93.2357C418.234 -96.7532 419.684 -100.107 421.083 -103.272C425.77 -113.873 429.844 -122.234 434.052 -127.503C436.148 -130.128 438.22 -131.91 440.343 -132.839C442.431 -133.754 444.638 -133.875 447.11 -133.053C449.615 -132.22 452.421 -130.407 455.618 -127.391C458.811 -124.381 462.347 -120.217 466.319 -114.754C474.264 -103.826 483.883 -87.7976 495.919 -65.6392C544.06 22.9839 621.425 192.254 665.813 350.712C688.009 429.948 701.938 506.407 699.881 568.697C697.822 631.021 679.781 678.849 638.389 701.333C471.398 792.044 258.091 722.319 162.003 545.427C65.914 368.536 123.528 151.645 290.52 60.9336Z" stroke="url(#paint19_linear_3002_778)" stroke-width="2.08017"/>
<path d="M274.396 67.0417C349.835 20.6199 375.666 -49.2882 392.082 -93.7165C393.41 -97.3109 394.676 -100.739 395.902 -103.974C400.011 -114.813 403.627 -123.381 407.544 -128.87C409.496 -131.605 411.469 -133.495 413.538 -134.538C415.574 -135.564 417.771 -135.805 420.284 -135.117C422.83 -134.421 425.73 -132.761 429.085 -129.923C432.436 -127.089 436.191 -123.123 440.452 -117.882C448.976 -107.399 459.446 -91.9131 472.662 -70.437C525.518 15.4575 611.909 180.303 664.789 336.133C691.231 414.056 709.268 489.65 710.577 551.961C711.886 614.305 696.454 663.037 656.337 687.724C494.487 787.319 277.726 729.213 172.227 557.768C66.7272 386.323 112.546 166.637 274.396 67.0417Z" stroke="url(#paint20_linear_3002_778)" stroke-width="2.08017"/>
<path d="M259.257 73.7123C332.19 23.4444 354.364 -47.7081 368.456 -92.9272C369.596 -96.5856 370.684 -100.074 371.74 -103.368C375.282 -114.406 378.449 -123.15 382.077 -128.834C383.884 -131.667 385.756 -133.657 387.769 -134.806C389.749 -135.936 391.931 -136.29 394.476 -135.734C397.055 -135.17 400.036 -133.663 403.535 -131.002C407.027 -128.346 410.983 -124.579 415.51 -119.566C424.565 -109.539 435.824 -94.6163 450.134 -73.8537C507.369 9.18695 602.185 169.335 663.067 322.216C693.511 398.665 715.44 473.223 719.975 535.382C724.514 597.575 711.627 647.041 672.842 673.773C516.37 781.62 296.89 734.822 182.65 569.073C68.4092 403.324 102.785 181.559 259.257 73.7123Z" stroke="url(#paint21_linear_3002_778)" stroke-width="2.08017"/>
<path d="M245.908 80.3986C316.41 26.7752 335.233 -45.3364 347.195 -91.165C348.163 -94.8727 349.086 -98.4084 349.987 -101.748C353.009 -112.939 355.764 -121.822 359.122 -127.67C360.795 -130.584 362.572 -132.659 364.528 -133.901C366.453 -135.122 368.616 -135.578 371.184 -135.141C373.787 -134.699 376.836 -133.333 380.455 -130.839C384.067 -128.348 388.195 -124.771 392.952 -119.975C402.466 -110.382 414.41 -96.0026 429.676 -75.9319C490.731 4.34154 592.932 159.881 660.897 309.748C694.882 384.689 720.274 458.14 727.711 520.019C735.152 581.932 724.593 631.946 687.101 660.462C535.843 775.508 314.414 739.025 192.548 578.8C70.6821 418.575 94.6501 195.444 245.908 80.3986Z" stroke="url(#paint22_linear_3002_778)" stroke-width="2.08017"/>
<path d="M234.437 86.7903C302.673 30.3123 318.514 -42.5124 328.581 -88.7943C329.395 -92.5387 330.172 -96.1094 330.936 -99.4836C333.494 -110.789 335.881 -119.778 338.996 -125.759C340.548 -128.739 342.238 -130.886 344.141 -132.207C346.015 -133.507 348.157 -134.051 350.741 -133.72C353.36 -133.385 356.462 -132.146 360.18 -129.802C363.892 -127.463 368.164 -124.058 373.114 -119.462C383.015 -110.269 395.54 -96.3925 411.618 -76.9667C475.924 0.727456 584.436 151.931 658.508 298.876C695.547 372.355 723.938 444.7 733.914 506.221C743.896 567.775 735.403 618.182 699.115 648.216C552.717 769.386 329.976 742.041 201.622 586.964C73.2687 431.887 88.0385 207.96 234.437 86.7903Z" stroke="url(#paint23_linear_3002_778)" stroke-width="2.08017"/>
<path d="M221.581 94.7171C287.07 35.0747 299.448 -38.4179 307.314 -85.1241C307.951 -88.9028 308.557 -92.5063 309.161 -95.9129C311.181 -107.327 313.141 -116.419 315.969 -122.54C317.378 -125.59 318.965 -127.815 320.804 -129.224C322.613 -130.611 324.728 -131.256 327.324 -131.048C329.956 -130.837 333.113 -129.746 336.938 -127.581C340.757 -125.42 345.185 -122.221 350.347 -117.864C360.671 -109.149 373.839 -95.8811 390.818 -77.2376C458.727 -2.67227 574.27 143.229 655.209 286.506C695.683 358.151 727.464 429.072 740.339 490.052C753.222 551.065 747.122 601.817 712.296 633.534C571.793 761.493 348.008 744.715 212.463 595.884C76.9173 447.052 81.0783 222.677 221.581 94.7171Z" stroke="url(#paint24_linear_3002_778)" stroke-width="2.08017"/>
<path d="M210.38 102.338C273.279 39.9705 282.527 -33.9811 288.405 -80.9791C288.88 -84.7814 289.334 -88.4073 289.792 -91.8365C291.327 -103.326 292.899 -112.493 295.464 -118.728C296.743 -121.836 298.233 -124.126 300.011 -125.612C301.76 -127.074 303.845 -127.808 306.448 -127.711C309.087 -127.612 312.287 -126.655 316.201 -124.655C320.108 -122.657 324.667 -119.649 330.009 -115.516C340.694 -107.247 354.413 -94.5493 372.168 -76.643C443.18 -5.02633 564.81 135.841 651.756 275.554C695.233 345.417 729.995 414.926 745.446 475.304C760.906 535.716 756.965 586.681 723.516 619.847C588.57 753.653 364.274 746.386 222.536 603.44C80.7971 460.494 75.4336 236.144 210.38 102.338Z" stroke="url(#paint25_linear_3002_778)" stroke-width="2.08017"/>
<path d="M199.663 110.31C259.898 45.3652 266.045 -28.9085 269.951 -76.1112C270.267 -79.9301 270.569 -83.5718 270.883 -87.0171C271.935 -98.5608 273.123 -107.785 275.425 -114.123C276.572 -117.281 277.966 -119.631 279.68 -121.19C281.367 -122.725 283.419 -123.545 286.024 -123.557C288.664 -123.568 291.902 -122.747 295.896 -120.911C299.883 -119.079 304.564 -116.265 310.074 -112.358C321.096 -104.543 335.334 -92.4309 353.823 -75.283C427.768 -6.69979 555.185 128.956 647.899 264.909C694.261 332.893 731.9 400.886 749.864 460.565C767.837 520.278 766.032 571.363 734 605.899C604.77 745.233 380.366 747.356 232.771 610.464C85.177 473.573 70.4328 249.644 199.663 110.31Z" stroke="url(#paint26_linear_3002_778)" stroke-width="2.08017"/>
<path d="M189.8 118.292C247.406 51.0051 250.596 -23.4543 252.623 -70.7749C252.787 -74.6034 252.943 -78.2542 253.12 -81.7093C253.714 -93.2856 254.533 -102.55 256.582 -108.974C257.603 -112.175 258.902 -114.579 260.552 -116.205C262.177 -117.805 264.195 -118.707 266.797 -118.822C269.435 -118.938 272.703 -118.246 276.767 -116.571C280.823 -114.899 285.613 -112.272 291.274 -108.588C302.597 -101.217 317.306 -89.6804 336.461 -73.2809C413.074 -7.69086 545.782 122.794 643.827 254.955C692.854 321.041 733.166 387.485 753.487 446.403C773.819 505.354 774.046 556.47 743.412 592.253C619.822 736.613 395.68 747.653 242.761 616.736C89.8424 485.819 66.2096 262.653 189.8 118.292Z" stroke="url(#paint27_linear_3002_778)" stroke-width="2.08017"/>
<path d="M180.688 126.271C235.7 56.8471 236.063 -17.6797 236.293 -65.0432C236.312 -68.8751 236.33 -72.5292 236.376 -75.9885C236.529 -87.5791 236.997 -96.8679 238.8 -103.365C239.699 -106.602 240.906 -109.054 242.494 -110.741C244.056 -112.402 246.039 -113.38 248.635 -113.593C251.266 -113.809 254.558 -113.242 258.682 -111.722C262.799 -110.205 267.685 -107.762 273.482 -104.295C285.077 -97.3596 300.212 -86.3888 319.976 -70.7279C399.022 -8.09141 536.584 117.265 639.572 245.611C691.071 309.79 733.875 374.657 756.417 432.762C778.971 490.899 781.137 541.97 751.882 578.888C633.857 727.834 410.295 747.369 252.52 622.347C94.745 497.325 62.6632 275.216 180.688 126.271Z" stroke="url(#paint28_linear_3002_778)" stroke-width="2.08017"/>
<path d="M174.06 132.476C227.075 61.5151 225.318 -12.9918 224.201 -60.3427C224.111 -64.1736 224.025 -67.8268 223.972 -71.2859C223.796 -82.8761 223.999 -92.1745 225.617 -98.7202C226.423 -101.982 227.56 -104.467 229.099 -106.199C230.614 -107.903 232.568 -108.937 235.157 -109.224C237.781 -109.515 241.087 -109.041 245.253 -107.64C249.412 -106.24 254.365 -103.937 260.258 -100.636C272.046 -94.0336 287.487 -83.4977 307.688 -68.4052C388.484 -8.04241 529.556 113.35 636.153 238.716C689.456 301.404 734.087 365.027 758.273 422.467C782.471 479.939 786.089 530.928 757.896 568.664C644.155 720.906 421.239 746.791 259.972 626.308C98.7051 505.824 60.3189 284.718 174.06 132.476Z" stroke="url(#paint29_linear_3002_778)" stroke-width="2.08017"/>
<path d="M166.796 139.701C217.507 67.0755 213.36 -7.33664 210.724 -54.6273C210.511 -58.4533 210.307 -62.1018 210.144 -65.5575C209.595 -77.1361 209.5 -86.4363 210.907 -93.0305C211.608 -96.3165 212.665 -98.8365 214.148 -100.617C215.607 -102.369 217.527 -103.465 220.105 -103.835C222.718 -104.21 226.039 -103.843 230.247 -102.575C234.449 -101.31 239.473 -99.1676 245.469 -96.0574C257.463 -89.8363 273.234 -79.8014 293.909 -65.365C376.6 -7.62615 521.496 109.177 632.061 231.056C687.348 292.002 733.999 354.16 760.015 410.794C786.045 467.46 791.298 518.306 764.33 556.928C655.534 712.741 433.564 745.768 268.513 630.521C103.462 515.275 57.9999 295.515 166.796 139.701Z" stroke="url(#paint30_linear_3002_778)" stroke-width="2.08017"/>
<path d="M159.213 147.765C207.375 73.4254 200.65 -0.798218 196.376 -47.9691C196.03 -51.7854 195.7 -55.4246 195.417 -58.8726C194.468 -70.4252 194.05 -79.7165 195.228 -86.3555C195.815 -89.6638 196.783 -92.219 198.203 -94.0498C199.6 -95.8515 201.481 -97.013 204.045 -97.4724C206.644 -97.938 209.975 -97.6859 214.225 -96.5653C218.468 -95.4465 223.564 -93.4794 229.664 -90.579C241.866 -84.7774 257.976 -75.2954 279.139 -61.5846C363.782 -6.74765 512.641 104.961 627.365 222.934C684.733 281.926 733.51 342.429 761.475 398.127C789.454 453.856 796.466 504.49 770.854 544.023C667.526 703.515 446.834 744.218 277.887 634.764C108.939 525.31 55.8845 307.258 159.213 147.765Z" stroke="url(#paint31_linear_3002_778)" stroke-width="2.08017"/>
<path d="M153.029 154.777C198.993 79.0579 190.097 5.06312 184.444 -41.9623C183.986 -45.7669 183.55 -49.3949 183.166 -52.8331C181.879 -64.353 181.189 -73.628 182.172 -80.2987C182.662 -83.6227 183.555 -86.2052 184.921 -88.0768C186.265 -89.9186 188.111 -91.1348 190.66 -91.669C193.244 -92.2106 196.581 -92.0561 200.862 -91.0604C205.136 -90.0664 210.287 -88.2494 216.47 -85.5289C228.836 -80.0871 245.217 -71.081 266.773 -57.9958C352.986 -5.66127 505.051 101.64 623.182 216.202C682.253 273.489 732.781 332.537 762.364 387.393C791.964 442.279 800.456 492.685 776.013 532.951C677.399 695.401 457.995 742.55 285.914 638.091C113.834 533.631 54.4158 317.227 153.029 154.777Z" stroke="url(#paint32_linear_3002_778)" stroke-width="2.08017"/>
<path d="M146.818 162.258C190.455 85.1748 179.309 11.4853 172.226 -35.3461C171.653 -39.135 171.106 -42.748 170.618 -46.1729C168.98 -57.6482 168.008 -66.8979 168.787 -73.5955C169.176 -76.9329 169.99 -79.5413 171.298 -81.4537C172.585 -83.3356 174.393 -84.6074 176.925 -85.2191C179.492 -85.8391 182.832 -85.7863 187.141 -84.9215C191.443 -84.0581 196.647 -82.3988 202.91 -79.8679C215.436 -74.8054 232.084 -66.3024 254.028 -53.8798C341.795 -4.19557 497.059 98.424 618.624 209.335C679.412 264.796 731.716 322.278 762.956 376.207C794.214 430.165 804.237 480.29 781.032 521.282C687.413 686.66 469.546 740.47 294.363 641.301C119.181 542.131 53.199 327.637 146.818 162.258Z" stroke="url(#paint33_linear_3002_778)" stroke-width="2.08017"/>
<path d="M141.236 169.401C182.665 91.1091 169.432 17.7658 161.022 -28.8456C160.341 -32.6166 159.692 -36.2127 159.106 -39.6223C157.144 -51.0465 155.91 -60.2649 156.498 -66.9819C156.791 -70.329 157.531 -72.9595 158.785 -74.9082C160.018 -76.8259 161.789 -78.1486 164.303 -78.8319C166.85 -79.5245 170.191 -79.5666 174.523 -78.8245C178.848 -78.0837 184.097 -76.5728 190.429 -74.2208C203.094 -69.516 219.976 -61.4891 242.264 -49.6947C331.407 -2.52283 489.522 95.6463 614.188 203.061C676.526 256.773 730.441 312.746 763.2 365.766C795.978 418.816 807.42 468.635 785.389 510.27C696.503 678.24 480.252 738.215 302.324 644.06C124.396 549.905 52.3501 337.371 141.236 169.401Z" stroke="url(#paint34_linear_3002_778)" stroke-width="2.08017"/>
<path d="M135.524 177.167C174.571 97.6597 159.128 24.7494 149.314 -21.5867C148.52 -25.3355 147.763 -28.9104 147.075 -32.3007C144.768 -43.6605 143.256 -52.8373 143.641 -59.5691C143.833 -62.9235 144.494 -65.5751 145.687 -67.5608C146.862 -69.5149 148.593 -70.8904 151.085 -71.6493C153.61 -72.4186 156.948 -72.5615 161.3 -71.9506C165.645 -71.3407 170.938 -69.989 177.338 -67.8293C190.14 -63.5091 207.256 -55.9957 229.891 -44.8798C320.417 -0.42136 481.425 92.9282 609.277 196.529C673.209 248.334 728.79 302.654 763.135 354.66C797.5 406.696 810.442 456.147 789.677 498.428C705.905 669.006 491.563 735.484 310.873 646.745C130.183 558.006 51.7516 347.744 135.524 177.167Z" stroke="url(#paint35_linear_3002_778)" stroke-width="2.08017"/>
<path d="M129.152 186.453C165.37 105.618 147.365 33.2979 135.923 -12.6632C134.997 -16.3817 134.114 -19.9276 133.307 -23.2916C130.601 -34.5628 128.766 -43.6807 128.914 -50.4218C128.987 -53.7809 129.553 -56.4542 130.676 -58.4807C131.782 -60.4751 133.463 -61.9108 135.926 -62.7571C138.423 -63.615 141.753 -63.8756 146.125 -63.4186C150.489 -62.9623 155.826 -61.7982 162.298 -59.8656C175.244 -55.9997 192.615 -49.0948 215.627 -38.7842C307.666 2.45314 471.866 90.0649 603.293 189.091C669.013 238.609 726.476 290.934 762.634 341.697C798.813 392.487 813.491 441.451 794.231 484.438C716.528 657.865 504.665 731.863 320.957 649.553C137.249 567.244 51.4494 359.88 129.152 186.453Z" stroke="url(#paint36_linear_3002_778)" stroke-width="2.08017"/>
<path d="M122.749 196.553C155.914 114.418 135.213 42.8229 122.057 -2.67743C120.993 -6.3586 119.978 -9.86896 119.044 -13.2003C115.918 -24.3623 113.743 -33.4051 113.638 -40.147C113.586 -43.5065 114.052 -46.1991 115.098 -48.2663C116.128 -50.3006 117.754 -51.7983 120.184 -52.7363C122.647 -53.6871 125.965 -54.0722 130.35 -53.7793C134.729 -53.4868 140.105 -52.5234 146.645 -50.8345C159.727 -47.4563 177.345 -41.2069 200.727 -31.7655C294.245 5.99554 461.612 87.3955 596.656 181.429C664.185 228.451 723.567 278.587 761.601 327.96C799.657 377.36 816.159 425.739 798.523 469.418C727.37 645.633 518.427 727.515 331.765 652.144C145.103 576.773 51.5967 372.768 122.749 196.553Z" stroke="url(#paint37_linear_3002_778)" stroke-width="2.08017"/>
<path d="M116.203 207.831C145.985 124.41 122.377 53.7206 107.374 8.79565C106.16 5.16103 105.002 1.69505 103.934 -1.59543C100.354 -12.6204 97.8118 -21.5668 97.4317 -28.2988C97.2423 -31.6533 97.5975 -34.3627 98.5585 -36.4709C99.5043 -38.5456 101.068 -40.1085 103.458 -41.1449C105.88 -42.1955 109.179 -42.7159 113.573 -42.6023C117.96 -42.4889 123.371 -41.7459 129.975 -40.3256C143.183 -37.4845 161.042 -31.9599 184.79 -23.4815C279.773 10.4283 450.325 84.9242 589.097 173.364C658.49 217.587 719.87 265.256 759.89 313.034C799.931 360.839 818.396 408.504 802.558 452.866C738.662 631.841 533.239 722.188 343.654 654.505C154.069 586.821 52.3076 386.806 116.203 207.831Z" stroke="url(#paint38_linear_3002_778)" stroke-width="2.08017"/>
<path d="M110.405 218.809C136.921 134.293 110.582 64.5749 93.8428 20.2673C92.4885 16.6827 91.1971 13.2643 90.0015 10.0179C85.9958 -0.859576 83.1073 -9.70027 82.4657 -16.4124C82.146 -19.7571 82.3956 -22.4782 83.2739 -24.6222C84.1383 -26.7321 85.6398 -28.3546 87.9874 -29.4832C90.3668 -30.6272 93.6438 -31.2755 98.0387 -31.3329C102.426 -31.3901 107.863 -30.8581 114.516 -29.6956C127.826 -27.3703 145.885 -22.5444 169.945 -14.9958C266.175 15.1947 439.495 83.0021 581.601 165.978C652.661 207.47 715.849 252.716 757.696 298.902C799.566 345.113 819.87 392.024 805.769 436.969C748.882 618.293 547.127 716.56 355.053 656.3C162.98 596.04 53.5177 400.133 110.405 218.809Z" stroke="url(#paint39_linear_3002_778)" stroke-width="2.08017"/>
<path d="M104.088 232.108C126.678 146.459 97.1523 78.0299 78.3878 34.5414C76.8697 31.023 75.422 27.6679 74.078 24.48C69.575 13.7989 66.2819 5.10077 65.3314 -1.57465C64.8578 -4.901 64.9816 -7.63077 65.7601 -9.81298C66.5263 -11.9605 67.9515 -13.6505 70.2445 -14.8861C72.5686 -16.1386 75.8122 -16.9374 80.1998 -17.1974C84.58 -17.4568 90.0352 -17.1761 96.7355 -16.3217C110.138 -14.6126 128.401 -10.6246 152.783 -4.19362C250.303 21.5273 426.565 81.27 572.347 157.605C645.245 195.776 710.451 238.06 754.384 282.267C798.34 326.498 820.786 372.423 808.773 417.97C760.307 601.724 563.299 709.191 368.651 657.852C174.003 606.513 55.6228 415.862 104.088 232.108Z" stroke="url(#paint40_linear_3002_778)" stroke-width="2.08017"/>
<path d="M98.5069 245.39C117.209 158.809 84.6255 91.7817 63.9178 49.1842C62.2425 45.7378 60.6448 42.4514 59.1584 39.3275C54.178 28.8604 50.4957 20.3197 49.245 13.694C48.6218 10.3924 48.6223 7.65984 49.3016 5.44473C49.9701 3.26482 51.3175 1.51225 53.5525 0.174374C55.8177 -1.1817 59.022 -2.12598 63.3934 -2.58369C67.7573 -3.04056 73.2196 -3.0063 79.9517 -2.4551C93.4174 -1.35246 111.842 1.8074 136.49 7.13162C235.07 28.4259 413.849 80.1544 562.927 149.833C637.473 184.676 704.521 223.975 750.403 266.154C796.311 308.357 820.806 353.222 810.86 399.265C770.736 585.019 578.777 701.266 382.011 658.762C185.244 616.259 58.3823 431.144 98.5069 245.39Z" stroke="url(#paint41_linear_3002_778)" stroke-width="2.08017"/>
<path d="M94.1774 257.042C109.495 169.798 74.3261 104.09 51.9756 62.3313C50.1674 58.9528 48.443 55.7311 46.836 52.6674C41.4519 42.4021 37.4399 34.0113 35.9322 27.4393C35.1809 24.1645 35.0751 21.434 35.6676 19.1941C36.2507 16.9898 37.5289 15.1861 39.71 13.7622C41.9207 12.319 45.0858 11.2507 49.4361 10.6231C53.779 9.99671 59.2384 9.81828 65.9868 10.107C79.4853 10.6845 98.0186 13.1247 122.855 17.4852C222.19 34.9253 402.847 79.6542 554.525 143.476C630.371 175.39 698.898 212.049 746.388 252.41C793.904 292.793 820.127 336.671 811.982 383.066C779.119 570.241 591.832 693.873 393.56 659.063C195.288 624.253 61.3152 444.217 94.1774 257.042Z" stroke="url(#paint42_linear_3002_778)" stroke-width="2.08017"/>
<path d="M90.899 266.934C103.36 179.237 66.0651 114.712 42.3633 73.7054C40.4457 70.3877 38.6171 67.224 36.911 64.2144C31.1946 54.1304 26.9108 45.875 25.1894 39.3557C24.3315 36.1072 24.1366 33.3816 24.6557 31.1235C25.1665 28.9014 26.3852 27.0569 28.5187 25.5626C30.6811 24.048 33.8096 22.8769 38.1371 22.1076C42.4572 21.3398 47.9079 20.9832 54.6621 21.0514C68.1723 21.188 86.7754 23.0218 111.741 26.5693C211.592 40.7573 393.613 79.5646 547.293 138.401C624.141 167.822 693.828 202.224 742.611 241.013C791.42 279.823 819.061 322.822 812.435 369.458C785.7 557.607 602.549 687.287 403.246 658.968C203.944 630.649 64.1647 455.083 90.899 266.934Z" stroke="url(#paint43_linear_3002_778)" stroke-width="2.08017"/>
<path d="M87.7291 277.711C97.0966 189.63 57.5544 126.458 32.4244 86.3099C30.3913 83.0618 28.4525 79.9644 26.6415 77.0167C20.5738 67.14 16.0022 59.0405 14.0524 52.5858C13.0809 49.3695 12.7902 46.6524 13.2294 44.3775C13.6618 42.1388 14.8148 40.2526 16.8944 38.6841C19.0021 37.0943 22.0875 35.8139 26.3852 34.8929C30.6757 33.9734 36.1105 33.4253 42.8629 33.2558C56.3695 32.9169 75.0256 34.0951 100.101 36.7618C200.389 47.4276 383.663 79.8062 539.318 133.199C617.153 159.897 688.008 191.826 738.125 228.875C788.27 265.944 817.407 307.943 812.426 354.783C792.328 543.756 613.853 679.8 413.677 658.512C213.502 637.223 67.6317 466.684 87.7291 277.711Z" stroke="url(#paint44_linear_3002_778)" stroke-width="2.08017"/>
<path d="M84.9463 288.571C91.2148 200.216 49.4784 138.471 22.954 99.2303C20.8081 96.0556 18.7617 93.0282 16.8483 90.1458C10.4376 80.4884 5.58433 72.5544 3.40907 66.1722C2.32514 62.9919 1.93919 60.2868 2.2983 57.9978C2.65177 55.7453 3.73779 53.8198 5.76105 52.1792C7.81167 50.5164 10.8502 49.1284 15.1129 48.057C19.3684 46.9875 24.7806 46.2489 31.5229 45.8424C45.0093 45.0293 63.6952 45.5516 88.8486 47.3361C189.45 54.4733 373.748 80.3957 531.182 128.289C609.907 152.238 681.839 181.658 733.226 216.924C784.641 252.209 815.236 293.159 811.902 340.146C798.454 529.708 624.866 671.936 424.066 657.69C223.267 643.444 71.4977 478.133 84.9463 288.571Z" stroke="url(#paint45_linear_3002_778)" stroke-width="2.08017"/>
<path d="M82.391 300.298C85.3337 211.769 41.3058 151.636 13.3251 113.421C11.0613 110.329 8.90259 107.381 6.88222 104.572C0.112961 95.1625 -5.03508 87.4166 -7.44871 81.1207C-8.65142 77.9834 -9.13878 75.2946 -8.86597 72.9938C-8.59742 70.7296 -7.58456 68.7646 -5.62439 67.0492C-3.63774 65.3104 -0.653536 63.8092 3.56589 62.5783C7.77817 61.3496 13.1588 60.408 19.8811 59.7484C33.3274 58.429 52.0197 58.2484 77.2223 59.0861C178.021 62.4367 363.163 81.4129 522.286 123.354C601.855 144.327 674.843 171.023 727.519 204.332C780.225 237.659 812.337 277.43 810.772 324.509C804.459 514.442 636.34 663.095 435.147 656.408C233.954 649.72 76.0777 490.231 82.391 300.298Z" stroke="url(#paint46_linear_3002_778)" stroke-width="2.08017"/>
</g>
</g>
<defs>
<linearGradient id="paint0_linear_3002_778" x1="120.844" y1="276.585" x2="681.318" y2="451.66" gradientUnits="userSpaceOnUse">
<stop stop-color="#1F6050"/>
<stop offset="1" stop-color="#1F6050" stop-opacity="0"/>
</linearGradient>
<linearGradient id="paint1_linear_3002_778" x1="117.613" y1="287.693" x2="684.548" y2="440.552" gradientUnits="userSpaceOnUse">
<stop stop-color="#1F6050"/>
<stop offset="1" stop-color="#1F6050" stop-opacity="0"/>
</linearGradient>
<linearGradient id="paint2_linear_3002_778" x1="114.304" y1="301.239" x2="687.858" y2="427.006" gradientUnits="userSpaceOnUse">
<stop stop-color="#1F6050"/>
<stop offset="1" stop-color="#1F6050" stop-opacity="0"/>
</linearGradient>
<linearGradient id="paint3_linear_3002_778" x1="106.857" y1="308.632" x2="684.116" y2="416.117" gradientUnits="userSpaceOnUse">
<stop stop-color="#1F6050"/>
<stop offset="1" stop-color="#1F6050" stop-opacity="0"/>
</linearGradient>
<linearGradient id="paint4_linear_3002_778" x1="104.815" y1="321.088" x2="686.161" y2="403.663" gradientUnits="userSpaceOnUse">
<stop stop-color="#1F6050"/>
<stop offset="1" stop-color="#1F6050" stop-opacity="0"/>
</linearGradient>
<linearGradient id="paint5_linear_3002_778" x1="103.434" y1="332.371" x2="687.541" y2="392.378" gradientUnits="userSpaceOnUse">
<stop stop-color="#1F6050"/>
<stop offset="1" stop-color="#1F6050" stop-opacity="0"/>
</linearGradient>
<linearGradient id="paint6_linear_3002_778" x1="102.468" y1="344.06" x2="688.506" y2="380.691" gradientUnits="userSpaceOnUse">
<stop stop-color="#1F6050"/>
<stop offset="1" stop-color="#1F6050" stop-opacity="0"/>
</linearGradient>
<linearGradient id="paint7_linear_3002_778" x1="102.021" y1="353.802" x2="688.952" y2="370.948" gradientUnits="userSpaceOnUse">
<stop stop-color="#1F6050"/>
<stop offset="1" stop-color="#1F6050" stop-opacity="0"/>
</linearGradient>
<linearGradient id="paint8_linear_3002_778" x1="101.941" y1="367.533" x2="689.032" y2="357.216" gradientUnits="userSpaceOnUse">
<stop stop-color="#1F6050"/>
<stop offset="1" stop-color="#1F6050" stop-opacity="0"/>
</linearGradient>
<linearGradient id="paint9_linear_3002_778" x1="102.45" y1="380.402" x2="688.523" y2="344.348" gradientUnits="userSpaceOnUse">
<stop stop-color="#1F6050"/>
<stop offset="1" stop-color="#1F6050" stop-opacity="0"/>
</linearGradient>
<linearGradient id="paint10_linear_3002_778" x1="103.562" y1="393.605" x2="687.412" y2="331.145" gradientUnits="userSpaceOnUse">
<stop stop-color="#1F6050"/>
<stop offset="1" stop-color="#1F6050" stop-opacity="0"/>
</linearGradient>
<linearGradient id="paint11_linear_3002_778" x1="105.264" y1="406.67" x2="685.725" y2="318.085" gradientUnits="userSpaceOnUse">
<stop stop-color="#1F6050"/>
<stop offset="1" stop-color="#1F6050" stop-opacity="0"/>
</linearGradient>
<linearGradient id="paint12_linear_3002_778" x1="107.551" y1="419.683" x2="683.439" y2="305.072" gradientUnits="userSpaceOnUse">
<stop stop-color="#1F6050"/>
<stop offset="1" stop-color="#1F6050" stop-opacity="0"/>
</linearGradient>
<linearGradient id="paint13_linear_3002_778" x1="110.32" y1="432.17" x2="680.669" y2="292.585" gradientUnits="userSpaceOnUse">
<stop stop-color="#1F6050"/>
<stop offset="1" stop-color="#1F6050" stop-opacity="0"/>
</linearGradient>
<linearGradient id="paint14_linear_3002_778" x1="112.866" y1="441.856" x2="678.122" y2="282.9" gradientUnits="userSpaceOnUse">
<stop stop-color="#1F6050"/>
<stop offset="1" stop-color="#1F6050" stop-opacity="0"/>
</linearGradient>
<linearGradient id="paint15_linear_3002_778" x1="116.751" y1="454.56" x2="674.238" y2="270.195" gradientUnits="userSpaceOnUse">
<stop stop-color="#1F6050"/>
<stop offset="1" stop-color="#1F6050" stop-opacity="0"/>
</linearGradient>
<linearGradient id="paint16_linear_3002_778" x1="120.499" y1="465.203" x2="670.49" y2="259.552" gradientUnits="userSpaceOnUse">
<stop stop-color="#1F6050"/>
<stop offset="1" stop-color="#1F6050" stop-opacity="0"/>
</linearGradient>
<linearGradient id="paint17_linear_3002_778" x1="125.077" y1="476.7" x2="665.912" y2="248.055" gradientUnits="userSpaceOnUse">
<stop stop-color="#1F6050"/>
<stop offset="1" stop-color="#1F6050" stop-opacity="0"/>
</linearGradient>
<linearGradient id="paint18_linear_3002_778" x1="130.937" y1="489.676" x2="660.052" y2="235.079" gradientUnits="userSpaceOnUse">
<stop stop-color="#1F6050"/>
<stop offset="1" stop-color="#1F6050" stop-opacity="0"/>
</linearGradient>
<linearGradient id="paint19_linear_3002_778" x1="137.51" y1="502.517" x2="653.48" y2="222.238" gradientUnits="userSpaceOnUse">
<stop stop-color="#1F6050"/>
<stop offset="1" stop-color="#1F6050" stop-opacity="0"/>
</linearGradient>
<linearGradient id="paint20_linear_3002_778" x1="145.453" y1="516.243" x2="645.537" y2="208.513" gradientUnits="userSpaceOnUse">
<stop stop-color="#1F6050"/>
<stop offset="1" stop-color="#1F6050" stop-opacity="0"/>
</linearGradient>
<linearGradient id="paint21_linear_3002_778" x1="153.76" y1="528.99" x2="637.229" y2="195.765" gradientUnits="userSpaceOnUse">
<stop stop-color="#1F6050"/>
<stop offset="1" stop-color="#1F6050" stop-opacity="0"/>
</linearGradient>
<linearGradient id="paint22_linear_3002_778" x1="161.816" y1="540.112" x2="629.174" y2="184.643" gradientUnits="userSpaceOnUse">
<stop stop-color="#1F6050"/>
<stop offset="1" stop-color="#1F6050" stop-opacity="0"/>
</linearGradient>
<linearGradient id="paint23_linear_3002_778" x1="169.324" y1="549.573" x2="621.665" y2="175.182" gradientUnits="userSpaceOnUse">
<stop stop-color="#1F6050"/>
<stop offset="1" stop-color="#1F6050" stop-opacity="0"/>
</linearGradient>
<linearGradient id="paint24_linear_3002_778" x1="178.432" y1="560.062" x2="612.557" y2="164.693" gradientUnits="userSpaceOnUse">
<stop stop-color="#1F6050"/>
<stop offset="1" stop-color="#1F6050" stop-opacity="0"/>
</linearGradient>
<linearGradient id="paint25_linear_3002_778" x1="187.016" y1="569.095" x2="603.974" y2="155.661" gradientUnits="userSpaceOnUse">
<stop stop-color="#1F6050"/>
<stop offset="1" stop-color="#1F6050" stop-opacity="0"/>
</linearGradient>
<linearGradient id="paint26_linear_3002_778" x1="195.846" y1="577.635" x2="595.143" y2="147.12" gradientUnits="userSpaceOnUse">
<stop stop-color="#1F6050"/>
<stop offset="1" stop-color="#1F6050" stop-opacity="0"/>
</linearGradient>
<linearGradient id="paint27_linear_3002_778" x1="204.56" y1="585.4" x2="586.431" y2="139.355" gradientUnits="userSpaceOnUse">
<stop stop-color="#1F6050"/>
<stop offset="1" stop-color="#1F6050" stop-opacity="0"/>
</linearGradient>
<linearGradient id="paint28_linear_3002_778" x1="213.158" y1="592.483" x2="577.832" y2="132.272" gradientUnits="userSpaceOnUse">
<stop stop-color="#1F6050"/>
<stop offset="1" stop-color="#1F6050" stop-opacity="0"/>
</linearGradient>
<linearGradient id="paint29_linear_3002_778" x1="219.777" y1="597.576" x2="571.214" y2="127.178" gradientUnits="userSpaceOnUse">
<stop stop-color="#1F6050"/>
<stop offset="1" stop-color="#1F6050" stop-opacity="0"/>
</linearGradient>
<linearGradient id="paint30_linear_3002_778" x1="227.416" y1="603.094" x2="563.576" y2="121.661" gradientUnits="userSpaceOnUse">
<stop stop-color="#1F6050"/>
<stop offset="1" stop-color="#1F6050" stop-opacity="0"/>
</linearGradient>
<linearGradient id="paint31_linear_3002_778" x1="235.863" y1="608.778" x2="555.128" y2="115.978" gradientUnits="userSpaceOnUse">
<stop stop-color="#1F6050"/>
<stop offset="1" stop-color="#1F6050" stop-opacity="0"/>
</linearGradient>
<linearGradient id="paint32_linear_3002_778" x1="243.148" y1="613.347" x2="547.844" y2="111.408" gradientUnits="userSpaceOnUse">
<stop stop-color="#1F6050"/>
<stop offset="1" stop-color="#1F6050" stop-opacity="0"/>
</linearGradient>
<linearGradient id="paint33_linear_3002_778" x1="250.863" y1="617.871" x2="540.129" y2="106.884" gradientUnits="userSpaceOnUse">
<stop stop-color="#1F6050"/>
<stop offset="1" stop-color="#1F6050" stop-opacity="0"/>
</linearGradient>
<linearGradient id="paint34_linear_3002_778" x1="258.176" y1="621.875" x2="532.815" y2="102.88" gradientUnits="userSpaceOnUse">
<stop stop-color="#1F6050"/>
<stop offset="1" stop-color="#1F6050" stop-opacity="0"/>
</linearGradient>
<linearGradient id="paint35_linear_3002_778" x1="266.076" y1="625.903" x2="524.916" y2="98.8514" gradientUnits="userSpaceOnUse">
<stop stop-color="#1F6050"/>
<stop offset="1" stop-color="#1F6050" stop-opacity="0"/>
</linearGradient>
<linearGradient id="paint36_linear_3002_778" x1="275.452" y1="630.305" x2="515.539" y2="94.4503" gradientUnits="userSpaceOnUse">
<stop stop-color="#1F6050"/>
<stop offset="1" stop-color="#1F6050" stop-opacity="0"/>
</linearGradient>
<linearGradient id="paint37_linear_3002_778" x1="285.571" y1="634.613" x2="505.419" y2="90.142" gradientUnits="userSpaceOnUse">
<stop stop-color="#1F6050"/>
<stop offset="1" stop-color="#1F6050" stop-opacity="0"/>
</linearGradient>
<linearGradient id="paint38_linear_3002_778" x1="296.782" y1="638.876" x2="494.207" y2="85.879" gradientUnits="userSpaceOnUse">
<stop stop-color="#1F6050"/>
<stop offset="1" stop-color="#1F6050" stop-opacity="0"/>
</linearGradient>
<linearGradient id="paint39_linear_3002_778" x1="307.61" y1="642.505" x2="483.381" y2="82.2498" gradientUnits="userSpaceOnUse">
<stop stop-color="#1F6050"/>
<stop offset="1" stop-color="#1F6050" stop-opacity="0"/>
</linearGradient>
<linearGradient id="paint40_linear_3002_778" x1="320.621" y1="646.26" x2="470.37" y2="78.4947" gradientUnits="userSpaceOnUse">
<stop stop-color="#1F6050"/>
<stop offset="1" stop-color="#1F6050" stop-opacity="0"/>
</linearGradient>
<linearGradient id="paint41_linear_3002_778" x1="333.507" y1="649.349" x2="457.484" y2="75.4053" gradientUnits="userSpaceOnUse">
<stop stop-color="#1F6050"/>
<stop offset="1" stop-color="#1F6050" stop-opacity="0"/>
</linearGradient>
<linearGradient id="paint42_linear_3002_778" x1="344.727" y1="651.545" x2="446.264" y2="73.2098" gradientUnits="userSpaceOnUse">
<stop stop-color="#1F6050"/>
<stop offset="1" stop-color="#1F6050" stop-opacity="0"/>
</linearGradient>
<linearGradient id="paint43_linear_3002_778" x1="354.193" y1="653.048" x2="436.797" y2="71.7063" gradientUnits="userSpaceOnUse">
<stop stop-color="#1F6050"/>
<stop offset="1" stop-color="#1F6050" stop-opacity="0"/>
</linearGradient>
<linearGradient id="paint44_linear_3002_778" x1="364.447" y1="654.322" x2="426.544" y2="70.4333" gradientUnits="userSpaceOnUse">
<stop stop-color="#1F6050"/>
<stop offset="1" stop-color="#1F6050" stop-opacity="0"/>
</linearGradient>
<linearGradient id="paint45_linear_3002_778" x1="374.719" y1="655.232" x2="416.272" y2="69.5227" gradientUnits="userSpaceOnUse">
<stop stop-color="#1F6050"/>
<stop offset="1" stop-color="#1F6050" stop-opacity="0"/>
</linearGradient>
<linearGradient id="paint46_linear_3002_778" x1="385.742" y1="655.806" x2="405.249" y2="68.949" gradientUnits="userSpaceOnUse">
<stop stop-color="#1F6050"/>
<stop offset="1" stop-color="#1F6050" stop-opacity="0"/>
</linearGradient>
<clipPath id="clip0_3002_778">
<rect width="684" height="524" fill="white"/>
</clipPath>
</defs>
</svg>
